<svg version="1.1" id="Calque_1" xmlns="http://www.w3.org/2000/svg" x="0" y="0" viewBox="-514 51 200 200" style="enable-background:new -514 51 200 200" xml:space="preserve"><style>.st0{opacity:.3}.st1{fill:#585763}</style><g id="XMLID_67_"><g id="XMLID_2293_" class="st0"><path id="XMLID_2299_" class="st1" d="M-367.4 178.5h-93.2c-7.3 0-13.3-6-13.3-13.3V112c0-7.3 6-13.3 13.3-13.3h93.1c7.3 0 13.3 6 13.3 13.3v53.3c0 7.3-5.9 13.2-13.2 13.2zm-93.2-74.5c-4.4 0-8 3.6-8 8v53.3c0 4.4 3.6 8 8 8h93.1c4.4 0 8-3.6 8-8V112c0-4.4-3.6-8-8-8h-93.1z"/></g><g id="XMLID_2284_" class="st0"><path id="XMLID_2290_" class="st1" d="M-352.8 203.3h-122.4c-4.4 0-8-3.6-8-8v-4.2c0-4.4 3.6-8 8-8h122.3c4.4 0 8 3.6 8 8v4.2c0 4.5-3.5 8-7.9 8zm-122.4-14.8c-1.5 0-2.7 1.2-2.7 2.7v4.2c0 1.5 1.2 2.7 2.7 2.7h122.3c1.5 0 2.7-1.2 2.7-2.7v-4.2c0-1.5-1.2-2.7-2.7-2.7h-122.3z"/></g><g id="XMLID_2280_"><path id="XMLID_2281_" d="M-392.6 160.2h-42.8c-6.4 0-11.6-5.2-11.6-11.6 0-4.8 2.9-9 7.2-10.8.3-5.8 4.9-10.5 10.7-10.9 2.5-5.9 8.5-9.9 15.1-9.9s12.6 4 15.2 9.9c5.8.5 10.4 5.1 10.7 10.9 4.2 1.8 7.1 6 7.1 10.7.1 6.5-5.1 11.7-11.6 11.7zm-35.7-28c-3.5 0-6.3 2.8-6.3 6.3 0 .3 0 .5.1.9.2 1.4-.7 2.7-2.1 3-3 .6-5.1 3.2-5.1 6.2 0 3.5 2.8 6.3 6.3 6.3h42.9c3.5 0 6.3-2.8 6.3-6.3 0-3-2.1-5.6-5.1-6.2-1.4-.3-2.3-1.6-2.1-3 0-.3.1-.6.1-.9 0-3.5-2.8-6.3-6.3-6.3h-.7c-1.3.1-2.5-.7-2.8-1.9-1.4-4.7-5.9-8.1-10.8-8.1-5 0-9.4 3.3-10.8 8.1-.4 1.2-1.5 2-2.8 1.9h-.8z" style="fill:#f39208"/></g></g></svg>