<svg version="1.1" id="Calque_1" xmlns="http://www.w3.org/2000/svg" x="0" y="0" viewBox="309 247 979 300" style="enable-background:new 309 247 979 300" xml:space="preserve"><style>.st1{fill:#010202}</style><g id="XMLID_1_" style="opacity:.2"><path id="XMLID_25_" class="st1" d="M690.4 395.3c-2.2 0-4.2 1-6 3.1-9.8 12.2-18.4 19.7-25.6 22.5.3-2.6.5-4.7.5-6.2 0-5.2-1.3-10-3.7-14.4-2.4-4.4-6.1-9.6-10.8-16-3.2-4-5.7-7.3-7.2-10-1.6-2.6-2.3-5.2-2.3-7.3 0-3.7 1.4-8.3 4-13.5 1-2 1.8-3.9 2.4-5.7.6-2 .9-3.3.9-4.2 0-1.6-.8-2.9-2.4-3.6-1.6-.7-4.5-1.1-8.7-1.1-9 0-14.8 3.2-17.6 9.8-3.2 7.7-6.7 15.2-10 22.4-3.4 7.2-6.4 13-9 17.2-3.8 6-9.2 13.3-16.3 22.2-5.5 5.3-10.4 8.8-14.9 10.6.3-2.6.5-4.7.5-6.2 0-5.2-1.3-10-3.7-14.4-2.4-4.4-6.1-9.6-10.8-16-3.2-4-5.7-7.3-7.2-10-1.6-2.6-2.3-5.2-2.3-7.3 0-3.7 1.4-8.3 4-13.5 1-2 1.8-3.9 2.4-5.7.6-2 .9-3.3.9-4.2 0-1.6-.8-2.9-2.4-3.6-1.6-.7-4.5-1.1-8.7-1.1-9 0-14.8 3.2-17.6 9.8-3.2 7.7-6.7 15.2-10 22.4-3.4 7.2-6.4 13-9 17.2-3 4.6-6.9 10.1-11.8 16.5-11.7 4.9-22.5 8.6-32.1 10.9-9.9 2.4-19.6 3.7-29.3 3.7-19.5 0-34.2-4.8-44.1-14.6-10-9.8-14.9-23.5-14.9-41.3 0-17.1 2.8-31.8 8.3-44.2 5.1-12.4 12.3-21.8 21.1-28.2 9-6.4 18.3-9.5 28.1-9.5 14.5 0 21.6 6.8 21.6 20.3 0 2.6-.5 6.2-1.4 10.7-.6 3.6-.9 6-.9 7.3 0 3.7 1.1 6.5 3.6 8.5 2.4 2 5.6 2.9 9.8 2.9 6 0 10.6-2.8 13.7-8.3 3.2-5.5 4.8-12.7 4.8-21.8 0-13.5-4.1-24.5-12.5-32.6-8.4-8.3-20.6-12.4-36.5-12.4-17.2 0-32.9 4.6-47.1 13.9s-25.3 22.4-33.5 39.4c-8.3 17-12.4 36.3-12.4 58.2 0 15.7 3.4 29.6 10.4 41.4 7 11.9 17 21 30.1 27.6 13.1 6.4 28.5 9.6 46.2 9.6 10.2 0 21-1 32.4-3.2 10.4-2 20.6-5.1 30.3-9.1 2.5-.2 4.9-1.4 7.2-3.6 3.6-2.2 6.1-4.9 7.8-8 2.6-2.9 5.2-5.9 7.5-9 4.5-5.7 9.1-13.1 13.7-21.8 2.1 2.4 4.4 5.2 6.7 8.4 2.4 3.2 4.4 6.5 5.9 9.9 1.6 3.4 2.4 7 2.5 10.9-1.4-.1-3.3-.5-5.9-.8-2.6-.3-4.8-.6-6.8-.6-5.5 0-9.6 1.4-12.5 4.2s-4.2 6.2-4.2 10c0 4.5 2.1 8.5 6.1 12.1 4.1 3.6 10 5.4 17.7 5.4 8.2 0 15.3-2.5 21.1-7.6 10-.3 18.3-2.1 25-5.5 6.8-3.3 13.9-9.6 21.2-18.8.6-.7 1-1.5 1.5-2.3.9-1.1 1.8-2.3 2.8-3.4 4.5-5.7 9.1-13.1 13.7-21.8 2.1 2.4 4.4 5.2 6.7 8.4 2.4 3.2 4.4 6.5 5.9 9.9 1.6 3.4 2.4 7 2.5 10.9-1.4-.1-3.3-.5-5.9-.8-2.6-.3-4.8-.6-6.8-.6-5.5 0-9.6 1.4-12.5 4.2s-4.2 6.2-4.2 10c0 4.5 2.1 8.5 6.1 12.1 4.1 3.6 10 5.4 17.7 5.4 8.2 0 15.3-2.5 21.1-7.6 10-.3 18.3-2.1 25-5.5 6.8-3.3 13.9-9.6 21.2-18.8 2.9-3.6 4.2-8.2 4.2-13.8 0-3.1-.6-5.6-1.7-7.3-.1-2.3-1.6-3.1-3.6-3.1z"/><path id="XMLID_26_" class="st1" d="M877.4 326.4c6.4 0 11.5-1.7 15.4-5.3 3.9-3.4 5.7-8.2 5.7-14.1 0-4.9-1.7-8.7-5.2-11.4-3.4-2.6-7.9-4-13.3-4-6.1 0-11.1 1.7-15.3 5.3-4.1 3.4-6.1 7.8-6.1 13.1 0 5.2 1.6 9.3 4.7 12.2 3.2 2.7 7.8 4.2 14.1 4.2z"/><path id="XMLID_27_" class="st1" d="M1037.5 326.4c6.4 0 11.5-1.7 15.4-5.3 3.9-3.4 5.7-8.2 5.7-14.1 0-4.9-1.7-8.7-5.2-11.4s-7.9-4-13.3-4c-6.1 0-11.1 1.7-15.3 5.3-4.1 3.4-6.1 7.8-6.1 13.1 0 5.2 1.6 9.3 4.7 12.2 3.2 2.7 7.8 4.2 14.1 4.2z"/><path id="XMLID_30_" class="st1" d="M1184.6 395.3c-2.2 0-4.2 1-6 3.1-6.9 8.2-12.3 14.1-16.3 17.7-4 3.7-7.5 5.5-10.2 5.5-1.8 0-3.2-.7-4.4-2s-1.7-3.1-1.7-5.4c0-6.7 1.7-18.6 5.2-35.7 2.2-11.7 3.3-19.2 3.3-22.3 0-5.2-3.7-7.8-10.9-7.8-3.4 0-6.7.3-9.8.9-.7-3.2-1.7-5.5-2.8-6.8-1.1-1.3-3.3-2-6.5-2-10.2 0-20 3.2-29 9.6-9.2 6.4-16.4 15-21.9 25.6-4.4 8.4-6.9 17.1-7.8 26.2-7.9 5.5-16.4 11.6-25.6 18.5l2.2-15.4c4.9-30.9 7.3-49.8 7.3-56.6 0-2.4-.7-4.2-2.1-5.6s-4.4-2-8.8-2c-5.5 0-9.5 1-12.3 3-2.8 2-4.4 5.2-4.9 9.5-2 16-3.3 27.9-4.2 35.9-.3 4.4-.8 8.6-1.3 13-5.2 6.1-9.5 10.6-12.9 13.7-4.1 3.7-7.6 5.5-10.6 5.5-4.4 0-6.4-3-6.4-9 0-4.1 1.4-12.7 4.2-25.6 3.2-15.2 4.9-25.6 4.9-31.5 0-9.6-4.8-14.5-14.5-14.5-4.9 0-10.3 1.7-16.2 5.2-5.9 3.4-11.8 9.2-17.9 17.1-6.1 8-11.6 18.4-16.5 31.2.6-6.5 1.4-12.1 2.2-16.5.9-4.5 2.1-9.6 3.6-15.6 2.2-8.3 3.3-13.7 3.3-16.1 0-2.1-.6-3.4-1.8-4.2-1.1-.7-3.2-1.1-6.2-1.1-5.5 0-9.8 1-12.9 3-3.1 2-5.3 5.2-6.5 9.5-5.2 16.2-7.8 33.2-8.2 51-4.2 4.9-7.9 8.7-10.8 11.4-4 3.7-7.3 5.6-10 5.6-2.9 0-4.8-1.1-6-3.6-1.1-2.4-1.8-5.7-1.8-10.2 0-5.7 1.8-16.9 5.4-33.2 2.9-13.5 4.2-22.2 4.2-25.8 0-5.1-3.8-7.6-11.4-7.6-4.9 0-8.5.9-10.7 2.6-2.2 1.7-4 5.1-5.4 9.8-2.6 9.1-4.8 18.8-6.5 29.3-1.5 8.8-2.3 16.3-2.5 22.4-4.1 4.7-7.6 8.3-10.4 10.8-4.1 3.7-7.6 5.5-10.6 5.5-4.4 0-6.4-3-6.4-9 0-4.1 1.4-12.7 4.2-25.6 3.2-15.2 4.9-25.6 4.9-31.5 0-9.6-4.8-14.5-14.5-14.5-4.9 0-10.3 1.7-16.2 5.2-5.9 3.4-11.8 9.2-17.9 17.1-6.1 8-11.6 18.4-16.5 31.2.6-6.5 1.4-12.1 2.2-16.5.9-4.5 2.1-9.6 3.6-15.6 2.2-8.3 3.3-13.7 3.3-16.1 0-2.1-.6-3.4-1.8-4.2-1.1-.7-3.2-1.1-6.2-1.1-5.5 0-9.8 1-12.9 3-3.1 2-5.3 5.2-6.5 9.5-5.5 17.3-8.3 35.7-8.3 55.1 0 13.1 1.1 22.6 3.4 28.5 2.3 6 6.3 9 11.9 9 4.6 0 8-1.3 10.1-3.7 2.2-2.4 4-7.1 5.7-14.1 2.2-9.1 5.2-17.7 8.8-25.8 3.7-8.2 7.2-14.7 10.7-19.7 3.4-4.9 6.2-7.5 8.2-7.5 1.6 0 2.4 1.1 2.4 3.6 0 3.6-.9 10-2.9 19.4-2.1 10.7-3.1 18.1-3.1 22.3 0 8.3 2 14.7 5.7 19.1 3.9 4.4 9.5 6.5 17.1 6.5 9.4 0 17.7-2.5 25-7.6 3.6-2.4 7-5.2 10.2-8.3.8 2 1.8 3.9 2.9 5.6 4.4 6.9 11.4 10.2 21 10.2 9.4 0 19.3-4.8 29.7-14.6.5 2.2 1 4 1.6 5.6 2.3 6 6.3 9 11.9 9 4.6 0 8-1.3 10.1-3.7 2.2-2.4 4-7.1 5.7-14.1 2.2-9.1 5.2-17.7 8.8-25.8 3.7-8.2 7.2-14.7 10.7-19.7 3.4-4.9 6.2-7.5 8.2-7.5 1.6 0 2.4 1.1 2.4 3.6 0 3.6-.9 10-2.9 19.4-2.1 10.7-3.1 18.1-3.1 22.3 0 8.3 2 14.7 5.7 19.1 3.9 4.4 9.5 6.5 17.1 6.5 9.4 0 17.7-2.5 25-7.6 1.7-1.1 3.3-2.4 5.1-3.8l-1.1 8.2c-22.6 17.6-38 32.3-46.2 44.2s-12.3 23.2-12.3 33.8c0 7.6 2.3 13.7 7 18.4 4.7 4.7 10.9 7 18.6 7 14.2 0 25.9-8.8 35.2-26.5 9.2-17.7 16.8-42 22.5-72.9 12.4-8.6 23-15.8 31.8-21.7 1.4 4 3.3 7.7 5.9 10.8 5.5 6.7 12.9 10 22 10 11.7 0 21.5-6.2 29.2-18.7 2.1 5.7 5.2 10.3 9.3 13.7 4.1 3.3 8.6 5.1 13.4 5.1 6.4 0 13-2.6 19.9-7.8 6.9-5.2 13.3-11.6 19.4-19.2 2.9-3.2 4.2-7.9 4.2-13.8 0-3.1-.6-5.6-1.7-7.3-.4-1.7-1.9-2.5-3.8-2.5zM993.1 511.6c-4.6 8.7-8.8 13.2-12.7 13.2-4.1 0-6.2-2.9-6.2-8.7 0-6 2.5-12.9 7.5-20.7 4.9-7.8 13.1-16.5 24.5-26.2-4.2 19.5-8.6 33.6-13.1 42.4zm126.1-109.2c-1.4 6.4-3.4 11.5-6.4 15.4-3 3.9-6.1 5.7-9.4 5.7-3.2 0-5.9-1.1-7.7-3.3-1.8-2.2-2.8-5.6-2.8-10.2 0-8.3 1.6-16.2 4.7-23.7s7.3-13.4 12.6-17.9c5.3-4.5 11-6.9 17.2-7l-8.2 41z"/><path id="XMLID_32_" class="st1" d="M1235.9 409.4c-3.3-3.2-8.3-4.8-14.8-4.8-6.9 0-12.2 2-16 6-3.8 4-5.7 9.4-5.7 16.1 0 5.7 1.7 10.4 5.1 14 3.3 3.6 8.3 5.4 14.8 5.4 6.7 0 11.9-2.1 15.8-6.1 3.9-4.1 5.7-9.5 5.7-16.4.1-6.3-1.5-11-4.9-14.2z"/></g></svg>