<svg version="1.1" id="Calque_1" xmlns="http://www.w3.org/2000/svg" x="0" y="0" viewBox="-206 346 1230 300" style="enable-background:new -206 346 1230 300" xml:space="preserve"><style>.st0{fill:#fff}.st1{fill:#f39208}.st6{fill:#77c2e0}.st7{fill:#f9de6a}</style><circle id="XMLID_2_" class="st0" cx="897.4" cy="529.4" r="25.9"/><circle id="XMLID_19_" class="st1" cx="951.3" cy="464.9" r="30.8"/><circle id="XMLID_20_" class="st0" cx="955.7" cy="549.1" r="13"/><path id="XMLID_59_" d="M-168.3 486.8c-30.8-30.8-30.8-80.7 0-111.5s80.8-30.8 111.6 0l-111.6 111.5z" style="fill:#fcc010"/><path id="XMLID_58_" d="m-69.3 387.9-15.4 15.4-51.8 51.8-19.1 19.1c-23.9-23.9-23.9-62.5 0-86.4 23.8-23.8 62.5-23.8 86.3.1z" style="fill:#f49619"/><path id="XMLID_57_" d="m-84.7 403.3-51.8 51.8-3.5-44.3c-.3-4.1 2.9-7.6 7-7.6l48.3.1z" style="fill:#ec630e"/><path id="XMLID_56_" style="fill:#cbeafc" d="M22.8 411.5 20.6 440l-2.5 31.6L5.5 632.7h-119.9l-12.3-158.3-1.6-19.9-3.3-43z"/><path id="XMLID_55_" class="st6" d="M-72.8 460.5H-35v37.8h-37.8z"/><path id="XMLID_54_" class="st6" d="M22.8 411.5 20.6 440 5.5 632.7H-4.9L10.2 440l2.2-28.5z"/><path id="XMLID_53_" class="st1" d="M18.1 471.6 5.5 632.7h-119.9l-12.3-158.3c11.4-4.4 27.9-6.9 48.8-.6 31.4 9.5 57 3.3 85.6-.9 3.4-.4 6.9-.9 10.4-1.3z"/><path id="XMLID_52_" class="st7" d="M-35 478.6v19.7h-37.8v-23c13.3 3.4 25.7 4 37.8 3.3z"/><path id="XMLID_51_" d="M18.1 471.6 5.5 632.7H-4.9L7.6 473c3.5-.5 7-1 10.5-1.4z" style="fill:#c6781a"/><path id="XMLID_50_" transform="rotate(110.218 -76.192 529.329)" class="st7" d="M-95.1 510.4h37.8v37.8h-37.8z"/><path id="XMLID_42_" class="st0" d="M25.9 408.7a4.1 4.1 0 0 0-3.1-1.4H-82.7l16.4-16.4 12.6-12.6c1.7-1.7 1.7-4.3 0-6-32.4-32.4-85.1-32.4-117.6 0-14.5 14.6-23.1 33.9-24.2 54.5-.1 2.3 1.7 4.3 4 4.4h.2c2.2 0 4.1-1.8 4.2-4 1-18.5 8.7-35.8 21.8-48.9 14.1-14.1 32.8-21.9 52.8-21.9 18.5 0 36 6.7 49.7 19l-6.6 6.6c-25.6-22.6-64.8-21.6-89.3 2.9s-25.4 63.7-2.9 89.3l-6.6 6.6c-9.6-10.7-15.8-23.8-18-38.1-.4-2.3-2.5-3.9-4.8-3.5-2.3.4-3.9 2.5-3.5 4.8 2.7 17.5 10.8 33.3 23.3 45.8.8.8 1.9 1.2 3 1.2s2.2-.4 3-1.2l32.9-32.9 1.4 17.7v.1l8.7 111c.2 2.2 2 3.9 4.2 3.9h.3c2.3-.2 4.1-2.2 3.9-4.6l-8.4-107.7c13.2-4.3 27.7-4.1 43.1.6l2.1.6v19.8c0 2.3 1.9 4.2 4.2 4.2H-35c2.3 0 4.2-1.9 4.2-4.2v-15.8c9.4-.8 18.7-2.2 28.1-3.7 5.3-.8 10.7-1.7 16.2-2.4l-11.9 152h-112l-2.1-27c-.2-2.3-2.2-4.1-4.6-3.9-2.3.2-4.1 2.2-3.9 4.6l2.4 30.9c.2 2.2 2 3.9 4.2 3.9H5.5c2.2 0 4-1.7 4.2-3.9l12.7-161 2.7-34.7c.2-2.3-1.6-4.4-3.9-4.6-2.3-.2-4.4 1.6-4.6 3.9l-2.4 31.2c-6.2.8-12.3 1.8-18.2 2.7-9 1.4-17.9 2.8-26.8 3.6v-13.5c0-2.3-1.9-4.2-4.2-4.2h-37.8c-2.3 0-4.2 1.9-4.2 4.2v9.2c-16-4.8-31.7-5.1-45.9-1l-4.1-52.9H18.3l-.4 4.5c-.2 2.3 1.6 4.4 3.9 4.6 2.3.2 4.4-1.6 4.6-3.9l.7-9.1c.1-1.3-.4-2.5-1.2-3.3zm-65.2 85.4h-29.3v-13.5c8.7 1.8 16.9 2.5 25 2.5 1.5 0 2.9 0 4.4-.1l-.1 11.1zm0-29.3v9.8c-9.5.3-19.1-.3-29.3-2.6v-7.2h29.3zm-55.4-57.5h-12.6v-32.8c11.5 1 22.7 5.5 31.9 13.5l-19.3 19.3zm-41 6.5 1.1 14h-34.6c.7-12.1 5.2-24.1 13.6-33.8l19.9 19.8zm-19.9 54.4c-8-9.2-12.5-20.4-13.5-31.9h35.1l.7 9.6-22.3 22.3zm25.4-60.9-19.4-19.3c9.8-8.4 21.7-13 33.8-13.6v33h-14.4v-.1z"/><path id="XMLID_39_" class="st0" d="M-50.5 514.2-86 501.1c-1.1-.4-2.2-.3-3.2.1-1 .5-1.8 1.3-2.2 2.4l-13.1 35.5c-.8 2.2.3 4.6 2.5 5.4l35.5 13.1c.5.2 1 .3 1.5.3 1.7 0 3.3-1.1 4-2.8l13.1-35.5c.7-2.2-.4-4.6-2.6-5.4zm-17 34L-95 538.1l10.1-27.5 27.5 10.1-10.1 27.5z"/><path id="XMLID_38_" class="st0" d="M-10.8 519.6c2.3 0 4.2-1.9 4.2-4.2v-.9c0-2.3-1.9-4.2-4.2-4.2s-4.2 1.9-4.2 4.2v.9c0 2.3 1.8 4.2 4.2 4.2z"/><path id="XMLID_37_" class="st0" d="M-69.3 601.7c-2.3 0-4.2 1.9-4.2 4.2v.9c0 2.3 1.9 4.2 4.2 4.2s4.2-1.9 4.2-4.2v-.9c.1-2.4-1.8-4.2-4.2-4.2z"/><path id="XMLID_36_" class="st0" d="M-53.9 617.8c2.3 0 4.2-1.9 4.2-4.2v-.9c0-2.3-1.9-4.2-4.2-4.2s-4.2 1.9-4.2 4.2v.9c-.1 2.3 1.8 4.2 4.2 4.2z"/><path id="XMLID_35_" class="st0" d="M-18.9 573.6c-2.3 0-4.2 1.9-4.2 4.2v.9c0 2.3 1.9 4.2 4.2 4.2s4.2-1.9 4.2-4.2v-.9c0-2.3-1.8-4.2-4.2-4.2z"/><path id="XMLID_34_" class="st0" d="M-53.9 566.6v-.9c0-2.3-1.9-4.2-4.2-4.2s-4.2 1.9-4.2 4.2v.9c0 2.3 1.9 4.2 4.2 4.2 2.3 0 4.2-1.8 4.2-4.2z"/><path id="XMLID_33_" class="st0" d="M-24.4 504.8c-2.3 0-4.2 1.9-4.2 4.2v.9c0 2.3 1.9 4.2 4.2 4.2s4.2-1.9 4.2-4.2v-.9c0-2.3-1.9-4.2-4.2-4.2z"/><g id="XMLID_60_"><path id="XMLID_61_" class="st0" d="M139.6 457.9v43.6h84v49.7h-84v83H87.9v-226h137.3v49.7h-85.6z"/><path id="XMLID_63_" class="st0" d="M351.2 469.5v54.9c-20-3.2-48.5 4.8-48.5 36.8v73h-48.5V472.8h48.5v28.8c6.5-21.7 28.1-32.1 48.5-32.1z"/><path id="XMLID_65_" class="st1" d="M451 595.5c13.2 0 24.6-5.2 31-12.3l38.8 22.3c-15.8 22-39.7 33.3-70.4 33.3-55.2 0-89.5-37.1-89.5-85.3 0-48.1 34.9-85.3 85.9-85.3 47.2 0 82 36.5 82 85.3 0 6.8-.6 13.2-1.9 19.4H412.2c6.2 16.8 21 22.6 38.8 22.6zm29.7-58.8c-5.2-18.7-19.7-25.5-34.2-25.5-18.4 0-30.7 9-35.2 25.5h69.4z"/><path id="XMLID_68_" class="st0" d="M675.2 585.8c0 37.1-32.3 53-67.2 53-32.3 0-56.9-12.3-69.5-38.4l42-23.9c4.2 12.3 13.2 19.1 27.5 19.1 11.6 0 17.4-3.6 17.4-10 0-17.8-79.5-8.4-79.5-64.3 0-35.2 29.7-53 63.3-53 26.2 0 49.4 11.6 63 34.6l-41.3 22.3c-4.5-8.4-11-14.2-21.6-14.2-8.4 0-13.6 3.2-13.6 9 0 18.3 79.5 6.1 79.5 65.8z"/><path id="XMLID_70_" class="st0" d="M854.4 535.1v99.2H806v-92.1c0-20-12.6-29.4-28.1-29.4-17.8 0-30 10.3-30 33.3v88.2h-48.5V408.2h48.5V488c8.7-12 24.9-19.7 46.2-19.7 32.6-.1 60.3 23.2 60.3 66.8z"/></g></svg>