<svg version="1.1" id="Calque_1" xmlns="http://www.w3.org/2000/svg" x="0" y="0" viewBox="0 0 800 600" style="enable-background:new 0 0 800 600" xml:space="preserve"><style>.st2{fill:#5c5c74}.st5{fill:#e4e6e9}.st6{fill:#cdcfd2}.st7{fill:#5d5c74}.st8{fill:#fff}</style><path id="XMLID_7309_" style="fill:none;stroke:#5d5c74;stroke-width:4;stroke-miterlimit:10" d="M50.3 513.7h709.2"/><path id="XMLID_7308_" d="M626.4 232.3c23.9 74.6-11.4 131.2-103.2 131.2-97 0-125.1-56.4-102.2-131.2 14.5-47.2 9-98.5 23.7-122 20.8-33.1 40.1-46 78.4-46 36.1 0 59.5 11.5 74.3 43.7 12.2 26.2 13.5 75.9 29 124.3z" style="fill:#4fc1ea;stroke:#5d5c74;stroke-width:3;stroke-miterlimit:10"/><path id="XMLID_7305_" class="st2" d="M522.5 363.4c-45.8 0-78-12.2-95.9-36.4-17.1-23.2-19.7-56.5-7.5-96.5 6.7-22 9.1-45 11.3-65.4 2.5-23.7 4.6-44.1 12.6-56.9 21.9-34.9 42-46.6 79.5-46.6 38.6 0 61.1 13.3 75.5 44.5 6.2 13.5 9.6 32.8 13.4 55.2 3.7 21.4 7.9 45.6 15.5 69.3 12.1 37.8 9.3 70.5-8.2 94.4-18.3 25.1-51.6 38.4-96.2 38.4zm0-299.3c-36.5 0-56 11.5-77.4 45.4-7.7 12.3-9.8 32.4-12.2 55.8-2.1 20.5-4.6 43.7-11.4 65.9-12 39.1-9.5 71.7 7.1 94.2 17.3 23.5 48.9 35.3 93.8 35.3 43.8 0 76.3-12.9 94.2-37.4 17-23.2 19.7-55.1 7.8-92.1-7.7-23.9-11.9-48.2-15.6-69.6-3.9-22.2-7.2-41.3-13.2-54.5-13.8-30.1-35.7-43-73.1-43z"/><path id="XMLID_7304_" d="M392 406.9c0-54.9 59.2-99.5 132.2-99.5s132.2 44.5 132.2 99.5" style="fill:#344258;stroke:#5d5c74;stroke-width:4;stroke-miterlimit:10"/><path id="XMLID_7303_" d="M553.8 156c-28.4 0-52.9-11.6-64.6-28.4-4.7 18.9-18 33-34 35v61.2c0 23.6 14.8 53 37.9 67.8v23.6c0 13.2 8.3 31.7 30.2 31.7 21.3 0 30.6-18.5 30.6-31.7v-22c24.7-14.2 38-45 38-69.5V146c-4.1 8-14 10-38.1 10z" style="fill:#fbd7ce"/><path id="XMLID_7300_" class="st2" d="M523.1 347.5c-23.1 0-31.4-19.7-31.4-33v-23c-22-14.4-37.9-43.1-37.9-68.5v-61.2c0-.6.5-1.2 1.1-1.3 15.3-1.9 28.2-15.2 32.9-34 .1-.5.5-.9 1-1s1 .1 1.3.5c12 17.1 36.3 27.8 63.5 27.8 24.7 0 33.3-2.1 36.9-9.1.3-.5.9-.8 1.4-.7.6.1 1 .6 1 1.2v77.7c0 23.1-11.9 54.8-38 70.2v21.2c.1 13.9-9.8 33.2-31.8 33.2zm-66.8-184.6V223c0 24.8 15.7 52.9 37.3 66.7.4.2.6.6.6 1.1v23.6c0 12.2 7.7 30.4 28.9 30.4 20.2 0 29.3-17.8 29.3-30.4v-22c0-.5.2-.9.6-1.1 24.5-14.1 37.3-45.1 37.3-68.4v-73.7c-5.8 6-17.2 7.1-36.8 7.1-26.9 0-51.1-10.2-64.1-26.7-5.2 18.1-17.9 30.9-33.1 33.3z"/><g id="XMLID_7298_"><path id="XMLID_7299_" class="st2" d="M537.5 248.2s-5.9 6.8-13.2 6.8-13.2-6.8-13.2-6.8 5.9.8 13.2.8 13.2-.8 13.2-.8z"/></g><g id="XMLID_7296_"><path id="XMLID_7297_" class="st2" d="M525 229.8h-.3c-2.1-.1-3.9-.9-4.9-2.3-.8-1.1-1-2.5-.6-3.9l1.2.4c-.3 1-.2 1.9.4 2.7.8 1.1 2.2 1.8 3.9 1.8 2 0 3.8-.7 4.7-1.9.6-.8.6-1.8.2-2.9l1.2-.5c.8 1.9.3 3.3-.3 4.1-1 1.5-3.2 2.5-5.5 2.5z"/></g><path id="XMLID_7295_" class="st5" d="M670.3 378.6v156.6c0 8.1-6.6 14.7-14.7 14.7H390.2c-8.1 0-14.7-6.6-14.7-14.7V378.4c0-8.1 6.6-14.7 14.7-14.7h265.4c8.1.2 14.7 6.8 14.7 14.9"/><path id="XMLID_7294_" class="st6" d="M670.3 518.1v17.2c0 8.1-6.6 14.7-14.7 14.7H390.2c-8.1 0-14.7-6.6-14.7-14.7V518l294.8.1z"/><path id="XMLID_7293_" class="st7" d="M375.5 460c-1.7 0-3.1-1.4-3.1-3.1v-31c0-1.7 1.6-2.9 3.1-2.9 1.6 0 2.9 1.4 2.9 2.9v31c.2 1.7-1.2 3.1-2.9 3.1"/><path id="XMLID_7292_" class="st7" d="M655.6 553.2H390.2c-9.9 0-17.8-8-17.8-17.8V476c0-1.7 1.6-2.9 3.1-2.9 1.6 0 2.9 1.4 2.9 2.9v59.4c0 6.4 5.2 11.8 11.6 11.8h265.6c6.4 0 11.6-5.2 11.6-11.8V378.6c0-6.4-5.2-11.8-11.6-11.8H390.2c-6.4 0-11.6 5.2-11.6 11.8v30.8c0 1.7-1.4 3.1-3.1 3.1s-3.1-1.4-3.1-3.1v-30.8c0-9.9 8-17.8 17.8-17.8h265.4c9.9 0 17.8 8 17.8 17.8v156.6c0 9.9-7.9 18-17.8 18"/><path id="XMLID_7288_" class="st8" d="M650.2 428.5c-1.4 0-2.4-1-2.4-2.4v-28.2c0-6.8-5.5-12.3-12.3-12.3h-31.7c-1.4 0-2.4-1-2.4-2.4s1-2.4 2.4-2.4h31.7c9.5 0 17.2 7.8 17.2 17.2v28.2c.1 1.1-1.1 2.3-2.5 2.3m-63.9-43h-22.2c-1.4 0-2.4-1-2.4-2.4s1-2.4 2.4-2.4h22.2c1.4 0 2.4 1 2.4 2.4 0 1.2-1 2.4-2.4 2.4m-54.9 83.9c11.6 13.9 2.8 20.1-8.3 20.1s-20.1-9-20.1-20.1 9-20.1 20.1-20.1 16.3 10 8.3 20.1"/><path id="XMLID_7285_" class="st7" d="M522.9 452.2c-9.4 0-17 7.6-17 17s7.6 17 17 17c5.2 0 9.4-1.6 10.4-4 1.2-2.4-.3-6.4-4.3-11.1-.9-1-1-2.8 0-4 3.1-3.8 4-7.8 2.4-10.7-1.2-2.4-4.5-4.2-8.5-4.2m0 40.4c-12.8 0-23.2-10.4-23.2-23.2 0-12.8 10.4-23.2 23.2-23.2 6.4 0 11.6 2.9 14 7.8 2.3 4.5 1.6 10-1.7 15.2 4.5 6.1 5.9 11.4 3.8 15.8-2.2 4.8-8.3 7.6-16.1 7.6"/><path id="XMLID_7284_" class="st7" d="M519.8 440.3c-1.7 0-3.1-1.4-3.1-3.1 0-.3 0-.5.2-.9.2-.3 2.8-9.7 10.6-12 1.6-.5 3.3.5 3.8 2.3.3 1.6-.5 3.3-2.1 3.6-4.3 1.4-6.4 7.6-6.4 7.8-.4 1.4-1.6 2.3-3 2.3"/><path id="XMLID_7283_" d="M225 530.6h43v-64.1h-43v64.1z" style="fill:#dfe1e2"/><path id="XMLID_7280_" class="st7" d="M228.1 527.5H265v-57.9h-36.9v57.9zm40 6.2h-43c-1.7 0-3.1-1.4-3.1-3.1v-64.1c0-1.7 1.4-3.1 3.1-3.1h43c1.7 0 3.1 1.4 3.1 3.1v64.1c-.2 1.7-1.4 3.1-3.1 3.1z"/><path id="XMLID_7275_" class="st7" d="M268.1 522.1c-1.7 0-3.1-1.4-3.1-3.1 0-1.7 1.4-3.1 3.1-3.1 9.5 0 17.3-7.8 17.3-17.3s-7.8-17.3-17.3-17.3c-1.7 0-3.1-1.4-3.1-3.1s1.4-3.1 3.1-3.1c13 0 23.4 10.6 23.4 23.6 0 12.9-10.6 23.4-23.4 23.4m-21.5-63.6c-.5 0-1-.2-1.4-.7-.5-.7-5.5-7.6-4.5-12.3.5-2.1 1.7-3.6 3.1-5.2 1.6-1.9 3.1-3.6 3.3-6.6.2-1 1-1.7 2.1-1.7 1 .2 1.7 1 1.7 2.1-.3 4.2-2.4 6.6-4.2 8.7-1 1.2-2.1 2.4-2.3 3.6-.5 2.4 2.4 7.3 3.8 9.2.7.9.5 1.9-.3 2.6-.6.2-.9.3-1.3.3m-10.6-1.3c-.2 0-.3 0-.5-.2-.3-.3-3.8-2.6-4.2-5-.2-1 .2-2.1.7-2.9.5-1.2.9-2.3.5-3.6-.2-.5.2-1 .7-1 .5-.2 1 .2 1 .7.5 2.1-.2 3.5-.5 4.7-.3.7-.5 1.4-.5 2.1.2 1 2.1 2.8 3.3 3.8.3.3.5.9.2 1.2-.1 0-.3.2-.7.2m21.2.3c-.3 0-.7-.2-.9-.7-.2-.5-1.6-4.5-.3-6.6.5-.9 1.4-1.6 2.3-2.1 1-.7 1.9-1.2 2.6-2.6.2-.5.7-.7 1.2-.3.3.2.7.7.5 1.2-.9 1.9-2.3 2.8-3.3 3.5-.7.5-1.4.9-1.6 1.4-.5 1 0 3.5.5 5 .2.5 0 1-.5 1.2h-.5"/><path id="XMLID_7271_" class="st8" d="M239.4 517.3c-1.5 0-2.7-1.1-2.7-2.7v-20c0-1.5 1.1-2.7 2.7-2.7 1.5 0 2.7 1.1 2.7 2.7v20c0 1.6-1.2 2.7-2.7 2.7 0 .2 0 .2 0 0m0 22.8c-1.5 0-2.7-1.1-2.7-2.7v-10.1c0-1.5 1.1-2.7 2.7-2.7 1.5 0 2.7 1.1 2.7 2.7v10.1c0 1.4-1.2 2.7-2.7 2.7"/><path id="XMLID_7270_" class="st6" d="M229.1 268.6 179 318.8s-11.6-10.7-13.3-19.9c0 0-8.3-21.2 10.6-37.9 0 0 11-13 34.1-7.4 0 0 12.6 4.2 18.7 15z"/><path id="XMLID_7269_" class="st7" d="M109.9 233.2c.1-.5.5-.8.9-1s.9-.2 1.4 0l59.9 26.3c.2.1.4.2.6.4 15.5-14.2 39.6-13.9 54.6 1.1 2.3 2.3 4.3 4.9 5.9 7.6.7.8.7 2-.1 2.7l-4.2 4.2h-5.7l5.8-5.8c-1.3-2-2.9-4-4.6-5.8-13.8-13.8-36.3-13.8-50.2 0-9.7 9.7-12.6 23.8-8.6 36.1.2.7.1 1.4-.5 1.9-.8.8-2 .8-2.8 0-.1-.1-.2-.3-.3-.4 0 0-.1 0-.1-.1v-.1c0-.1-.1-.2-.1-.3-4.2-13.1-1.4-27.9 8.3-38.6l-57.6-25.3-23.3 74.2h-3.6l24.3-77.1z"/><path id="XMLID_7265_" class="st7" d="M112.8 532.3c-.5 0-1-.2-1.3-.6l-39.4-48.4h4.4l37.1 45.6h64.2c.9 0 1.7.8 1.7 1.7v9c0 .9-.8 1.7-1.7 1.7l-137.5 1.4c-.9 0-1.7-.8-1.7-1.7s.7-1.7 1.7-1.7l135.8-1.4v-5.6h-63.3z"/><path id="XMLID_7263_" class="st7" d="M181.8 321.6c-.8.8-2.1.8-2.8 0-.8-.8-.8-2.1 0-2.8l10.3-10.3v5.7l-7.5 7.4z"/><path id="XMLID_7262_" d="M220.4 308.9c-7.4 7.4-19.1 7.7-27 1.1l28-28c6.7 7.8 6.4 19.5-1 26.9z" style="fill:#edeeef"/><path id="XMLID_7256_" class="st7" d="M228.9 274.5h-5.7l-34 34v5.7l1.3-1.3c9.4 8.2 23.7 7.9 32.6-1.1 8.9-8.9 9.3-23.2 1.1-32.6l4.7-4.7zm-7.4 7.5c6.6 7.8 6.3 19.6-1.1 27-7.4 7.4-19.1 7.7-27 1.1l28.1-28.1z"/><path id="XMLID_7255_" class="st5" d="M50.2 473.7c-11.2 0-20.2-9.1-20.2-20.2 0-11.2 9.1-20.2 20.2-20.2 11.2 0 20.2 9.1 20.2 20.2 0 11.2-9.1 20.2-20.2 20.2z"/><path id="XMLID_7251_" class="st7" d="M72.2 483.3h4.4l-10.2-12.6c4.6-4.3 7.5-10.4 7.5-17.2 0-10.1-6.4-18.7-15.3-22.1l2.8-8.9h-3.6l-2.5 7.9c-1.6-.4-3.4-.6-5.1-.6-13 0-23.6 10.6-23.6 23.6S37.2 477 50.2 477c5 0 9.7-1.6 13.5-4.3l8.5 10.6zm-22-9.6c-11.2 0-20.2-9.1-20.2-20.2 0-11.2 9.1-20.2 20.2-20.2 11.2 0 20.2 9.1 20.2 20.2 0 11.2-9.1 20.2-20.2 20.2z"/><path id="XMLID_7247_" class="st6" d="M40.3 532.3h135.8v7H40.3z"/><path id="XMLID_7245_" style="fill:none;stroke:#5d5c74;stroke-width:3;stroke-miterlimit:10" d="m56.4 432.3 31.8-124.5"/><g id="XMLID_7240_"><path id="XMLID_7243_" class="st2" d="M475.8 189.7c-.6 0-1.3-.2-1.8-.7-1.1-1-1.1-2.6-.1-3.7 3.3-3.5 7.9-5.3 12.3-4.9 3.7.3 6.8 2.2 8.7 5.1.8 1.2.4 2.8-.8 3.6-1.2.8-2.8.4-3.6-.8-1-1.6-2.7-2.5-4.7-2.7-2.8-.3-5.8 1-8 3.3-.6.5-1.3.8-2 .8z"/></g><g id="XMLID_7234_"><path id="XMLID_7235_" class="st2" d="M574.4 189.7c-.7 0-1.4-.3-1.9-.8-2.2-2.3-5.4-3.6-8.6-3.4-2.6.1-4.8 1.2-6.2 3-.9 1.2-2.5 1.4-3.7.5-1.1-.9-1.4-2.5-.5-3.7 2.3-3 5.9-4.8 10-5.1 4.8-.3 9.4 1.6 12.7 5 1 1 1 2.7-.1 3.7-.4.5-1 .8-1.7.8z"/></g></svg>