<svg version="1.1" id="Layer_1" xmlns="http://www.w3.org/2000/svg" xmlns:xlink="http://www.w3.org/1999/xlink" x="0" y="0" viewBox="0 0 500 500" style="enable-background:new 0 0 500 500" xml:space="preserve"><style>.st0{fill:#edeceb}.st1{fill:#fff}.st2{fill:#e2e2e2}.st3{fill:#ffcbb7}.st4{fill:#5b5b74}.st5{fill:#fcd7cd}.st6{fill:#f39200}.st7{fill:#8c8c8c}.st8{fill:#dbdbdb}.st9{fill:none;stroke:#edeceb;stroke-miterlimit:10}.st10{fill:#4fc1ea}</style><circle class="st0" cx="356" cy="36" r="2"/><circle class="st0" cx="363" cy="36" r="2"/><circle class="st0" cx="370" cy="36" r="2"/><circle class="st0" cx="377" cy="36" r="2"/><circle class="st0" cx="384" cy="36" r="2"/><circle class="st0" cx="391" cy="36" r="2"/><circle class="st0" cx="398" cy="36" r="2"/><circle class="st0" cx="405" cy="36" r="2"/><circle class="st0" cx="412" cy="36" r="2"/><circle class="st0" cx="419" cy="36" r="2"/><circle class="st0" cx="426" cy="36" r="2"/><circle class="st0" cx="433" cy="36" r="2"/><circle class="st0" cx="440" cy="36" r="2"/><circle class="st0" cx="447" cy="36" r="2"/><circle class="st0" cx="356" cy="44" r="2"/><circle class="st0" cx="363" cy="44" r="2"/><circle class="st0" cx="370" cy="44" r="2"/><circle class="st0" cx="377" cy="44" r="2"/><circle class="st0" cx="384" cy="44" r="2"/><circle class="st0" cx="391" cy="44" r="2"/><circle class="st0" cx="398" cy="44" r="2"/><circle class="st0" cx="405" cy="44" r="2"/><circle class="st0" cx="412" cy="44" r="2"/><circle class="st0" cx="419" cy="44" r="2"/><circle class="st0" cx="426" cy="44" r="2"/><circle class="st0" cx="433" cy="44" r="2"/><circle class="st0" cx="440" cy="44" r="2"/><circle class="st0" cx="447" cy="44" r="2"/><circle class="st0" cx="356" cy="52" r="2"/><circle class="st0" cx="363" cy="52" r="2"/><circle class="st0" cx="370" cy="52" r="2"/><circle class="st0" cx="377" cy="52" r="2"/><circle class="st0" cx="384" cy="52" r="2"/><circle class="st0" cx="391" cy="52" r="2"/><circle class="st0" cx="398" cy="52" r="2"/><circle class="st0" cx="405" cy="52" r="2"/><circle class="st0" cx="412" cy="52" r="2"/><circle class="st0" cx="419" cy="52" r="2"/><circle class="st0" cx="426" cy="52" r="2"/><circle class="st0" cx="433" cy="52" r="2"/><circle class="st0" cx="440" cy="52" r="2"/><circle class="st0" cx="447" cy="52" r="2"/><circle class="st0" cx="356" cy="60" r="2"/><circle class="st0" cx="363" cy="60" r="2"/><circle class="st0" cx="370" cy="60" r="2"/><circle class="st0" cx="377" cy="60" r="2"/><circle class="st0" cx="384" cy="60" r="2"/><circle class="st0" cx="391" cy="60" r="2"/><circle class="st0" cx="398" cy="60" r="2"/><circle class="st0" cx="405" cy="60" r="2"/><circle class="st0" cx="412" cy="60" r="2"/><circle class="st0" cx="419" cy="60" r="2"/><circle class="st0" cx="426" cy="60" r="2"/><circle class="st0" cx="433" cy="60" r="2"/><circle class="st0" cx="440" cy="60" r="2"/><circle class="st0" cx="447" cy="60" r="2"/><circle class="st0" cx="356" cy="68" r="2"/><circle class="st0" cx="363" cy="68" r="2"/><circle class="st0" cx="370" cy="68" r="2"/><circle class="st0" cx="377" cy="68" r="2"/><circle class="st0" cx="384" cy="68" r="2"/><circle class="st0" cx="391" cy="68" r="2"/><circle class="st0" cx="398" cy="68" r="2"/><circle class="st0" cx="405" cy="68" r="2"/><circle class="st0" cx="412" cy="68" r="2"/><circle class="st0" cx="419" cy="68" r="2"/><circle class="st0" cx="426" cy="68" r="2"/><circle class="st0" cx="433" cy="68" r="2"/><circle class="st0" cx="440" cy="68" r="2"/><circle class="st0" cx="447" cy="68" r="2"/><circle class="st0" cx="356" cy="76" r="2"/><circle class="st0" cx="363" cy="76" r="2"/><circle class="st0" cx="370" cy="76" r="2"/><circle class="st0" cx="377" cy="76" r="2"/><circle class="st0" cx="384" cy="76" r="2"/><circle class="st0" cx="391" cy="76" r="2"/><circle class="st0" cx="398" cy="76" r="2"/><circle class="st0" cx="405" cy="76" r="2"/><circle class="st0" cx="412" cy="76" r="2"/><circle class="st0" cx="419" cy="76" r="2"/><circle class="st0" cx="426" cy="76" r="2"/><circle class="st0" cx="433" cy="76" r="2"/><circle class="st0" cx="440" cy="76" r="2"/><circle class="st0" cx="447" cy="76" r="2"/><circle class="st0" cx="356" cy="84" r="2"/><circle class="st0" cx="363" cy="84" r="2"/><circle class="st0" cx="370" cy="84" r="2"/><circle class="st0" cx="377" cy="84" r="2"/><circle class="st0" cx="384" cy="84" r="2"/><circle class="st0" cx="391" cy="84" r="2"/><circle class="st0" cx="398" cy="84" r="2"/><circle class="st0" cx="405" cy="84" r="2"/><circle class="st0" cx="412" cy="84" r="2"/><circle class="st0" cx="419" cy="84" r="2"/><circle class="st0" cx="426" cy="84" r="2"/><circle class="st0" cx="433" cy="84" r="2"/><circle class="st0" cx="440" cy="84" r="2"/><circle class="st0" cx="447" cy="84" r="2"/><circle class="st0" cx="356" cy="92" r="2"/><circle class="st0" cx="363" cy="92" r="2"/><circle class="st0" cx="370" cy="92" r="2"/><circle class="st0" cx="377" cy="92" r="2"/><circle class="st0" cx="384" cy="92" r="2"/><circle class="st0" cx="391" cy="92" r="2"/><circle class="st0" cx="398" cy="92" r="2"/><circle class="st0" cx="405" cy="92" r="2"/><circle class="st0" cx="412" cy="92" r="2"/><circle class="st0" cx="419" cy="92" r="2"/><circle class="st0" cx="426" cy="92" r="2"/><circle class="st0" cx="433" cy="92" r="2"/><circle class="st0" cx="440" cy="92" r="2"/><circle class="st0" cx="447" cy="92" r="2"/><circle class="st0" cx="356" cy="100" r="2"/><circle class="st0" cx="363" cy="100" r="2"/><circle class="st0" cx="370" cy="100" r="2"/><circle class="st0" cx="377" cy="100" r="2"/><circle class="st0" cx="384" cy="100" r="2"/><circle class="st0" cx="391" cy="100" r="2"/><circle class="st0" cx="398" cy="100" r="2"/><circle class="st0" cx="405" cy="100" r="2"/><circle class="st0" cx="412" cy="100" r="2"/><circle class="st0" cx="419" cy="100" r="2"/><circle class="st0" cx="426" cy="100" r="2"/><circle class="st0" cx="433" cy="100" r="2"/><circle class="st0" cx="440" cy="100" r="2"/><circle class="st0" cx="447" cy="100" r="2"/><circle class="st0" cx="356" cy="108" r="2"/><circle class="st0" cx="363" cy="108" r="2"/><circle class="st0" cx="370" cy="108" r="2"/><circle class="st0" cx="377" cy="108" r="2"/><circle class="st0" cx="384" cy="108" r="2"/><circle class="st0" cx="391" cy="108" r="2"/><circle class="st0" cx="398" cy="108" r="2"/><circle class="st0" cx="405" cy="108" r="2"/><circle class="st0" cx="412" cy="108" r="2"/><circle class="st0" cx="419" cy="108" r="2"/><circle class="st0" cx="426" cy="108" r="2"/><circle class="st0" cx="433" cy="108" r="2"/><circle class="st0" cx="440" cy="108" r="2"/><circle class="st0" cx="447" cy="108" r="2"/><circle class="st0" cx="356" cy="116" r="2"/><circle class="st0" cx="363" cy="116" r="2"/><circle class="st0" cx="370" cy="116" r="2"/><circle class="st0" cx="377" cy="116" r="2"/><circle class="st0" cx="384" cy="116" r="2"/><circle class="st0" cx="391" cy="116" r="2"/><circle class="st0" cx="398" cy="116" r="2"/><circle class="st0" cx="405" cy="116" r="2"/><circle class="st0" cx="412" cy="116" r="2"/><circle class="st0" cx="419" cy="116" r="2"/><circle class="st0" cx="426" cy="116" r="2"/><circle class="st0" cx="433" cy="116" r="2"/><circle class="st0" cx="440" cy="116" r="2"/><circle class="st0" cx="447" cy="116" r="2"/><circle class="st0" cx="356" cy="124" r="2"/><circle class="st0" cx="363" cy="124" r="2"/><circle class="st0" cx="370" cy="124" r="2"/><circle class="st0" cx="377" cy="124" r="2"/><circle class="st0" cx="384" cy="124" r="2"/><circle class="st0" cx="391" cy="124" r="2"/><circle class="st0" cx="398" cy="124" r="2"/><circle class="st0" cx="405" cy="124" r="2"/><circle class="st0" cx="412" cy="124" r="2"/><circle class="st0" cx="419" cy="124" r="2"/><circle class="st0" cx="426" cy="124" r="2"/><circle class="st0" cx="433" cy="124" r="2"/><circle class="st0" cx="440" cy="124" r="2"/><circle class="st0" cx="447" cy="124" r="2"/><circle class="st0" cx="356" cy="132" r="2"/><circle class="st0" cx="363" cy="132" r="2"/><circle class="st0" cx="370" cy="132" r="2"/><circle class="st0" cx="377" cy="132" r="2"/><circle class="st0" cx="384" cy="132" r="2"/><circle class="st0" cx="391" cy="132" r="2"/><circle class="st0" cx="398" cy="132" r="2"/><circle class="st0" cx="405" cy="132" r="2"/><circle class="st0" cx="412" cy="132" r="2"/><circle class="st0" cx="419" cy="132" r="2"/><circle class="st0" cx="426" cy="132" r="2"/><circle class="st0" cx="433" cy="132" r="2"/><circle class="st0" cx="440" cy="132" r="2"/><circle class="st0" cx="447" cy="132" r="2"/><circle class="st0" cx="356" cy="140" r="2"/><circle class="st0" cx="363" cy="140" r="2"/><circle class="st0" cx="370" cy="140" r="2"/><circle class="st0" cx="377" cy="140" r="2"/><circle class="st0" cx="384" cy="140" r="2"/><circle class="st0" cx="391" cy="140" r="2"/><circle class="st0" cx="398" cy="140" r="2"/><circle class="st0" cx="405" cy="140" r="2"/><circle class="st0" cx="412" cy="140" r="2"/><circle class="st0" cx="419" cy="140" r="2"/><circle class="st0" cx="426" cy="140" r="2"/><circle class="st0" cx="433" cy="140" r="2"/><circle class="st0" cx="440" cy="140" r="2"/><circle class="st0" cx="447" cy="140" r="2"/><circle class="st0" cx="356" cy="148" r="2"/><circle class="st0" cx="363" cy="148" r="2"/><circle class="st0" cx="370" cy="148" r="2"/><circle class="st0" cx="377" cy="148" r="2"/><circle class="st0" cx="384" cy="148" r="2"/><circle class="st0" cx="391" cy="148" r="2"/><circle class="st0" cx="398" cy="148" r="2"/><circle class="st0" cx="405" cy="148" r="2"/><circle class="st0" cx="412" cy="148" r="2"/><circle class="st0" cx="419" cy="148" r="2"/><circle class="st0" cx="426" cy="148" r="2"/><circle class="st0" cx="433" cy="148" r="2"/><circle class="st0" cx="440" cy="148" r="2"/><circle class="st0" cx="447" cy="148" r="2"/><circle class="st0" cx="356" cy="156" r="2"/><circle class="st0" cx="363" cy="156" r="2"/><circle class="st0" cx="370" cy="156" r="2"/><circle class="st0" cx="377" cy="156" r="2"/><circle class="st0" cx="384" cy="156" r="2"/><circle class="st0" cx="391" cy="156" r="2"/><circle class="st0" cx="398" cy="156" r="2"/><circle class="st0" cx="405" cy="156" r="2"/><circle class="st0" cx="412" cy="156" r="2"/><circle class="st0" cx="419" cy="156" r="2"/><circle class="st0" cx="426" cy="156" r="2"/><circle class="st0" cx="433" cy="156" r="2"/><circle class="st0" cx="440" cy="156" r="2"/><circle class="st0" cx="447" cy="156" r="2"/><image style="overflow:visible;opacity:.12" width="382" height="412" xlink:href="B057E2DE.png" transform="translate(61 51)"/><path class="st1" d="M97.7 431.5c-7.6 0-13.7-6.2-13.7-13.7V82.2c0-7.6 6.2-13.7 13.7-13.7h304.5c7.6 0 13.7 6.2 13.7 13.7v335.5c0 7.6-6.2 13.7-13.7 13.7H97.7z"/><path class="st2" d="M402.3 69c7.3 0 13.2 5.9 13.2 13.2v335.5c0 7.3-5.9 13.2-13.2 13.2H97.7c-7.3 0-13.2-5.9-13.2-13.2V82.2c0-7.3 5.9-13.2 13.2-13.2h304.6m0-1H97.7c-7.9 0-14.2 6.4-14.2 14.2v335.5c0 7.9 6.4 14.2 14.2 14.2h304.5c7.9 0 14.2-6.4 14.2-14.2V82.2c.1-7.8-6.3-14.2-14.1-14.2z"/><image style="overflow:visible;opacity:.12" width="109" height="108" xlink:href="B057E2D8.png" transform="translate(85 81)"/><circle class="st1" cx="137.5" cy="128" r="29.5"/><path class="st2" d="M137.5 99c16 0 29 13 29 29s-13 29-29 29-29-13-29-29 13-29 29-29m0-1c-16.6 0-30 13.4-30 30s13.4 30 30 30 30-13.4 30-30-13.4-30-30-30z"/><path class="st3" d="M151.9 128.4c0 1.5-1 2.7-2.2 2.7-1.2 0-2.2-1.2-2.2-2.7 0-1.5 1-2.2 2.2-2.2 1.2 0 2.2.7 2.2 2.2z"/><path class="st4" d="M149.7 131.5c-1.4 0-2.5-1.4-2.5-3.1 0-1.6 1-2.6 2.5-2.6s2.5 1 2.5 2.6c0 1.7-1.1 3.1-2.5 3.1zm0-4.9c-1.1 0-1.8.7-1.8 1.9 0 1.3.8 2.4 1.8 2.4s1.8-1.1 1.8-2.4c0-1.2-.6-1.9-1.8-1.9z"/><path class="st3" d="M127.4 128.4c0 1.5-1 2.7-2.2 2.7-1.2 0-2.2-1.2-2.2-2.7 0-1.5 1-2.2 2.2-2.2 1.2 0 2.2.7 2.2 2.2z"/><path class="st4" d="M125.2 131.5c-1.4 0-2.5-1.4-2.5-3.1 0-1.6 1-2.6 2.5-2.6s2.5 1 2.5 2.6c0 1.7-1.1 3.1-2.5 3.1zm0-4.9c-1.1 0-1.8.7-1.8 1.9 0 1.3.8 2.4 1.8 2.4s1.8-1.1 1.8-2.4c0-1.2-.6-1.9-1.8-1.9z"/><path class="st5" d="M149.8 124.1c0 14.6-5.1 20.9-12.3 20.9s-12.5-5.8-12.5-20.9c0-9 5.3-10.9 12.5-10.9s12.3 1.9 12.3 10.9z"/><path class="st4" d="M137.5 145.3c-4 0-7.1-1.7-9.3-5-2.4-3.6-3.6-9.1-3.6-16.3 0-9.9 6.5-11.3 12.9-11.3 6.6 0 12.7 1.4 12.7 11.3-.1 13.8-4.6 21.3-12.7 21.3zm0-31.8c-4.1 0-6.9.6-8.8 2-2.3 1.6-3.4 4.5-3.4 8.6 0 17 6.6 20.5 12.2 20.5 7.7 0 12-7.3 12-20.5-.1-8.8-4.8-10.6-12-10.6z"/><path class="st6" d="M137.2 131.3c4.9 0 6 3 8.2 3s3.8-3.2 3.8-3.2 1.4 16.7-11.6 16.7c-13.1 0-12.1-16.5-12.1-16.5s.6 3 3.4 3c2.8.1 3.1-3 8.3-3z"/><path class="st4" d="M137.6 148.1c-3.4 0-6.3-1.1-8.3-3.3-2.4-2.5-3.4-6.1-3.8-8.6-.4-2.7-.3-4.8-.3-4.9 0-.2.1-.3.3-.3.2 0 .3.1.4.3 0 .1.6 2.8 3.1 2.8 1.1 0 1.7-.5 2.5-1.1 1.2-.9 2.6-1.9 5.7-1.9 3 0 4.6 1.1 5.9 2 .8.6 1.5 1 2.3 1 2 0 3.5-3 3.5-3.1.1-.1.2-.2.4-.2s.3.2.3.3c0 .1.2 2.2-.2 5-.3 2.6-1.2 6.2-3.6 8.7-2 2.2-4.8 3.3-8.2 3.3zM125.9 133c.1 2.7.8 8 3.9 11.3 2 2.1 4.6 3.1 7.8 3.1s5.8-1 7.7-3.1c3.3-3.6 3.7-9.6 3.6-12-.7 1-1.9 2.4-3.5 2.4-1 0-1.8-.5-2.7-1.2-1.2-.8-2.7-1.9-5.5-1.9-2.9 0-4.2 1-5.3 1.8-.9.6-1.7 1.2-2.9 1.2-1.6.1-2.6-.8-3.1-1.6z"/><path class="st3" d="M141.8 136.9c-.5 1.6-2.3 1.6-4.3 1.6s-4.3.2-4.7-1.4c-.5-1.8 2.8-2 4.7-2s4.8.1 4.3 1.8z"/><path class="st4" d="M136.3 138.8c-1.6 0-3.4-.1-3.9-1.7-.1-.5-.1-.9.2-1.3.6-.8 2.2-1.2 4.9-1.2 1.8 0 3.8.1 4.5 1.1.2.2.4.7.2 1.3-.6 1.8-2.6 1.8-4.5 1.8h-1.4zm1.2-3.4c-3 0-4 .5-4.3.9-.1.2-.2.4-.1.7.3 1 1.4 1.2 3.2 1.2h1.3c2.1 0 3.4-.1 3.8-1.3.1-.4 0-.5-.1-.6-.5-.9-3-.9-3.8-.9zM129.7 127.4c-.1 0-.2 0-.3-.1-.1-.1-.1-.4 0-.5.5-.5 1.2-.7 1.9-.6.5.1 1 .3 1.3.7.1.2.1.4-.1.5-.2.1-.4.1-.5-.1-.2-.2-.4-.3-.8-.4-.5 0-1 .1-1.3.5h-.2zM145 127.4c-.1 0-.2 0-.2-.1-.4-.3-.9-.5-1.4-.5-.4 0-.8.2-1 .4-.1.1-.3.2-.5 0-.1-.1-.2-.3 0-.5.3-.4.9-.6 1.5-.6.7 0 1.4.2 1.9.6.1.1.2.3 0 .5-.1.2-.2.2-.3.2z"/><path class="st6" d="M134.1 106.2c4.6-1.2 9.4 1.9 11.7 4.8 1.9 2.4 4.1 1.7 5.8 4.3 1.7 2.6.6 7.5-.7 9.5l-1.2 2.1s-1.6-6.4-4.1-7.5c-2.5-1.1-2.4 1.5-7.9 1.1-5.5-.4-7.3-3.7-8.7-3.2-1.3.4-1.1 2.8-2.3 5.2-1.1 2.4-1.8 4.4-1.8 4.4s-3.7-7-2.2-10.9c1.1-3 3.3-1.9 4.8-3.9 1.6-2 3.4-5 6.6-5.9z"/><path class="st4" d="M125 127.2c-.1 0-.2-.1-.3-.2-.2-.3-3.7-7.2-2.2-11.2.7-1.9 1.8-2.3 2.9-2.7.7-.3 1.4-.5 2-1.3.2-.3.4-.6.7-.9 1.4-1.9 3.2-4.3 6.1-5.1.7-.2 1.5-.3 2.2-.3 4 0 7.8 2.6 9.8 5.2.8 1.1 1.7 1.5 2.7 1.9 1.1.5 2.2 1 3.1 2.4 1.8 2.8.6 7.9-.6 9.9l-1.2 2.1c-.1.1-.2.2-.3.2-.1 0-.3-.1-.3-.3-.4-1.7-2-6.4-3.9-7.2-.4-.2-.7-.2-1-.2-.4 0-.8.2-1.3.4-.9.4-2 1-4.3 1-.4 0-.8 0-1.2-.1-3.4-.3-5.5-1.6-6.9-2.5-.8-.5-1.3-.9-1.7-.7-.6.2-.8 1.1-1.1 2.2-.2.8-.5 1.8-.9 2.8-1.1 2.3-1.8 4.4-1.8 4.4-.2.1-.3.2-.5.2zm19.5-8.4c.4 0 .8.1 1.2.3 2.1.9 3.5 5.1 4.1 6.9l.8-1.4c1.1-1.9 2.3-6.6.7-9.2-.8-1.3-1.8-1.7-2.8-2.2-1-.5-2-.9-2.9-2.1-1.9-2.4-5.5-4.9-9.3-4.9-.7 0-1.4.1-2 .3-2.6.7-4.3 3-5.7 4.8-.2.3-.5.6-.7.9-.7.9-1.5 1.2-2.3 1.5-1 .4-1.9.7-2.5 2.3-1.1 3 .9 8 1.8 9.9.3-.8.8-2.2 1.5-3.7.4-.9.7-1.8.9-2.7.3-1.3.6-2.4 1.6-2.7.1 0 .2-.1.4-.1.6 0 1.1.4 1.9.9 1.3.9 3.3 2.1 6.5 2.4h1.2c2.1 0 3.1-.5 4-.9.5-.1 1-.3 1.6-.3z"/><path class="st4" d="M137.3 132.2h-.4c-.9-.1-1.3-.8-1.3-.8-.1-.2 0-.4.1-.5.2-.1.4 0 .5.1 0 0 .2.4.8.5.6.1 1 0 1.2-.3.1-.2.1-.4 0-.7-.5-.8-1.3-3.4-1.1-4.3.1-.2.2-.3.4-.2.2.1.3.2.2.4-.2.6.5 2.9 1 3.7.3.5.3 1 0 1.4-.3.5-.8.7-1.4.7zM137.3 137.5c-1 0-1.8-.3-2.2-.9-.1-.2-.1-.4.1-.5.2-.1.4-.1.5.1.3.4.9.6 1.6.6.8 0 1.7-.3 1.9-.7.1-.2.3-.2.5-.1s.2.3.1.5c-.5.7-1.6 1-2.5 1zM130.1 114.7s.1 0 .2.1c.1 0 .1.1.2.2s.2.1.3.2c.1.1.2.2.3.2.1.1.2.2.4.2.1.1.3.2.4.3.1.1.3.2.4.3.1.1.3.2.4.3.1.1.3.2.4.2.1 0 .1.1.2.1s.1.1.2.1c.1.1.2.1.4.2.1.1.2.1.3.2.1 0 .2.1.2.1.1.1.2.1.2.1h-.9c-.1 0-.3-.1-.4-.1-.1 0-.1 0-.2-.1-.1 0-.1-.1-.2-.1-.2-.1-.3-.1-.5-.2s-.3-.2-.5-.3c-.2-.1-.3-.2-.4-.3-.1-.1-.3-.2-.4-.3l-.3-.3-.3-.3c-.1-.1-.2-.2-.2-.3-.1-.1-.1-.2-.1-.2l-.1-.3zM147.9 119.6l-.1-.1s-.1-.1-.1-.2-.1-.1-.1-.2-.1-.1-.1-.2-.1-.2-.2-.3c-.1-.1-.1-.2-.2-.3-.1-.1-.1-.2-.2-.3-.1-.1-.1-.2-.2-.3 0-.1-.1-.2-.2-.3-.1-.1-.1-.2-.1-.3 0-.1-.1-.2-.1-.2 0-.1-.1-.1-.1-.2s-.1-.1-.1-.2c-.1-.1-.1-.2-.1-.2h.2c.1 0 .1 0 .2.1h.1s.1 0 .1.1c.1 0 .2.1.2.2.1.1.2.1.2.2.1.1.2.2.2.3.1.1.1.2.2.3l.3.6c0 .1.1.2.1.3v.7c.1.4.1.5.1.5z"/><path d="M187.1 123.5H185v-4.6h-5.6v4.6h-2.1v-11.3h2.1v4.8h5.6v-4.8h2.1v11.3zM196.9 120.2h-6.2c.1.5.3.9.7 1.2.4.3 1 .5 1.6.5.4 0 .8-.1 1.2-.2.4-.1.7-.3.9-.5l1.3 1.2c-.4.4-.9.7-1.5 1-.6.2-1.3.3-1.9.3-1.4 0-2.4-.4-3.2-1.2-.8-.8-1.2-1.8-1.2-3.1 0-1.2.4-2.2 1.2-3 .8-.8 1.8-1.2 3.1-1.2 1.4 0 2.4.4 3.1 1.3s1 2.1.9 3.7zm-6.2-1.6h4.3c-.1-.5-.3-.9-.6-1.2-.4-.3-.8-.4-1.4-.4-.5 0-1 .1-1.4.4-.5.3-.8.7-.9 1.2zM206.2 123.5h-2v-4.2c0-.6-.2-1.1-.5-1.5s-.8-.6-1.4-.6c-.6 0-1.1.2-1.5.6-.4.4-.6 1-.6 1.6v4.1h-2v-8h1.8l.1 1.1c.8-.8 1.7-1.2 2.6-1.2 1 0 1.8.3 2.4 1s1 1.6 1 2.9v4.2zM207.9 115.5h1.8l.1.9c.3-.5.6-.8 1-.9.4-.2.8-.2 1.3-.2.9 0 1.5.3 2 .8l-.9 1.7c-.4-.3-.9-.5-1.4-.5-.6 0-1 .2-1.4.5-.4.3-.6.8-.6 1.5v4.2h-2v-8zM221.3 115.5h2.2l-4.9 11.3h-2.2l1.5-3.5-3.2-7.8h2.3l1.2 3.4.8 2.2.8-2.2 1.5-3.4zM237.9 123.3v.1h-2.5l-3.3-3.8h-2v3.8H228v-11.3h5.4c1.3 0 2.3.4 3 1.1.7.7 1.1 1.6 1.1 2.6 0 .9-.2 1.6-.7 2.3-.5.7-1.2 1.1-2.2 1.3l3.3 3.9zm-4.6-9.1H230v3.6h3.2c.6 0 1.1-.2 1.4-.5s.5-.8.5-1.3-.2-.9-.5-1.3c-.2-.3-.7-.5-1.3-.5zM239.4 116.6c.8-.8 1.7-1.2 3-1.2s2.2.4 3 1.2c.8.8 1.2 1.8 1.2 3s-.4 2.2-1.1 3c-.8.8-1.8 1.2-3 1.2s-2.3-.4-3-1.2c-.7-.8-1.1-1.8-1.1-3-.1-1.3.2-2.2 1-3zm3 .6c-.7 0-1.2.2-1.6.7-.4.5-.6 1-.6 1.7s.2 1.2.6 1.7c.4.5.9.7 1.6.7.7 0 1.2-.2 1.6-.7.4-.5.6-1 .6-1.7 0-.6-.2-1.2-.6-1.6-.4-.6-1-.8-1.6-.8zM253.4 115.7l.8-1 1.5 1.1-.9 1.1c.6.6.8 1.4.8 2.4 0 .6-.1 1.2-.4 1.7-.3.6-.7 1-1.3 1.2 1.1.5 1.6 1.4 1.6 2.6 0 1.1-.4 1.9-1.1 2.6s-1.7 1-2.9 1-2.1-.3-2.9-1c-.8-.7-1.1-1.5-1.1-2.6h2c0 .5.2.9.6 1.2s.9.5 1.5.5 1.1-.2 1.4-.5.6-.7.6-1.3c0-.5-.2-.9-.6-1.2s-.9-.4-1.4-.4c-1.2 0-2.2-.4-3-1.1-.7-.7-1.1-1.7-1.1-2.9s.4-2.2 1.2-2.9c.8-.7 1.7-1.1 2.9-1.1.7.2 1.3.3 1.8.6zm-1.9 1.4c-.6 0-1.1.2-1.5.6-.4.4-.6 1-.6 1.6s.2 1.2.6 1.6c.4.4.9.6 1.5.6s1.1-.2 1.5-.6c.4-.4.6-.9.6-1.6s-.2-1.2-.6-1.6c-.4-.4-.9-.6-1.5-.6zM264.7 120.2h-6.2c.1.5.3.9.7 1.2.4.3 1 .5 1.6.5.4 0 .8-.1 1.2-.2.4-.1.7-.3.9-.5l1.3 1.2c-.4.4-.9.7-1.5 1s-1.3.3-1.9.3c-1.4 0-2.4-.4-3.2-1.2-.8-.8-1.2-1.8-1.2-3.1 0-1.2.4-2.2 1.2-3 .8-.8 1.8-1.2 3.1-1.2 1.4 0 2.4.4 3.1 1.3.8.9 1.1 2.1.9 3.7zm-6.2-1.6h4.3c-.1-.5-.3-.9-.6-1.2-.4-.3-.8-.4-1.4-.4-.5 0-1 .1-1.4.4-.5.3-.7.7-.9 1.2zM266.2 115.5h1.8l.1.9c.3-.5.6-.8 1-.9.4-.2.8-.2 1.3-.2.9 0 1.5.3 2 .8l-.9 1.7c-.4-.3-.9-.5-1.4-.5-.6 0-1 .2-1.4.5-.4.3-.6.8-.6 1.5v4.2h-2v-8zM279.5 116.4l-1.1 1.3c-.5-.5-1.2-.7-2-.7-1 0-1.5.3-1.5.8s.5.8 1.5.9c.4 0 .7.1.9.1s.6.1.9.2c.3.1.6.3.8.4.2.2.4.4.5.7.1.3.2.7.2 1.1 0 .7-.3 1.4-.9 1.9-.6.5-1.4.8-2.5.8-.7 0-1.4-.1-2-.3s-1.2-.6-1.7-1.1l1-1.4c.3.3.7.6 1.2.8.5.2 1.1.3 1.5.3.4 0 .7-.1 1-.3.3-.2.4-.4.4-.7 0-.3-.1-.5-.4-.6-.2-.1-.6-.2-1.2-.2-.4 0-.8-.1-1.2-.2-.4-.1-.7-.2-1-.4-.3-.2-.6-.4-.8-.8-.2-.3-.3-.7-.3-1.1 0-.4.1-.8.3-1.2.2-.3.5-.6.8-.8s.7-.3 1.1-.4c.4-.1.8-.1 1.1-.1 1.6-.1 2.6.3 3.4 1z"/><path class="st7" d="M177.2 138.5c.4.2 1 .5 1.6.5.9 0 1.3-.4 1.3-1s-.4-.9-1.2-1.2c-1.2-.4-1.8-1.1-1.8-1.9 0-1.1.9-1.9 2.3-1.9.7 0 1.3.2 1.6.4l-.3.9c-.3-.2-.7-.4-1.4-.4s-1.1.4-1.1.9.4.8 1.3 1.1c1.1.4 1.7 1 1.7 2 0 1.2-.9 2-2.5 2-.7 0-1.4-.2-1.9-.5l.4-.9zM182.8 130h1.2v4.1c.2-.3.5-.6.9-.9.4-.2.8-.3 1.2-.3.9 0 2.3.5 2.3 2.8v4h-1.2v-3.8c0-1.1-.4-2-1.5-2-.8 0-1.4.6-1.6 1.2-.1.2-.1.4-.1.6v4h-1.2V130zM194.1 139.8l-.1-.8c-.4.5-1.1 1-2 1-1.3 0-2-1-2-1.9 0-1.6 1.4-2.5 4-2.5v-.1c0-.5-.2-1.5-1.5-1.5-.6 0-1.3.2-1.7.5l-.3-.8c.5-.4 1.4-.6 2.2-.6 2 0 2.5 1.4 2.5 2.7v2.5c0 .6 0 1.1.1 1.6h-1.2zm-.2-3.4c-1.3 0-2.8.2-2.8 1.5 0 .8.5 1.2 1.1 1.2.9 0 1.4-.6 1.6-1.1 0-.1.1-.3.1-.4v-1.2zM197 135.2c0-.8 0-1.5-.1-2.1h1.1v1.3c.3-.9 1-1.5 1.8-1.5h.3v1.1h-.4c-.9 0-1.5.6-1.6 1.5v4.1H197v-4.4zM202.1 136.7c0 1.6 1.1 2.3 2.3 2.3.9 0 1.4-.2 1.8-.3l.2.9c-.4.2-1.2.4-2.2.4-2 0-3.3-1.4-3.3-3.4s1.2-3.6 3.1-3.6c2.2 0 2.7 1.9 2.7 3.1v.6h-4.6zm3.5-.9c0-.8-.3-2-1.7-2-1.2 0-1.8 1.1-1.9 2h3.6zM214 130v8c0 .6 0 1.3.1 1.7H213l-.1-1.1c-.4.7-1.2 1.3-2.3 1.3-1.6 0-2.9-1.4-2.9-3.4 0-2.2 1.4-3.6 3-3.6 1 0 1.7.5 2 1v-4h1.3zm-1.2 5.8c0-.2 0-.4-.1-.5-.2-.8-.8-1.4-1.7-1.4-1.3 0-2 1.1-2 2.6 0 1.3.7 2.5 2 2.5.8 0 1.5-.5 1.8-1.5 0-.2.1-.3.1-.5v-1.2zM222.6 139.8l-.1-.8c-.4.5-1.1 1-2 1-1.3 0-2-1-2-1.9 0-1.6 1.4-2.5 4-2.5v-.1c0-.5-.2-1.5-1.5-1.5-.6 0-1.3.2-1.7.5l-.3-.8c.5-.4 1.4-.6 2.2-.6 2 0 2.5 1.4 2.5 2.7v2.5c0 .6 0 1.1.1 1.6h-1.2zm-.2-3.4c-1.3 0-2.8.2-2.8 1.5 0 .8.5 1.2 1.1 1.2.9 0 1.4-.6 1.6-1.1 0-.1.1-.3.1-.4v-1.2zM228.5 134.9c0-.7 0-1.2-.1-1.8h1.1l.1 1.1c.3-.6 1.1-1.2 2.2-1.2.9 0 2.3.5 2.3 2.8v4h-1.2V136c0-1.1-.4-2-1.5-2-.8 0-1.4.6-1.6 1.2-.1.1-.1.4-.1.6v4h-1.2v-4.9zM236.8 136.7c0 1.6 1.1 2.3 2.3 2.3.9 0 1.4-.2 1.8-.3l.2.9c-.4.2-1.2.4-2.2.4-2 0-3.3-1.4-3.3-3.4s1.2-3.6 3.1-3.6c2.2 0 2.7 1.9 2.7 3.1v.6h-4.6zm3.5-.9c0-.8-.3-2-1.7-2-1.2 0-1.8 1.1-1.9 2h3.6zM243.5 133.1l.9 3.4c.2.7.4 1.4.5 2.1.1-.7.4-1.4.6-2.1l1.1-3.4h1l1 3.3c.2.8.4 1.5.6 2.2.1-.7.3-1.4.5-2.2l.9-3.3h1.2l-2.1 6.6h-1.1l-1-3.2c-.2-.7-.4-1.4-.6-2.2-.2.8-.4 1.5-.6 2.2l-1.1 3.2h-1.1l-2-6.6h1.3zM261.7 130v8c0 .6 0 1.3.1 1.7h-1.1l-.1-1.1c-.4.7-1.2 1.3-2.3 1.3-1.6 0-2.9-1.4-2.9-3.4 0-2.2 1.4-3.6 3-3.6 1 0 1.7.5 2 1v-4h1.3zm-1.2 5.8c0-.2 0-.4-.1-.5-.2-.8-.8-1.4-1.7-1.4-1.3 0-2 1.1-2 2.6 0 1.3.7 2.5 2 2.5.8 0 1.5-.5 1.8-1.5 0-.2.1-.3.1-.5v-1.2zM269.8 136.4c0 2.5-1.7 3.5-3.3 3.5-1.8 0-3.2-1.3-3.2-3.4 0-2.2 1.5-3.5 3.3-3.5 1.9 0 3.2 1.3 3.2 3.4zm-5.3 0c0 1.5.8 2.6 2 2.6s2-1.1 2-2.6c0-1.1-.6-2.5-2-2.5s-2 1.3-2 2.5zM276 139.5c-.3.2-1 .4-1.9.4-2 0-3.3-1.4-3.3-3.4s1.4-3.5 3.6-3.5c.7 0 1.4.2 1.7.4l-.3.9c-.3-.2-.7-.3-1.4-.3-1.5 0-2.3 1.1-2.3 2.5 0 1.5 1 2.5 2.3 2.5.7 0 1.1-.2 1.5-.3l.1.8zM283 137.9c0 .7 0 1.3.1 1.8H282l-.1-1.1c-.3.5-1 1.2-2.2 1.2-1 0-2.3-.6-2.3-2.9V133h1.2v3.7c0 1.3.4 2.1 1.5 2.1.8 0 1.4-.6 1.6-1.1.1-.2.1-.4.1-.6V133h1.2v4.9zM285 134.9c0-.7 0-1.2-.1-1.8h1l.1 1.1c.4-.6 1-1.2 2.1-1.2.9 0 1.6.5 1.9 1.3.2-.4.5-.7.7-.9.4-.3.8-.5 1.5-.5.9 0 2.2.6 2.2 2.9v3.9h-1.2V136c0-1.3-.5-2-1.4-2-.7 0-1.2.5-1.4 1.1-.1.2-.1.4-.1.6v4.1h-1.2v-4c0-1.1-.5-1.8-1.4-1.8-.8 0-1.3.6-1.5 1.2-.1.2-.1.4-.1.6v4H285v-4.9zM297.2 136.7c0 1.6 1.1 2.3 2.3 2.3.9 0 1.4-.2 1.8-.3l.2.9c-.4.2-1.2.4-2.2.4-2 0-3.3-1.4-3.3-3.4s1.2-3.6 3.1-3.6c2.2 0 2.7 1.9 2.7 3.1v.6h-4.6zm3.5-.9c0-.8-.3-2-1.7-2-1.2 0-1.8 1.1-1.9 2h3.6zM303.4 134.9c0-.7 0-1.2-.1-1.8h1.1l.1 1.1c.3-.6 1.1-1.2 2.2-1.2.9 0 2.3.5 2.3 2.8v4h-1.2V136c0-1.1-.4-2-1.5-2-.8 0-1.4.6-1.6 1.2 0 .1-.1.4-.1.6v4h-1.2v-4.9zM312.4 131.2v1.9h1.7v.9h-1.7v3.6c0 .8.2 1.3.9 1.3.3 0 .5 0 .7-.1l.1.9c-.2.1-.6.2-1.1.2-.6 0-1-.2-1.3-.5-.3-.4-.5-1-.5-1.7V134h-1v-.9h1v-1.6l1.2-.3z"/><path class="st8" d="M177 155.3c.2.1.8.4 1.4.4 1.1 0 1.4-.7 1.4-1.2 0-.9-.8-1.2-1.6-1.2h-.5v-.6h.5c.6 0 1.4-.3 1.4-1 0-.5-.3-.9-1.1-.9-.5 0-1 .2-1.2.4l-.2-.6c.3-.2 1-.5 1.6-.5 1.2 0 1.8.7 1.8 1.5 0 .6-.4 1.2-1.1 1.5.8.1 1.4.7 1.4 1.6 0 1-.8 1.9-2.3 1.9-.7 0-1.3-.2-1.6-.4l.1-.9zM185.8 153.1c0 2.1-.8 3.3-2.1 3.3-1.2 0-2-1.1-2-3.2s.9-3.2 2.2-3.2c1.1-.1 1.9 1.1 1.9 3.1zm-3.4 0c0 1.6.5 2.5 1.3 2.5.9 0 1.3-1 1.3-2.6 0-1.5-.4-2.5-1.3-2.5-.8.1-1.3 1-1.3 2.6zM188.8 152.9v-1.2h.7v.7c.3-.4.7-.8 1.5-.8.6 0 1.1.4 1.3.9.1-.3.3-.5.5-.6.3-.2.6-.3 1-.3.6 0 1.5.4 1.5 2v2.7h-.8v-2.6c0-.9-.3-1.4-1-1.4-.5 0-.8.3-1 .8 0 .1-.1.3-.1.4v2.8h-.8v-2.8c0-.7-.3-1.3-1-1.3-.5 0-.9.4-1 .8 0 .1-.1.3-.1.4v2.8h-.8v-3.3zM197.7 150.3c0 .3-.2.5-.5.5s-.5-.2-.5-.5.2-.5.5-.5.5.2.5.5zm-1 5.9v-4.6h.8v4.6h-.8zM199 152.9v-1.2h.7v.8c.2-.4.8-.9 1.5-.9.6 0 1.6.4 1.6 2v2.7h-.8v-2.7c0-.7-.3-1.4-1.1-1.4-.5 0-1 .4-1.1.9 0 .1-.1.3-.1.4v2.8h-.7v-3.4zM208.1 154.9v1.3h-.7v-.8c-.2.4-.7.9-1.5.9-.7 0-1.6-.4-1.6-2v-2.7h.8v2.5c0 .9.3 1.5 1 1.5.6 0 1-.4 1.1-.8 0-.1.1-.3.1-.4v-2.8h.8v3.3zM210.5 150.3v1.3h1.2v.6h-1.2v2.5c0 .6.2.9.6.9.2 0 .4 0 .5-.1v.6c-.2.1-.4.1-.7.1-.4 0-.7-.1-.9-.4-.2-.3-.3-.7-.3-1.2v-2.5h-.7v-.6h.7v-1.1l.8-.1zM213 154.1c0 1.1.7 1.6 1.6 1.6.6 0 1-.1 1.3-.2l.1.6c-.3.1-.8.3-1.5.3-1.4 0-2.3-.9-2.3-2.3s.8-2.5 2.2-2.5c1.5 0 1.9 1.3 1.9 2.2v.4H213zm2.5-.6c0-.5-.2-1.4-1.2-1.4-.9 0-1.2.8-1.3 1.4h2.5zM217.2 155.4c.3.2.7.3 1.1.3.6 0 .9-.3.9-.7 0-.4-.2-.6-.9-.8-.8-.3-1.2-.8-1.2-1.3 0-.7.6-1.3 1.6-1.3.5 0 .9.1 1.1.3l-.2.6c-.2-.1-.5-.3-.9-.3-.5 0-.8.3-.8.6 0 .4.3.6.9.8.8.3 1.2.7 1.2 1.4 0 .8-.6 1.4-1.7 1.4-.5 0-1-.1-1.3-.3l.2-.7zM225.6 156.2l-.1-.6c-.3.4-.7.7-1.4.7-.9 0-1.4-.7-1.4-1.3 0-1.1 1-1.7 2.8-1.7v-.1c0-.4-.1-1.1-1-1.1-.4 0-.9.1-1.2.3l-.2-.6c.4-.2.9-.4 1.5-.4 1.4 0 1.7 1 1.7 1.9v1.7c0 .4 0 .8.1 1.1h-.8zm-.1-2.3c-.9 0-1.9.1-1.9 1 0 .5.4.8.8.8.6 0 1-.4 1.1-.8v-1zM231.6 151.6v4c0 1.1-.2 1.7-.7 2.1-.5.4-1.1.6-1.7.6-.6 0-1.2-.1-1.5-.4l.2-.6c.3.2.8.4 1.4.4.9 0 1.5-.4 1.5-1.6v-.5c-.3.4-.8.8-1.5.8-1.1 0-2-1-2-2.2 0-1.6 1-2.4 2.1-2.4.8 0 1.2.4 1.4.8v-.7h.8zm-.8 1.8v-.4c-.2-.5-.6-.9-1.2-.9-.8 0-1.4.7-1.4 1.7 0 .9.5 1.7 1.4 1.7.5 0 1-.3 1.2-.9 0-.1.1-.3.1-.4v-.8zM237.1 153.9c0 1.7-1.2 2.4-2.3 2.4-1.2 0-2.2-.9-2.2-2.4s1-2.4 2.3-2.4c1.3 0 2.2 1 2.2 2.4zm-3.6 0c0 1 .6 1.8 1.4 1.8.8 0 1.4-.7 1.4-1.8 0-.8-.4-1.8-1.4-1.8-1 0-1.4.9-1.4 1.8z"/><path class="st9" d="M107.5 187h284"/><circle class="st9" cx="361" cy="132.5" r="9"/><image style="overflow:visible;opacity:.12" width="109" height="108" xlink:href="B057E2D7.png" transform="translate(85 195)"/><circle class="st1" cx="137.5" cy="242" r="29.5"/><path class="st2" d="M137.5 213c16 0 29 13 29 29s-13 29-29 29-29-13-29-29 13-29 29-29m0-1c-16.6 0-30 13.4-30 30s13.4 30 30 30 30-13.4 30-30-13.4-30-30-30z"/><path d="M187.1 237.5H185v-4.6h-5.6v4.6h-2.1v-11.3h2.1v4.8h5.6v-4.8h2.1v11.3zM196.9 234.2h-6.2c.1.5.3.9.7 1.2.4.3 1 .5 1.6.5.4 0 .8-.1 1.2-.2.4-.1.7-.3.9-.5l1.3 1.2c-.4.4-.9.7-1.5 1-.6.2-1.3.3-1.9.3-1.4 0-2.4-.4-3.2-1.2-.8-.8-1.2-1.8-1.2-3.1 0-1.2.4-2.2 1.2-3 .8-.8 1.8-1.2 3.1-1.2 1.4 0 2.4.4 3.1 1.3s1 2.1.9 3.7zm-6.2-1.6h4.3c-.1-.5-.3-.9-.6-1.2-.4-.3-.8-.4-1.4-.4-.5 0-1 .1-1.4.4-.5.3-.8.7-.9 1.2zM198.4 226.2h2v11.3h-2v-11.3zM210 234.2h-6.2c.1.5.3.9.7 1.2.4.3 1 .5 1.6.5.4 0 .8-.1 1.2-.2.4-.1.7-.3.9-.5l1.3 1.2c-.4.4-.9.7-1.5 1-.6.2-1.3.3-1.9.3-1.4 0-2.4-.4-3.2-1.2-.8-.8-1.2-1.8-1.2-3.1 0-1.2.4-2.2 1.2-3 .8-.8 1.8-1.2 3.1-1.2 1.4 0 2.4.4 3.1 1.3s1 2.1.9 3.7zm-6.2-1.6h4.3c-.1-.5-.3-.9-.6-1.2-.4-.3-.8-.4-1.4-.4-.5 0-1 .1-1.4.4-.5.3-.8.7-.9 1.2zM219.3 237.5h-2v-4.2c0-.6-.2-1.1-.5-1.5s-.8-.6-1.4-.6c-.6 0-1.1.2-1.5.6-.4.4-.6 1-.6 1.6v4.1h-2v-8h1.8l.1 1.1c.8-.8 1.7-1.2 2.6-1.2 1 0 1.8.3 2.4 1s1 1.6 1 2.9v4.2zM234.3 237.5v-8.2l-3.7 4.9h-.4l-3.6-4.9v8.2h-2.1v-11.3h2.5l3.5 4.9 3.5-4.9h2.4v11.3h-2.1zM238.4 228.1c-.2-.2-.4-.5-.4-.9s.1-.7.4-.9c.2-.2.5-.3.8-.3.3 0 .6.1.8.3.2.2.4.5.4.9s-.1.7-.4.9c-.2.2-.5.3-.8.3-.3.1-.5-.1-.8-.3zm1.8 1.4h-2v8h2v-8zM242 226.2h2v11.3h-2v-11.3zM245.7 226.2h2v11.3h-2v-11.3zM257.2 234.2H251c.1.5.3.9.7 1.2.4.3 1 .5 1.6.5.4 0 .8-.1 1.2-.2.4-.1.7-.3.9-.5l1.3 1.2c-.4.4-.9.7-1.5 1s-1.3.3-1.9.3c-1.4 0-2.4-.4-3.2-1.2-.8-.8-1.2-1.8-1.2-3.1 0-1.2.4-2.2 1.2-3 .8-.8 1.8-1.2 3.1-1.2 1.4 0 2.4.4 3.1 1.3.8.9 1.1 2.1.9 3.7zm-6.1-1.6h4.3c-.1-.5-.3-.9-.6-1.2-.4-.3-.8-.4-1.4-.4-.5 0-1 .1-1.4.4-.5.3-.8.7-.9 1.2zM258.8 229.5h1.8l.1.9c.3-.5.6-.8 1-.9.4-.2.8-.2 1.3-.2.9 0 1.5.3 2 .8l-.9 1.7c-.4-.3-.9-.5-1.4-.5-.6 0-1 .2-1.4.5-.4.3-.6.8-.6 1.5v4.2h-2v-8z"/><path class="st7" d="M177.4 244h1.2v9.8h-1.2V244zM182 245.2c0 .4-.3.8-.8.8-.4 0-.7-.3-.7-.8 0-.4.3-.8.8-.8.4.1.7.4.7.8zm-1.4 8.6v-6.6h1.2v6.6h-1.2zM185 250.2c.2-.2.4-.5.6-.8l2-2.3h1.5l-2.6 2.7 2.9 3.9h-1.5l-2.3-3.2-.6.7v2.5h-1.2V244h1.2v6.2zM191 250.7c0 1.6 1.1 2.3 2.3 2.3.9 0 1.4-.2 1.8-.3l.2.9c-.4.2-1.2.4-2.2.4-2 0-3.3-1.4-3.3-3.4s1.2-3.6 3.1-3.6c2.2 0 2.7 1.9 2.7 3.1v.6H191zm3.5-.9c0-.8-.3-2-1.7-2-1.2 0-1.8 1.1-1.9 2h3.6zM202.9 244v8c0 .6 0 1.3.1 1.7h-1.1l-.1-1.1c-.4.7-1.2 1.3-2.3 1.3-1.6 0-2.9-1.4-2.9-3.4 0-2.2 1.4-3.6 3-3.6 1 0 1.7.5 2 1v-4h1.3zm-1.2 5.8c0-.2 0-.4-.1-.5-.2-.8-.8-1.4-1.7-1.4-1.3 0-2 1.1-2 2.6 0 1.3.7 2.5 2 2.5.8 0 1.5-.5 1.8-1.5 0-.2.1-.3.1-.5v-1.2zM208.3 247.1l1.5 3.9c.2.4.3 1 .4 1.4.1-.4.3-.9.4-1.4l1.3-3.9h1.3l-1.8 4.7c-.9 2.3-1.5 3.4-2.3 4.2-.6.5-1.2.7-1.5.8l-.3-1c.3-.1.7-.3 1.1-.6.3-.3.7-.7 1-1.3.1-.1.1-.2.1-.3 0-.1 0-.2-.1-.3l-2.4-6.1h1.3zM220.2 250.4c0 2.5-1.7 3.5-3.3 3.5-1.8 0-3.2-1.3-3.2-3.4 0-2.2 1.5-3.5 3.3-3.5 1.9 0 3.2 1.3 3.2 3.4zm-5.3 0c0 1.5.8 2.6 2 2.6s2-1.1 2-2.6c0-1.1-.6-2.5-2-2.5s-2 1.3-2 2.5zM227.2 251.9c0 .7 0 1.3.1 1.8h-1.1l-.1-1.1c-.3.5-1 1.2-2.2 1.2-1 0-2.3-.6-2.3-2.9V247h1.2v3.7c0 1.3.4 2.1 1.5 2.1.8 0 1.4-.6 1.6-1.1.1-.2.1-.4.1-.6V247h1.2v4.9zM229.3 249.2c0-.8 0-1.5-.1-2.1h1.1v1.3c.3-.9 1-1.5 1.8-1.5h.3v1.1h-.4c-.9 0-1.5.6-1.6 1.5v4.1h-1.2v-4.4zM236.7 244h1.2v9.8h-1.2V244zM243.6 253.8l-.1-.8c-.4.5-1.1 1-2 1-1.3 0-2-1-2-1.9 0-1.6 1.4-2.5 4-2.5v-.1c0-.5-.2-1.5-1.5-1.5-.6 0-1.3.2-1.7.5l-.3-.8c.5-.4 1.4-.6 2.2-.6 2 0 2.5 1.4 2.5 2.7v2.5c0 .6 0 1.1.1 1.6h-1.2zm-.2-3.4c-1.3 0-2.8.2-2.8 1.5 0 .8.5 1.2 1.1 1.2.9 0 1.4-.6 1.6-1.1 0-.1.1-.3.1-.4v-1.2zM246.4 252.5c.4.2 1 .5 1.6.5.9 0 1.3-.4 1.3-1s-.4-.9-1.2-1.2c-1.2-.4-1.8-1.1-1.8-1.9 0-1.1.9-1.9 2.3-1.9.7 0 1.3.2 1.6.4l-.3.9c-.3-.2-.7-.4-1.4-.4s-1.1.4-1.1.9.4.8 1.3 1.1c1.1.4 1.7 1 1.7 2 0 1.2-.9 2-2.5 2-.7 0-1.4-.2-1.9-.5l.4-.9zM253.4 245.2v1.9h1.7v.9h-1.7v3.6c0 .8.2 1.3.9 1.3.3 0 .5 0 .7-.1l.1.9c-.2.1-.6.2-1.1.2-.6 0-1-.2-1.3-.5-.3-.4-.5-1-.5-1.7V248h-1v-.9h1v-1.6l1.2-.3zM259.4 249.3c0-.8 0-1.5-.1-2.2h1.1l.1 1.1c.5-.8 1.3-1.3 2.4-1.3 1.6 0 2.8 1.4 2.8 3.4 0 2.4-1.5 3.6-3 3.6-.9 0-1.7-.4-2-1v3.6h-1.2v-7.2zm1.2 1.8c0 .2 0 .3.1.5.2.8.9 1.4 1.8 1.4 1.3 0 2-1 2-2.6 0-1.3-.7-2.5-2-2.5-.8 0-1.6.6-1.8 1.5 0 .2-.1.3-.1.5v1.2zM273.3 250.4c0 2.5-1.7 3.5-3.3 3.5-1.8 0-3.2-1.3-3.2-3.4 0-2.2 1.5-3.5 3.3-3.5 1.9 0 3.2 1.3 3.2 3.4zm-5.3 0c0 1.5.8 2.6 2 2.6s2-1.1 2-2.6c0-1.1-.6-2.5-2-2.5s-2 1.3-2 2.5zM274.6 252.5c.4.2 1 .5 1.6.5.9 0 1.3-.4 1.3-1s-.4-.9-1.2-1.2c-1.2-.4-1.8-1.1-1.8-1.9 0-1.1.9-1.9 2.3-1.9.7 0 1.3.2 1.6.4l-.3.9c-.3-.2-.7-.4-1.4-.4s-1.1.4-1.1.9.4.8 1.3 1.1c1.1.4 1.7 1 1.7 2 0 1.2-.9 2-2.5 2-.7 0-1.4-.2-1.9-.5l.4-.9zM281.7 245.2v1.9h1.7v.9h-1.7v3.6c0 .8.2 1.3.9 1.3.3 0 .5 0 .7-.1l.1.9c-.2.1-.6.2-1.1.2-.6 0-1-.2-1.3-.5-.3-.4-.5-1-.5-1.7V248h-1v-.9h1v-1.6l1.2-.3z"/><path class="st8" d="m178.6 264.8-1.1.6-.2-.6 1.3-.7h.7v6.2h-.8v-5.5zM183.9 263.5h.8v2.9c.1-.2.3-.4.6-.6.2-.1.5-.2.9-.2.6 0 1.6.4 1.6 2v2.7h-.8v-2.6c0-.7-.3-1.4-1.1-1.4-.5 0-1 .4-1.1.8 0 .1-.1.2-.1.4v2.8h-.8v-6.8zM193.4 267.9c0 1.7-1.2 2.4-2.3 2.4-1.2 0-2.2-.9-2.2-2.4s1-2.4 2.3-2.4c1.3 0 2.2 1 2.2 2.4zm-3.7 0c0 1 .6 1.8 1.4 1.8.8 0 1.4-.7 1.4-1.8 0-.8-.4-1.8-1.4-1.8-.9 0-1.4.9-1.4 1.8zM198.3 268.9v1.3h-.7v-.8c-.2.4-.7.9-1.5.9-.7 0-1.6-.4-1.6-2v-2.7h.8v2.5c0 .9.3 1.5 1 1.5.6 0 1-.4 1.1-.8 0-.1.1-.3.1-.4v-2.8h.8v3.3zM199.7 267v-1.4h.7v.9c.2-.6.7-1 1.3-1h.2v.8h-.3c-.6 0-1 .4-1.1 1.1v2.9h-.8V267zM207.3 270.2l-.1-.6c-.3.4-.7.7-1.4.7-.9 0-1.4-.7-1.4-1.3 0-1.1 1-1.7 2.8-1.7v-.1c0-.4-.1-1.1-1-1.1-.4 0-.9.1-1.2.3l-.2-.6c.4-.2.9-.4 1.5-.4 1.4 0 1.7 1 1.7 1.9v1.7c0 .4 0 .8.1 1.1h-.8zm-.1-2.3c-.9 0-1.9.1-1.9 1 0 .5.4.8.8.8.6 0 1-.4 1.1-.8v-1zM213.3 265.6v4c0 1.1-.2 1.7-.7 2.1-.5.4-1.1.6-1.7.6-.6 0-1.2-.1-1.5-.4l.2-.6c.3.2.8.4 1.4.4.9 0 1.5-.4 1.5-1.6v-.5c-.3.4-.8.8-1.5.8-1.1 0-2-1-2-2.3 0-1.6 1-2.4 2.1-2.4.8 0 1.2.4 1.4.8v-.7h.8zm-.8 1.8v-.4c-.2-.5-.6-.9-1.2-.9-.8 0-1.4.7-1.4 1.7 0 .9.5 1.7 1.4 1.7.5 0 1-.3 1.2-.9 0-.1.1-.3.1-.4v-.8zM218.8 267.9c0 1.7-1.2 2.4-2.3 2.4-1.2 0-2.2-.9-2.2-2.4s1-2.4 2.3-2.4c1.3 0 2.2 1 2.2 2.4zm-3.6 0c0 1 .6 1.8 1.4 1.8.8 0 1.4-.7 1.4-1.8 0-.8-.4-1.8-1.4-1.8-1 0-1.4.9-1.4 1.8z"/><path class="st9" d="M107.5 301h284"/><circle class="st9" cx="361" cy="246.5" r="9"/><image style="overflow:visible;opacity:.12" width="109" height="108" xlink:href="B057E2EC.png" transform="translate(85 309)"/><circle class="st1" cx="137.5" cy="356" r="29.5"/><path class="st2" d="M137.5 327c16 0 29 13 29 29s-13 29-29 29-29-13-29-29 13-29 29-29m0-1c-16.6 0-30 13.4-30 30s13.4 30 30 30 30-13.4 30-30-13.4-30-30-30z"/><path d="M181.6 340.2c.9 0 1.8.2 2.5.5s1.3.7 1.8 1.3c.4.5.8 1.1 1 1.8s.4 1.3.4 2-.1 1.4-.3 2.1c-.2.7-.6 1.3-1 1.8s-1 1-1.8 1.3c-.7.3-1.6.5-2.5.5h-4.4v-11.3h4.3zm-2.3 2v7.2h2.3c1.2 0 2.1-.4 2.7-1.1.6-.7.9-1.6.9-2.6s-.3-1.8-.9-2.5c-.6-.7-1.5-1-2.6-1h-2.4zM194.9 344.6l.1-1.1h1.9v8H195l-.1-1.2c-.2.4-.6.8-1.1 1-.5.2-1 .4-1.5.4-1.2 0-2.2-.4-3-1.1-.8-.7-1.1-1.8-1.1-3.1s.4-2.4 1.2-3.1c.8-.7 1.8-1.1 3-1.1.5 0 1 .1 1.5.4.5.2.8.5 1 .9zm-2.3.5c-.7 0-1.2.2-1.7.6-.4.4-.7 1-.7 1.8s.2 1.3.7 1.8a2.456 2.456 0 0 0 3.2.2c.4-.3.7-.7.7-1.2.1-.5.1-.9 0-1.4-.1-.5-.3-.9-.7-1.2-.4-.4-.9-.6-1.5-.6zM206.4 351.5h-2v-4.2c0-.6-.2-1.1-.5-1.5-.3-.4-.8-.6-1.4-.6-.6 0-1.1.2-1.5.6-.4.4-.6 1-.6 1.6v4.1h-2v-8h1.8l.1 1.1c.8-.8 1.7-1.2 2.6-1.2 1 0 1.8.3 2.4 1 .6.7 1 1.6 1 2.9v4.2zM216.8 340.2c1.2 0 2.1.3 2.8.8.7.5 1.1 1.4 1.1 2.5 0 1-.5 1.7-1.5 2.2.6.2 1 .5 1.3 1.1s.5 1 .5 1.5c0 2.2-1.4 3.3-4.2 3.3h-5.4v-11.3h5.4zm-3.3 1.9v2.6h3.3c1.2 0 1.8-.4 1.8-1.2 0-.3-.1-.6-.4-.9-.3-.3-.7-.4-1.3-.4h-3.4zm0 4.5v2.9h3.3c.3 0 .6 0 .9-.1s.6-.2.8-.4c.2-.2.4-.5.4-.8 0-.5-.2-.8-.7-1.1-.5-.3-.9-.4-1.4-.4h-3.3zM228.6 344.6l.1-1.1h1.9v8h-1.9l-.1-1.2c-.2.4-.6.8-1.1 1-.5.2-1 .4-1.5.4-1.2 0-2.2-.4-3-1.1-.8-.7-1.1-1.8-1.1-3.1s.4-2.4 1.2-3.1c.8-.7 1.8-1.1 3-1.1.5 0 1 .1 1.5.4.4.2.8.5 1 .9zm-2.4.5c-.7 0-1.2.2-1.7.6-.4.4-.7 1-.7 1.8s.2 1.3.7 1.8a2.456 2.456 0 0 0 3.2.2c.4-.3.7-.7.7-1.2.1-.5.1-.9 0-1.4-.1-.5-.3-.9-.7-1.2-.4-.4-.9-.6-1.5-.6zM235.7 346.2l1.6-2.7h2.4v.1l-2.6 3.9 2.8 4h-2.4l-1.7-2.7-1.7 2.7h-2.4l2.8-4-2.6-3.9v-.1h2.4l1.4 2.7zM241.6 341.5l2-.2v2.3h2.2v1.7h-2.2v3.4c0 .4.1.6.3.8s.4.3.8.3c.3 0 .6-.1 1-.2l.5 1.7c-.5.2-1.1.3-1.6.3-.9 0-1.6-.2-2.1-.7s-.8-1.2-.8-2.2v-3.4h-1.5v-1.7h1.5v-2.1zM255.1 348.2h-6.2c.1.5.3.9.7 1.2.4.3 1 .5 1.6.5.4 0 .8-.1 1.2-.2.4-.1.7-.3.9-.5l1.3 1.2c-.4.4-.9.7-1.5 1s-1.3.3-1.9.3c-1.4 0-2.4-.4-3.2-1.2-.8-.8-1.2-1.8-1.2-3.1 0-1.2.4-2.2 1.2-3s1.8-1.2 3.1-1.2c1.4 0 2.4.4 3.1 1.3.8.9 1.1 2.1.9 3.7zm-6.1-1.6h4.3c-.1-.5-.3-.9-.6-1.2-.4-.3-.8-.4-1.4-.4-.5 0-1 .1-1.4.4-.5.3-.8.7-.9 1.2zM256.6 343.5h1.8l.1.9c.3-.5.6-.8 1-.9.4-.2.8-.2 1.3-.2.9 0 1.5.3 2 .8l-.9 1.7c-.4-.3-.9-.5-1.4-.5-.6 0-1 .2-1.4.5-.4.3-.6.8-.6 1.5v4.2h-2v-8z"/><path class="st7" d="M177.4 363.3c0-.8 0-1.5-.1-2.2h1.1l.1 1.1c.5-.8 1.3-1.3 2.4-1.3 1.6 0 2.8 1.4 2.8 3.4 0 2.4-1.5 3.6-3 3.6-.9 0-1.7-.4-2-1v3.6h-1.2v-7.2zm1.2 1.8c0 .2 0 .3.1.5.2.8.9 1.4 1.8 1.4 1.3 0 2-1 2-2.6 0-1.3-.7-2.5-2-2.5-.8 0-1.6.6-1.8 1.5 0 .2-.1.3-.1.5v1.2zM191.2 364.4c0 2.5-1.7 3.5-3.3 3.5-1.8 0-3.2-1.3-3.2-3.4 0-2.2 1.5-3.5 3.3-3.5 1.9 0 3.2 1.3 3.2 3.4zm-5.3 0c0 1.5.8 2.6 2 2.6s2-1.1 2-2.6c0-1.1-.6-2.5-2-2.5-1.3 0-2 1.3-2 2.5zM192.6 366.5c.4.2 1 .5 1.6.5.9 0 1.3-.4 1.3-1s-.4-.9-1.2-1.2c-1.2-.4-1.8-1.1-1.8-1.9 0-1.1.9-1.9 2.3-1.9.7 0 1.3.2 1.6.4l-.3.9c-.3-.2-.7-.4-1.4-.4s-1.1.4-1.1.9c0 .6.4.8 1.3 1.1 1.1.4 1.7 1 1.7 2 0 1.2-.9 2-2.5 2-.7 0-1.4-.2-1.9-.5l.4-.9zM199.6 359.2v1.9h1.7v.9h-1.7v3.6c0 .8.2 1.3.9 1.3.3 0 .5 0 .7-.1l.1.9c-.2.1-.6.2-1.1.2-.6 0-1-.2-1.3-.5-.3-.4-.5-1-.5-1.7V362h-1v-.9h1v-1.6l1.2-.3zM203.3 364.7c0 1.6 1.1 2.3 2.3 2.3.9 0 1.4-.2 1.8-.3l.2.9c-.4.2-1.2.4-2.2.4-2 0-3.3-1.4-3.3-3.4s1.2-3.6 3.1-3.6c2.2 0 2.7 1.9 2.7 3.1v.6h-4.6zm3.6-.9c0-.8-.3-2-1.7-2-1.2 0-1.8 1.1-1.9 2h3.6zM215.3 358v8c0 .6 0 1.3.1 1.7h-1.1l-.1-1.1c-.4.7-1.2 1.3-2.3 1.3-1.6 0-2.9-1.4-2.9-3.4 0-2.2 1.4-3.6 3-3.6 1 0 1.7.5 2 1v-4h1.3zm-1.2 5.8c0-.2 0-.4-.1-.5-.2-.8-.8-1.4-1.7-1.4-1.3 0-2 1.1-2 2.6 0 1.3.7 2.5 2 2.5.8 0 1.5-.5 1.8-1.5 0-.2.1-.3.1-.5v-1.2zM223.9 367.8l-.1-.8c-.4.5-1.1 1-2 1-1.3 0-2-1-2-1.9 0-1.6 1.4-2.5 4-2.5v-.1c0-.5-.2-1.5-1.5-1.5-.6 0-1.3.2-1.7.5l-.3-.8c.5-.4 1.4-.6 2.2-.6 2 0 2.5 1.4 2.5 2.7v2.5c0 .6 0 1.1.1 1.6h-1.2zm-.2-3.4c-1.3 0-2.8.2-2.8 1.5 0 .8.5 1.2 1.1 1.2.9 0 1.4-.6 1.6-1.1 0-.1.1-.3.1-.4v-1.2zM229.7 362.9c0-.7 0-1.2-.1-1.8h1.1l.1 1.1c.3-.6 1.1-1.2 2.2-1.2.9 0 2.3.5 2.3 2.8v4h-1.2V364c0-1.1-.4-2-1.5-2-.8 0-1.4.6-1.6 1.2-.1.1-.1.4-.1.6v4h-1.2v-4.9zM238 364.7c0 1.6 1.1 2.3 2.3 2.3.9 0 1.4-.2 1.8-.3l.2.9c-.4.2-1.2.4-2.2.4-2 0-3.3-1.4-3.3-3.4s1.2-3.6 3.1-3.6c2.2 0 2.7 1.9 2.7 3.1v.6H238zm3.6-.9c0-.8-.3-2-1.7-2-1.2 0-1.8 1.1-1.9 2h3.6zM244.7 361.1l.9 3.4c.2.7.4 1.4.5 2.1.1-.7.4-1.4.6-2.1l1.1-3.4h1l1 3.3c.2.8.4 1.5.6 2.2.1-.7.3-1.4.5-2.2l.9-3.3h1.2l-2.1 6.6h-1.1l-1-3.2c-.2-.7-.4-1.4-.6-2.2-.2.8-.4 1.5-.6 2.2l-1.1 3.2h-1.1l-2-6.6h1.3zM262 367.5c-.3.2-1 .4-1.9.4-2 0-3.3-1.4-3.3-3.4s1.4-3.5 3.6-3.5c.7 0 1.4.2 1.7.4l-.3.9c-.3-.2-.7-.3-1.4-.3-1.5 0-2.3 1.1-2.3 2.5 0 1.5 1 2.5 2.3 2.5.7 0 1.1-.2 1.5-.3l.1.8zM269.3 364.4c0 2.5-1.7 3.5-3.3 3.5-1.8 0-3.2-1.3-3.2-3.4 0-2.2 1.5-3.5 3.3-3.5 1.9 0 3.2 1.3 3.2 3.4zm-5.2 0c0 1.5.8 2.6 2 2.6s2-1.1 2-2.6c0-1.1-.6-2.5-2-2.5s-2 1.3-2 2.5zM270.9 362.9c0-.7 0-1.2-.1-1.8h1l.1 1.1c.4-.6 1-1.2 2.1-1.2.9 0 1.6.5 1.9 1.3.2-.4.5-.7.7-.9.4-.3.8-.5 1.5-.5.9 0 2.2.6 2.2 2.9v3.9h-1.2V364c0-1.3-.5-2-1.4-2-.7 0-1.2.5-1.4 1.1-.1.2-.1.4-.1.6v4.1H275v-4c0-1.1-.5-1.8-1.4-1.8-.8 0-1.3.6-1.5 1.2-.1.2-.1.4-.1.6v4h-1.2v-4.9zM282.3 362.9c0-.7 0-1.2-.1-1.8h1l.1 1.1c.4-.6 1-1.2 2.1-1.2.9 0 1.6.5 1.9 1.3.2-.4.5-.7.7-.9.4-.3.8-.5 1.5-.5.9 0 2.2.6 2.2 2.9v3.9h-1.2V364c0-1.3-.5-2-1.4-2-.7 0-1.2.5-1.4 1.1-.1.2-.1.4-.1.6v4.1h-1.2v-4c0-1.1-.5-1.8-1.4-1.8-.8 0-1.3.6-1.5 1.2-.1.2-.1.4-.1.6v4h-1.2v-4.9zM294.4 364.7c0 1.6 1.1 2.3 2.3 2.3.9 0 1.4-.2 1.8-.3l.2.9c-.4.2-1.2.4-2.2.4-2 0-3.3-1.4-3.3-3.4s1.2-3.6 3.1-3.6c2.2 0 2.7 1.9 2.7 3.1v.6h-4.6zm3.6-.9c0-.8-.3-2-1.7-2-1.2 0-1.8 1.1-1.9 2h3.6zM300.7 362.9c0-.7 0-1.2-.1-1.8h1.1l.1 1.1c.3-.6 1.1-1.2 2.2-1.2.9 0 2.3.5 2.3 2.8v4h-1.2V364c0-1.1-.4-2-1.5-2-.8 0-1.4.6-1.6 1.2 0 .1-.1.4-.1.6v4h-1.2v-4.9zM309.7 359.2v1.9h1.7v.9h-1.7v3.6c0 .8.2 1.3.9 1.3.3 0 .5 0 .7-.1l.1.9c-.2.1-.6.2-1.1.2-.6 0-1-.2-1.3-.5-.3-.4-.5-1-.5-1.7V362h-1v-.9h1v-1.6l1.2-.3z"/><path class="st8" d="M179.4 384.2v-1.7h-2.9v-.5l2.8-3.9h.9v3.8h.9v.6h-.9v1.7h-.8zm0-2.3v-3.1c-.2.4-.3.6-.5.9l-1.5 2.1h2zM183.9 377.5h.8v2.9c.1-.2.3-.4.6-.6.2-.1.5-.2.9-.2.6 0 1.6.4 1.6 2v2.7h-.8v-2.6c0-.7-.3-1.4-1.1-1.4-.5 0-1 .4-1.1.8 0 .1-.1.2-.1.4v2.8h-.8v-6.8zM193.4 381.9c0 1.7-1.2 2.4-2.3 2.4-1.2 0-2.2-.9-2.2-2.4s1-2.4 2.3-2.4c1.3 0 2.2 1 2.2 2.4zm-3.7 0c0 1 .6 1.8 1.4 1.8.8 0 1.4-.7 1.4-1.8 0-.8-.4-1.8-1.4-1.8-.9 0-1.4.9-1.4 1.8zM198.3 382.9v1.3h-.7v-.8c-.2.4-.7.9-1.5.9-.7 0-1.6-.4-1.6-2v-2.7h.8v2.5c0 .9.3 1.5 1 1.5.6 0 1-.4 1.1-.8 0-.1.1-.3.1-.4v-2.8h.8v3.3zM199.7 381v-1.4h.7v.9c.2-.6.7-1 1.3-1h.2v.8h-.3c-.6 0-1 .4-1.1 1.1v2.9h-.8V381zM202.7 383.4c.3.2.7.3 1.1.3.6 0 .9-.3.9-.7 0-.4-.2-.6-.9-.8-.8-.3-1.2-.8-1.2-1.3 0-.7.6-1.3 1.6-1.3.5 0 .9.1 1.1.3l-.2.6c-.2-.1-.5-.3-.9-.3-.5 0-.8.3-.8.6 0 .4.3.6.9.8.8.3 1.2.7 1.2 1.4 0 .8-.6 1.4-1.7 1.4-.5 0-1-.1-1.3-.3l.2-.7zM213.1 384.2l-.1-.6c-.3.4-.7.7-1.4.7-.9 0-1.4-.7-1.4-1.3 0-1.1 1-1.7 2.8-1.7v-.1c0-.4-.1-1.1-1-1.1-.4 0-.9.1-1.2.3l-.2-.6c.4-.2.9-.4 1.5-.4 1.4 0 1.7 1 1.7 1.9v1.7c0 .4 0 .8.1 1.1h-.8zm-.1-2.3c-.9 0-1.9.1-1.9 1 0 .5.4.8.8.8.6 0 1-.4 1.1-.8v-1zM219.1 379.6v4c0 1.1-.2 1.7-.7 2.1-.5.4-1.1.6-1.7.6-.6 0-1.2-.1-1.5-.4l.2-.6c.3.2.8.4 1.4.4.9 0 1.5-.4 1.5-1.6v-.5c-.3.4-.8.8-1.5.8-1.1 0-2-1-2-2.3 0-1.6 1-2.4 2.1-2.4.8 0 1.2.4 1.4.8v-.7h.8zm-.9 1.8v-.4c-.2-.5-.6-.9-1.2-.9-.8 0-1.4.7-1.4 1.7 0 .9.5 1.7 1.4 1.7.5 0 1-.3 1.2-.9 0-.1.1-.3.1-.4v-.8zM224.6 381.9c0 1.7-1.2 2.4-2.3 2.4-1.2 0-2.2-.9-2.2-2.4s1-2.4 2.3-2.4c1.3 0 2.2 1 2.2 2.4zm-3.6 0c0 1 .6 1.8 1.4 1.8.8 0 1.4-.7 1.4-1.8 0-.8-.4-1.8-1.4-1.8-1 0-1.4.9-1.4 1.8z"/><circle class="st9" cx="361" cy="360.5" r="9"/><path class="st5" d="M132.9 256.6c-3.7-1.3-5.2-5-6.6-10.2-.8-3-1.1-5.1-1.1-8.9 0-9.1 4.7-12.5 12.2-12.5s12.5 1.9 12.5 11c0 13.6-4.5 21.6-12.5 21.6"/><path class="st4" d="M137.3 258c-.2 0-.3-.1-.3-.3s.1-.3.3-.3c7.8 0 12.2-7.8 12.2-21.3 0-8.9-4.9-10.7-12.2-10.7-3.9 0-6.7.9-8.7 2.7-2.1 2-3.2 5.1-3.2 9.4 0 3.8.4 5.9 1.1 8.8 1.9 7.1 3.8 9.1 6.4 10 .2.1.3.3.2.4-.1.2-.3.3-.4.2-3.7-1.3-5.4-5-6.8-10.5-.8-3-1.1-5.1-1.1-9 0-8.6 4.1-12.8 12.5-12.8 6.7 0 12.9 1.4 12.9 11.4 0 14-4.7 22-12.9 22z"/><path class="st4" d="M137.5 246h-.4c-.9-.1-1.3-.8-1.3-.9-.1-.2 0-.4.1-.5.2-.1.4 0 .5.1 0 0 .3.5.8.5.6.1 1 0 1.2-.3.1-.2.1-.5 0-.8-.5-.8-1.4-3.5-1.1-4.5 0-.2.2-.3.4-.2.2 0 .3.2.2.4-.2.6.5 3.1 1 4 .3.5.3 1 0 1.5-.2.4-.8.7-1.4.7zM130.8 239.8c-.1 0-.2 0-.2-.1-.1-.1-.1-.3 0-.5.4-.5 1-.7 1.6-.7.5 0 .9.3 1.1.7.1.2.1.4-.1.5-.2.1-.4.1-.5-.1-.1-.2-.4-.3-.6-.4-.4 0-.8.1-1.1.4-.1.2-.2.2-.2.2zM143.9 239.8c-.1 0-.2 0-.2-.1-.3-.3-.7-.5-1.2-.5-.3 0-.7.2-.8.4-.1.1-.3.2-.5.1-.1-.1-.2-.3-.1-.5.3-.4.8-.6 1.3-.7.6 0 1.2.2 1.7.7.1.1.1.3 0 .5 0 .1-.1.1-.2.1zM137.2 250.2c-.9 0-1.6-.3-1.9-.8-.1-.2-.1-.4.1-.5.2-.1.4-.1.5.1.2.4.8.6 1.5.5.7 0 1.4-.3 1.7-.7.1-.2.3-.2.5-.1s.2.3.1.5c-.4.6-1.2 1-2.2 1.1-.2-.1-.3-.1-.3-.1z"/><path class="st3" d="M126.3 245.3c-1.7-.2-2.7-1.9-2.6-3.4s1.7-1.9 2.9-1.5"/><path class="st4" d="M126.3 245.7c-.8-.1-1.6-.5-2.1-1.1-.6-.7-.9-1.7-.8-2.7.1-.7.4-1.2.9-1.5.6-.4 1.6-.5 2.4-.3.2.1.3.2.2.4-.1.2-.2.3-.4.2-.7-.2-1.4-.1-1.8.2-.4.2-.6.6-.6 1.1-.1.8.2 1.6.7 2.2.3.4.8.8 1.6.9.2 0 .3.2.3.4-.1 0-.2.2-.4.2z"/><path class="st3" d="M148.8 245.3c1.8.1 3-1.6 3.1-3.1.1-1.5-1.4-2.1-2.6-2"/><path class="st4" d="M148.9 245.6h-.2c-.2 0-.3-.2-.3-.4s.2-.3.4-.3c.8.1 1.3-.3 1.7-.6.6-.5 1-1.4 1.1-2.2 0-.5-.1-.8-.4-1.1-.4-.4-1.1-.6-1.8-.5-.2 0-.3-.1-.4-.3 0-.2.1-.3.3-.4.9-.1 1.8.2 2.4.7.4.4.7 1 .6 1.6-.1 1-.6 2-1.3 2.7-.7.5-1.3.8-2.1.8z"/><path class="st10" d="M127.2 240.7c-1.6 3.6 1.3 12.9 1.8 13.3 1.9 1.6-8.5-1.1-9.9-4.7-2-5.1 4.2-20.5 9.1-23.1 1.5-.8 5.8-5.6 12.7-3.3 6.3 2 9.8 4.9 12.2 10 2.4 5.1 5.4 15.5 3.1 18-2.2 2.4-11.8 4.5-10.6 2.2 2.4-4.2 1.5-11.7 1.5-14.8 0-2.9-4.4-3.1-8-4.3-4-1.3-8.7-3.1-8.7-3.1s-1.8 6.5-3.2 9.8z"/><path class="st4" d="M128.9 254.8c-1.7 0-8.8-2.3-10-5.3-1.1-2.9.3-8.5 2-12.7 2.6-6.4 5.5-9.8 7.3-10.8.2-.1.6-.4 1-.7 1.6-1.2 4.4-3.3 8.3-3.3 1.2 0 2.5.2 3.7.6 6.3 2 9.9 5 12.4 10.2 1.3 2.8 2.6 6.7 3.4 10.1.6 3 1.1 6.8-.3 8.3-1.7 1.8-6.9 3.3-9.5 3.3-.9 0-1.5-.2-1.7-.6-.1-.2-.2-.5.1-.9 1.9-3.4 1.6-8.8 1.5-12.5 0-.8-.1-1.6-.1-2.1 0-2-2.4-2.6-5.2-3.3-.9-.2-1.8-.5-2.6-.7-3.3-1.1-7.2-2.6-8.3-3-.4 1.4-2 6.6-3.2 9.5-1.5 3.3 1.2 12.3 1.8 13 .1.1.4.4.3.7-.4.2-.8.2-.9.2zm8.5-32.1c-3.7 0-6.3 2-7.9 3.1-.4.3-.8.6-1.1.7-2.2 1.2-4.9 5.3-7 10.5-2.1 5.2-2.8 10-2 12.2 1 2.5 7.2 4.7 9.2 4.9-.5-.7-1.3-3.4-1.7-5.5-.5-2.6-1-6-.1-8 1.4-3.3 3.3-9.7 3.3-9.7 0-.1.1-.2.2-.2h.3s4.7 1.8 8.7 3.1c.8.3 1.7.5 2.6.7 2.9.7 5.7 1.5 5.7 3.9 0 .6 0 1.3.1 2.1.2 3.7.4 9.3-1.6 12.8-.1.1-.1.2-.1.2.1.1.4.2 1.1.2 2.6 0 7.6-1.5 9-3.1 2-2.2-.5-12.1-3.2-17.6-2.4-5.1-5.8-7.8-12-9.8-1.2-.3-2.4-.5-3.5-.5z"/><path class="st5" d="M133.5 370.6c-3.6-1.3-5.1-4.9-6.4-9.9-.8-2.9-1.1-4.9-1.1-8.6 0-8.8 4.6-12.1 11.8-12.1s12.2 1.9 12.2 10.7c0 13.2-4.3 21-12.2 21"/><path class="st4" d="M137.8 372c-.2 0-.3-.1-.3-.3s.1-.3.3-.3c7.5 0 11.8-7.5 11.8-20.7 0-8.6-4.7-10.4-11.8-10.4-3.8 0-6.5.9-8.4 2.6-2 1.9-3.1 5-3.1 9.1 0 3.7.4 5.7 1.1 8.5 1.8 6.9 3.7 8.8 6.2 9.7.2.1.3.2.2.4-.1.2-.2.3-.4.2-3.6-1.3-5.2-4.8-6.6-10.2-.8-2.9-1.1-4.9-1.1-8.7 0-8.3 4-12.4 12.1-12.4 6.5 0 12.5 1.3 12.5 11 0 13.7-4.5 21.5-12.5 21.5z"/><path class="st4" d="M138 360.3h-.4c-.9-.1-1.3-.8-1.3-.8-.1-.2 0-.4.1-.4.2-.1.4 0 .4.1 0 0 .2.4.8.5.6.1 1 0 1.2-.3.1-.2.1-.5 0-.7-.5-.8-1.3-3.4-1.1-4.3 0-.2.2-.3.4-.2.2 0 .3.2.2.4-.2.6.5 3.1 1 3.8.3.5.3 1 0 1.4-.2.3-.7.5-1.3.5zM131.4 354.4c-.1 0-.2 0-.2-.1-.1-.1-.1-.3 0-.5.4-.5 1-.7 1.6-.6.5 0 .9.3 1.1.7.1.2.1.4-.1.4-.2.1-.4.1-.4-.1-.1-.2-.4-.3-.6-.4-.4 0-.8.1-1.1.4-.1.2-.2.2-.3.2zM144.2 354.4c-.1 0-.2 0-.2-.1-.3-.3-.7-.5-1.1-.4-.3 0-.6.2-.8.4-.1.1-.3.2-.5.1-.1-.1-.2-.3-.1-.5.3-.4.8-.6 1.3-.6.6 0 1.2.2 1.6.6.1.1.1.3 0 .5h-.2zM137.7 364.4c-.8 0-1.5-.3-1.9-.8-.1-.1-.1-.3.1-.4.1-.1.3-.1.4.1.2.3.8.6 1.5.5.7 0 1.4-.3 1.6-.7.1-.2.3-.2.4-.1.2.1.2.3.1.4-.3.6-1.2 1-2.2 1 .1 0 0 0 0 0z"/><path class="st3" d="M127.1 359.7c-1.7-.1-2.7-1.9-2.5-3.3s1.7-1.8 2.8-1.5"/><path class="st4" d="M127.1 360c-.8-.1-1.5-.4-2-1.1-.6-.7-.9-1.7-.8-2.6.1-.6.4-1.2.9-1.5.6-.4 1.5-.5 2.3-.3.2 0 .3.2.2.4 0 .2-.2.3-.4.2-.6-.2-1.3-.1-1.8.2-.3.2-.5.6-.6 1-.1.7.2 1.5.6 2.1.3.3.8.8 1.6.8.2 0 .3.2.3.3 0 .4-.1.5-.3.5z"/><path class="st3" d="M148.9 359.7c1.7.1 2.9-1.5 3-3 .1-1.5-1.4-2.1-2.6-1.9"/><path class="st4" d="M149.1 360h-.2c-.2 0-.3-.2-.3-.3 0-.2.2-.3.3-.3.7.1 1.3-.3 1.6-.6.6-.5 1-1.3 1-2.1 0-.4-.1-.8-.4-1.1-.4-.4-1.1-.6-1.8-.5-.2 0-.3-.1-.4-.3 0-.2.1-.3.3-.4.9-.1 1.8.1 2.3.7.4.4.6 1 .6 1.6-.1 1-.5 2-1.3 2.6-.4.4-1.1.7-1.7.7z"/><path d="M129.6 344.8c1.7 1.8 4.7 4.2 11.6 4.7 3.2.2 5.2-.3 6.3 1.1 1.5 1.7 1.7 4.5 1.5 6-.1.7 2.4-2.3 2.4-2.3-1-1.6 1.1-5.1.5-9.7-.3-1.9-4.3-6.3-10-7.7-7.1-1.8-11 1.7-12.9 3.4-1.5 1.4-3.4.7-4.9 3.9-1.4 2.9.9 8.2.6 9.9-.2.8.6.6 2 2.4.6.8.7-2.3.8-4.1.3-1.9 2.1-7.6 2.1-7.6z" style="fill:#68bb88"/><path class="st4" d="M149.2 357c-.1 0-.2 0-.3-.1-.1-.1-.1-.2-.1-.3.1-1.3 0-4.1-1.4-5.8-.7-.8-1.9-.9-3.8-.9-.7 0-1.5 0-2.3-.1-6.6-.4-9.7-2.6-11.5-4.4-.4 1.5-1.7 5.5-1.8 7 0 .3 0 .7-.1 1-.2 2.6-.3 3.5-.9 3.5-.2 0-.3-.1-.4-.2-.7-.8-1.2-1.2-1.5-1.5-.4-.3-.7-.6-.6-1.2.1-.5-.1-1.7-.4-2.9-.5-2.3-1.1-5.1-.2-7.1 1-2.2 2.3-2.6 3.4-3.1.6-.2 1.1-.4 1.6-.9 1.4-1.3 4.3-4 9.3-4 1.3 0 2.6.2 3.9.5 2.6.6 5.1 2 7.1 3.7 1.7 1.5 2.9 3.1 3.1 4.2.3 2.5-.1 4.6-.4 6.3-.3 1.5-.5 2.6-.1 3.3.1.1.1.3 0 .4-2.1 2.6-2.5 2.6-2.6 2.6zm-11-20.4c-4.7 0-7.5 2.6-8.8 3.8-.6.5-1.2.8-1.8 1-1.1.4-2.1.8-3 2.7-.8 1.7-.2 4.4.2 6.6.3 1.4.5 2.5.4 3.2 0 .2 0 .2.4.5.3.3.8.7 1.5 1.5.2-.5.2-1.9.3-2.7 0-.4 0-.7.1-1 .2-1.8 1.9-7.4 2-7.6 0-.1.1-.2.2-.2s.2 0 .3.1c1.6 1.8 4.5 4.1 11.4 4.6.8.1 1.6.1 2.3.1 1.9 0 3.4 0 4.3 1.1 1.4 1.7 1.7 4.2 1.6 5.7.4-.4 1.1-1.1 1.7-1.8-.4-.9-.2-2.1.1-3.5.3-1.7.7-3.7.4-6.1-.2-1.8-4.2-6-9.7-7.4-1.5-.4-2.7-.6-3.9-.6z"/><path class="st4" d="M130.6 343s.1.1.2.1.1.1.2.2.2.1.3.2l.3.3.3.3c.1.1.2.2.4.3.1.1.2.2.4.3.1.1.3.2.4.3.1.1.3.2.4.3.1.1.2.2.4.2.1.1.2.1.3.2.1.1.2.1.3.2.1 0 .2.1.2.1.1.1.2.1.2.1h-.5c-.1 0-.2 0-.4-.1-.1 0-.3-.1-.4-.1-.1 0-.3-.1-.4-.2-.1-.1-.3-.1-.4-.2-.1-.1-.3-.2-.4-.3-.1-.1-.3-.2-.4-.3-.1-.1-.3-.2-.4-.4-.1-.1-.2-.2-.3-.4-.1-.1-.2-.2-.2-.4-.1-.1-.1-.2-.2-.3 0-.1-.1-.2-.1-.2l-.2-.2z"/><image style="overflow:visible;opacity:.12" width="73" height="73" xlink:href="B057E2ED.png" transform="translate(208 434)"/><path class="st1" d="M242.5 474.5c-4.6 0-8.7-2.9-10.3-7.2-2.1-5.7.8-12 6.5-14.1 1.2-.5 2.5-.7 3.8-.7 4.6 0 8.7 2.9 10.3 7.2 2.1 5.7-.8 12-6.5 14.1-1.2.5-2.5.7-3.8.7z"/><path class="st2" d="M242.5 453c4.4 0 8.3 2.7 9.8 6.8 2 5.4-.8 11.5-6.2 13.5-1.2.4-2.4.7-3.7.7-4.4 0-8.3-2.7-9.8-6.8-2-5.4.8-11.5 6.2-13.5 1.2-.5 2.5-.7 3.7-.7m0-1c-1.3 0-2.7.2-4 .7-6 2.2-9 8.8-6.8 14.8 1.7 4.6 6.1 7.5 10.8 7.5 1.3 0 2.7-.2 4-.7 6-2.2 9-8.8 6.8-14.8-1.7-4.6-6.1-7.5-10.8-7.5z"/><image style="overflow:visible;opacity:.12" width="77" height="77" xlink:href="B057E2EE.png" transform="translate(357.107 3.011)"/><path class="st1" d="M393.6 47.5c-1.5 0-2.9-.3-4.3-.7-3.3-1.2-5.9-3.5-7.4-6.6-1.5-3.1-1.7-6.7-.5-9.9 1.8-5.2 6.8-8.7 12.3-8.7 1.5 0 2.9.3 4.3.7 3.3 1.2 5.9 3.5 7.4 6.6 1.5 3.1 1.7 6.7.5 9.9-1.9 5.2-6.8 8.7-12.3 8.7z"/><path class="st2" d="M393.6 22c1.4 0 2.8.2 4.2.7 3.1 1.1 5.7 3.4 7.1 6.4s1.6 6.4.5 9.6c-1.8 5-6.5 8.3-11.8 8.3-1.4 0-2.8-.2-4.2-.7-3.1-1.1-5.7-3.4-7.1-6.4-1.4-3-1.6-6.4-.5-9.6 1.8-4.9 6.5-8.3 11.8-8.3m0-1c-5.6 0-10.8 3.5-12.7 9-2.5 7 1.2 14.7 8.2 17.2 1.5.5 3 .8 4.5.8 5.6 0 10.8-3.5 12.7-9 2.5-7-1.2-14.7-8.2-17.2-1.5-.5-3-.8-4.5-.8z"/><image style="overflow:visible;opacity:.12" width="81" height="81" xlink:href="B057E2EF.png" transform="translate(41 358)"/><path class="st1" d="M79.5 406.5c-6.2 0-11.8-3.9-14-9.7-1.4-3.7-1.3-7.8.3-11.5s4.6-6.5 8.3-7.9c1.7-.7 3.5-1 5.3-1 6.2 0 11.8 3.9 14 9.7 1.4 3.7 1.3 7.8-.3 11.5s-4.6 6.5-8.3 7.9c-1.7.7-3.5 1-5.3 1z"/><path class="st2" d="M79.5 377c6 0 11.4 3.8 13.6 9.3 1.4 3.6 1.3 7.6-.3 11.1s-4.4 6.2-8.1 7.6c-1.7.6-3.4 1-5.2 1-6 0-11.4-3.8-13.6-9.3-1.4-3.6-1.3-7.6.3-11.1s4.4-6.2 8.1-7.6c1.7-.7 3.4-1 5.2-1m0-1c-1.8 0-3.7.3-5.5 1-8 3.1-12 12-9 20 2.4 6.2 8.2 10 14.5 10 1.8 0 3.7-.3 5.5-1 8-3.1 12-12 9-20-2.4-6.2-8.3-10-14.5-10z"/><path class="st6" d="M77.3 121.7c-.5 0-1.1-.1-1.6-.2-1.6-.4-3-1.5-3.8-2.9l-4.7-8.2c-.8-1.4-1.1-3.1-.6-4.7.4-1.6 1.5-3 2.9-3.8l8.2-4.7c1.4-.8 3.1-1.1 4.7-.6 1.6.4 3 1.5 3.8 2.9l4.7 8.2c.8 1.4 1.1 3.1.6 4.7-.4 1.6-1.5 3-2.9 3.8l-8.2 4.7c-1 .6-2 .8-3.1.8zm3.4-24.4c-.9 0-1.8.2-2.6.7l-8.2 4.7c-2.5 1.4-3.4 4.7-1.9 7.2l4.7 8.2c1.4 2.5 4.7 3.4 7.2 1.9l8.2-4.7c2.5-1.4 3.4-4.7 1.9-7.2l-4.7-8.2c-1-1.7-2.8-2.6-4.6-2.6z"/><path class="st10" d="M444.5 350c-.4 0-.8-.1-1.3-.2-1.2-.3-2.3-1.1-2.9-2.3l-3.7-6.4c-.6-1.1-.8-2.4-.5-3.7.3-1.2 1.1-2.3 2.3-2.9l6.4-3.7c1.1-.6 2.4-.8 3.7-.5 1.2.3 2.3 1.1 2.9 2.3l3.7 6.4c.6 1.1.8 2.4.5 3.7-.3 1.2-1.1 2.3-2.3 2.9l-6.4 3.7c-.7.5-1.5.7-2.4.7zm2.7-19c-.7 0-1.4.2-2 .5l-6.4 3.7c-1.9 1.1-2.6 3.6-1.5 5.6l3.7 6.4c1.1 1.9 3.6 2.6 5.6 1.5l6.4-3.7c1.9-1.1 2.6-3.6 1.5-5.6l-3.7-6.4c-.8-1.2-2.2-2-3.6-2zM453.5 372.3c-.3 0-.6 0-1-.1-.9-.3-1.7-.9-2.2-1.7l-2.8-4.8c-.5-.9-.6-1.8-.4-2.8.3-.9.9-1.7 1.7-2.2l4.8-2.8c.9-.5 1.8-.6 2.8-.4.9.3 1.7.9 2.2 1.7l2.8 4.8c.5.9.6 1.8.4 2.8-.3.9-.9 1.7-1.7 2.2l-4.8 2.8c-.5.3-1.2.5-1.8.5zm2-14.4c-.5 0-1.1.1-1.5.4l-4.8 2.8c-1.5.9-2 2.7-1.1 4.2l2.8 4.8c.9 1.5 2.7 2 4.2 1.1l4.8-2.8c1.5-.9 2-2.7 1.1-4.2l-2.8-4.8c-.6-1-1.6-1.5-2.7-1.5zM53.2 77.3c-.3 0-.5 0-.8-.1-.8-.2-1.4-.7-1.8-1.4l-2.2-3.9c-.4-.7-.5-1.5-.3-2.2.2-.8.7-1.4 1.4-1.8l3.9-2.2c.7-.4 1.5-.5 2.2-.3.8.2 1.4.7 1.8 1.4l2.2 3.9c.4.7.5 1.5.3 2.2-.2.8-.7 1.4-1.4 1.8l-3.9 2.2c-.4.2-.9.4-1.4.4zm1.6-11.6c-.4 0-.8.1-1.2.3l-3.9 2.2c-1.2.7-1.6 2.2-.9 3.4l2.2 3.9c.7 1.2 2.2 1.6 3.4.9l3.9-2.2c1.2-.7 1.6-2.2.9-3.4L57 67c-.5-.8-1.3-1.3-2.2-1.3z"/><path class="st6" d="m207.1 43-7.7-10c-.6-.8-.7-1.7-.3-2.6.4-.9 1.2-1.5 2.1-1.6l12.5-1.6c1-.1 1.9.3 2.5 1s.7 1.7.3 2.6l-4.8 11.6c-.4.9-1.2 1.5-2.1 1.6s-2-.2-2.5-1zm6.6-15.2-12.5 1.6c-.7.1-1.3.6-1.6 1.2-.3.7-.2 1.4.3 2l7.7 10c.4.6 1.1.9 1.9.8.7-.1 1.3-.6 1.6-1.2l4.8-11.6c.3-.7.2-1.4-.3-2s-1.1-.9-1.9-.8zM348 461.5l1.9-5.3c.1-.4.5-.7.9-.8s.8.1 1.1.4l3.6 4.3c.3.3.4.8.2 1.2-.1.4-.5.7-.9.8l-5.5 1c-.4.1-.8-.1-1.1-.4s-.4-.8-.2-1.2zm7.3-1.1-3.6-4.3c-.2-.2-.5-.4-.8-.3-.3.1-.6.3-.7.6l-1.9 5.3c-.1.3-.1.6.2.9.2.2.5.4.8.3l5.5-1c.3-.1.6-.3.7-.6s0-.7-.2-.9z"/><path d="M389.9 26.3c-2.7.8-4.4 3.5-3.8 6.2l1.1 4.7c.3 1.3 1.1 2.4 2.2 3 .9.5 2 .7 3.1.6.4.5.9.9 1.4 1.2 1.2.7 2.5.8 3.8.4 2.7-.8 4.4-3.5 3.8-6.2l-1.1-4.7c-.3-1.3-1.1-2.4-2.2-3-.9-.5-2-.7-3.1-.6-.4-.5-.9-.9-1.4-1.2-1.2-.6-2.5-.7-3.8-.4" style="fill:#ff3e00"/><path class="st1" d="M399.6 37.7c-.1 1.3-1 2.5-2.3 2.8-.8.2-1.6.1-2.3-.3-.1-.1-.2-.1-.3-.2l-.2-.1.2-.1c.5-.3.9-.7 1.3-1.2l.1-.1.1.1c.2.1.4.1.6 0 .4-.1.7-.4.7-.8v-.3l-1.1-4.7c-.1-.2-.2-.4-.4-.5-.2-.1-.5-.1-.7-.1-.4.1-.7.4-.7.8v.3l.4 1.7c.1.3.1.6.1.9-.1 1.3-1 2.5-2.3 2.8-.8.2-1.6.1-2.3-.3-.7-.4-1.2-1-1.3-1.8l-1.1-4.7c-.1-.3-.1-.6-.1-.9.1-1.3 1-2.5 2.3-2.8.8-.2 1.6-.1 2.3.3.1.1.2.1.3.2l.2.1-.2.1c-.5.3-.9.7-1.3 1.2l-.1.1-.1-.1c-.2-.1-.4-.1-.6 0-.4.1-.7.4-.7.8v.3l1.1 4.7c.1.2.2.4.4.5.2.1.5.1.7.1.4-.1.7-.4.7-.8v-.3l-.4-1.8c-.1-.3-.1-.6-.1-.9.1-1.3 1-2.5 2.3-2.8.8-.2 1.6-.1 2.3.3.7.4 1.2 1 1.3 1.8l1.1 4.7c.1.4.1.7.1 1"/><path style="fill:#00d1b2" d="m75 396.4-1.8-8.3 2.8-6.2 7.7 3.5-2.1 4.6 6.2 2.8-5 7.1z"/><path d="M250.5 458.9c-.4-.1-1.3.1-1.9.5-.3-.6-.8-1-1.6-1.2l-.4-.1-.1.4c-.1.6 0 1.3.2 1.9.1.2.3.6.7.8-.2.2-.5.5-1.1.7l-10.6 4v.1c.1.7.8 2.6 2.6 3.6 1.3.8 2.9.8 4.7.2 3.9-1.4 6-4.3 6.1-8.2.5-.2 1.7-.6 1.8-2v-.5l-.4-.2zm-8.3-1.8-1.6.6.6 1.5 1.6-.6-.6-1.5zm.6 1.9-1.6.6.6 1.5 1.6-.6-.6-1.5zm-1.9.7-1.6.6.6 1.5 1.6-.6-.6-1.5zm-1.9.7-1.6.6.6 1.5 1.6-.6-.6-1.5zm-1.2 2.5-1.6.6.6 1.5 1.6-.6-.6-1.5zm1.9-.7-1.6.6.6 1.5 1.6-.6-.6-1.5zm1.9-.7-1.6.6.6 1.5 1.6-.6-.6-1.5zm1.9-.7-1.6.6.6 1.5 1.6-.6-.6-1.5zm1.9-.7-1.6.6.6 1.5 1.6-.6-.6-1.5z" style="fill:#2396ed"/></svg>