<svg version="1.1" id="Layer_1" xmlns="http://www.w3.org/2000/svg" x="0" y="0" viewBox="0 0 500 500" style="enable-background:new 0 0 500 500" xml:space="preserve"><style>.st0{fill:#4fc1ea}.st1{fill:none}.st2{fill:#fff}</style><path class="st0" d="M476.5 450.7H24.2c-.4 0-.6-.8-.6-1.8s.3-1.8.6-1.8h452.3M287.5 56.2c-6 0-11.9 2-16.7 5.6-6.6-7.9-16.5-12.6-26.8-12.6-19.2 0-34.8 15.6-34.8 34.8 0 6.2 5 11.2 11.2 11.2h83.8c6.2 0 11.2-5 11.2-11.2 0-15.3-12.5-27.8-27.9-27.8zm16.7 35.4h-83.8c-4.2 0-7.6-3.4-7.6-7.6 0-17.2 14-31.2 31.2-31.2 10 0 19.1 4.6 25.1 12.6.3.4.7.7 1.2.7.5.1 1-.1 1.4-.4 4.4-3.8 10.1-5.9 15.9-5.9 13.4 0 24.3 10.9 24.3 24.3-.1 4.1-3.5 7.5-7.7 7.5z"/><path class="st1" d="M364 304.2h28.7v37.6H364zM329.1 145.4c5.2 0 9.4-4.2 9.4-9.4s-4.2-9.4-9.4-9.4-9.4 4.2-9.4 9.4c0 5.1 4.2 9.4 9.4 9.4zM264.2 304.2h28.7v37.6h-28.7zM314.2 304.2h28.7v37.6h-28.7zM371.6 184.9v-28.2h-85.2v28.2c0 16.5-10 30.6-24.2 36.8h133.4c-14.1-6.1-24-20.2-24-36.8zm-18.4 29.2c0 .9-.7 1.6-1.6 1.6h-45c-.9 0-1.6-.7-1.6-1.6v-50c0-.9.7-1.6 1.6-1.6h45c.9 0 1.6.7 1.6 1.6v50z"/><path class="st2" d="M248.1 376.1H409v1.7H248.1zM248.1 289H409v1.7H248.1zM388.4 408.2h4.4v5.9h-4.4zM388.4 390.7h4.4v5h-4.4zM380.2 345.1h12.5v11.1h-12.5zM388.4 258.3h4.4v5.9h-4.4zM388.4 240.9h4.4v5h-4.4zM388.4 249.1h4.4v5.9h-4.4zM388.4 267.5h4.4v5h-4.4zM388.4 398.9h4.4v5.9h-4.4zM388.4 417.4h4.4v5h-4.4zM380 417.4h5.1v5H380zM380 408.2h5.1v5.9H380zM380 398.9h5.1v5.9H380zM380 390.7h5.1v5H380zM380 267.5h5.1v5H380zM380 258.3h5.1v5.9H380zM380 249.1h5.1v5.9H380zM380 240.9h5.1v5H380zM371.5 417.4h5.3v5h-5.3zM371.5 408.2h5.3v5.9h-5.3zM371.5 398.9h5.3v5.9h-5.3zM371.5 390.7h5.3v5h-5.3zM371.5 267.5h5.3v5h-5.3zM371.5 258.3h5.3v5.9h-5.3zM371.5 249.1h5.3v5.9h-5.3zM371.5 240.9h5.3v5h-5.3zM364 417.4h4.2v5H364zM364 408.2h4.2v5.9H364zM364 398.9h4.2v5.9H364zM364 390.7h4.2v5H364zM364 267.5h4.2v5H364zM364 258.3h4.2v5.9H364zM364 249.1h4.2v5.9H364zM364 240.9h4.2v5H364zM294.7 143.5v9.9h68.7v-9.9c-4-.4-7.7-2.1-10.6-5-3.3-3.3-5.1-7.6-5.1-12.3V116h-37.4v10.2c.1 9.1-6.8 16.5-15.6 17.3zm34.4-20.2c7 0 12.7 5.7 12.7 12.7 0 7-5.7 12.7-12.7 12.7-7 0-12.7-5.7-12.7-12.7 0-7 5.7-12.7 12.7-12.7zM364 345.1h12.9v11.1H364zM360.3 275.8h36.2v.9h-36.2zM360.3 359.4h36.2v.9h-36.2zM360.3 425.6h36.2v.9h-36.2z"/><path class="st2" d="M409 445.9v-64.8H248.1v64.8h13.2v-56.8c0-.9.7-1.6 1.6-1.6h31.3c.9 0 1.6.7 1.6 1.6v56.8H409zM357 424c0-.9.7-1.6 1.6-1.6h2.1v-33.2c0-.9.7-1.6 1.6-1.6h32c.9 0 1.6.7 1.6 1.6v33.3h2.1c.9 0 1.6.7 1.6 1.6v4.1c0 .9-.7 1.6-1.6 1.6h-39.5c-.9 0-1.6-.7-1.6-1.6V424zm-49.8 0c0-.9.7-1.6 1.6-1.6h2.1v-33.2c0-.9.7-1.6 1.6-1.6h32c.9 0 1.6.7 1.6 1.6v33.3h2.1c.9 0 1.6.7 1.6 1.6v4.1c0 .9-.7 1.6-1.6 1.6h-39.5c-.9 0-1.6-.7-1.6-1.6V424zM248.1 294v78.8H409V294H248.1zm51.8 68c0 .9-.7 1.6-1.6 1.6h-39.5c-.9 0-1.6-.7-1.6-1.6v-4.1c0-.9.7-1.6 1.6-1.6h2.1v-53.6c0-.9.7-1.6 1.6-1.6h32c.9 0 1.6.7 1.6 1.6v53.6h2.1c.9 0 1.6.7 1.6 1.6v4.1zm50 0c0 .9-.7 1.6-1.6 1.6h-39.5c-.9 0-1.6-.7-1.6-1.6v-4.1c0-.9.7-1.6 1.6-1.6h2.1v-53.6c0-.9.7-1.6 1.6-1.6h32c.9 0 1.6.7 1.6 1.6v53.6h2.1c.9 0 1.6.7 1.6 1.6v4.1zm48.2 1.6h-39.5c-.9 0-1.6-.7-1.6-1.6v-4.1c0-.9.7-1.6 1.6-1.6h2.1v-53.6c0-.9.7-1.6 1.6-1.6h32c.9 0 1.6.7 1.6 1.6v53.6h2.1c.9 0 1.6.7 1.6 1.6v4.1c.2.9-.6 1.6-1.5 1.6zM248.1 285.7H409v-60.8H248.1v60.8zM357 274.1c0-.9.7-1.6 1.6-1.6h2.1v-33.2c0-.9.7-1.6 1.6-1.6h32c.9 0 1.6.7 1.6 1.6v33.3h2.1c.9 0 1.6.7 1.6 1.6v4.1c0 .9-.7 1.6-1.6 1.6h-39.5c-.9 0-1.6-.7-1.6-1.6v-4.2zm-49.8 0c0-.9.7-1.6 1.6-1.6h2.1v-33.2c0-.9.7-1.6 1.6-1.6h32c.9 0 1.6.7 1.6 1.6v33.3h2.1c.9 0 1.6.7 1.6 1.6v4.1c0 .9-.7 1.6-1.6 1.6h-39.5c-.9 0-1.6-.7-1.6-1.6v-4.2zm-50 0c0-.9.7-1.6 1.6-1.6h2.1v-33.2c0-.9.7-1.6 1.6-1.6h32c.9 0 1.6.7 1.6 1.6v33.3h2.1c.9 0 1.6.7 1.6 1.6v4.1c0 .9-.7 1.6-1.6 1.6h-39.5c-.9 0-1.6-.7-1.6-1.6v-4.2zM308.2 212.5h41.7v-46.7h-41.7v46.7zm2.5-42.7c0-.9.7-1.6 1.6-1.6h33.5c.9 0 1.6.7 1.6 1.6v38.8c0 .9-.7 1.6-1.6 1.6h-33.5c-.9 0-1.6-.7-1.6-1.6v-38.8z"/><path class="st2" d="M314 171.4h30.2v35.5H314zM338.5 408.2h4.4v5.9h-4.4zM338.5 390.7h4.4v5h-4.4zM330.4 345.1h12.5v11.1h-12.5zM338.5 258.3h4.4v5.9h-4.4zM338.5 240.9h4.4v5h-4.4zM338.5 249.1h4.4v5.9h-4.4zM338.5 267.5h4.4v5h-4.4zM338.5 398.9h4.4v5.9h-4.4zM338.5 417.4h4.4v5h-4.4zM330.2 417.4h5.1v5h-5.1zM330.2 408.2h5.1v5.9h-5.1zM330.2 398.9h5.1v5.9h-5.1zM330.2 390.7h5.1v5h-5.1zM330.2 267.5h5.1v5h-5.1zM330.2 258.3h5.1v5.9h-5.1zM330.2 249.1h5.1v5.9h-5.1zM330.2 240.9h5.1v5h-5.1zM321.6 417.4h5.3v5h-5.3zM321.6 408.2h5.3v5.9h-5.3zM321.6 398.9h5.3v5.9h-5.3zM321.6 390.7h5.3v5h-5.3zM321.6 267.5h5.3v5h-5.3zM321.6 258.3h5.3v5.9h-5.3zM321.6 249.1h5.3v5.9h-5.3zM321.6 240.9h5.3v5h-5.3zM314.2 417.4h4.2v5h-4.2zM314.2 408.2h4.2v5.9h-4.2zM314.2 398.9h4.2v5.9h-4.2zM314.2 390.7h4.2v5h-4.2zM314.2 267.5h4.2v5h-4.2zM314.2 258.3h4.2v5.9h-4.2zM314.2 249.1h4.2v5.9h-4.2zM314.2 240.9h4.2v5h-4.2zM314.2 345.1h12.9v11.1h-12.9zM310.4 275.8h36.2v.9h-36.2zM310.4 359.4h36.2v.9h-36.2zM310.4 425.6h36.2v.9h-36.2zM280.4 345.1h12.5v11.1h-12.5zM288.6 258.3h4.4v5.9h-4.4zM288.6 240.9h4.4v5h-4.4zM288.6 249.1h4.4v5.9h-4.4zM288.6 267.5h4.4v5h-4.4zM288.3 395.4h-19.5v50.5h19.5v-50.5zm-1.4 29.9c0 .9-.7 1.6-1.6 1.6-.9 0-1.6-.7-1.6-1.6v-7c0-.9.7-1.6 1.6-1.6.9 0 1.6.7 1.6 1.6v7zM280.2 267.5h5.1v5h-5.1zM280.2 258.3h5.1v5.9h-5.1zM280.2 249.1h5.1v5.9h-5.1zM280.2 240.9h5.1v5h-5.1zM271.7 267.5h5.3v5h-5.3zM271.7 258.3h5.3v5.9h-5.3zM271.7 249.1h5.3v5.9h-5.3zM271.7 240.9h5.3v5h-5.3zM264.2 267.5h4.2v5h-4.2zM264.2 258.3h4.2v5.9h-4.2zM264.2 249.1h4.2v5.9h-4.2zM264.2 240.9h4.2v5h-4.2z"/><path class="st2" d="M292.6 445.9v-55.2h-28.1v55.2h1v-52.1c0-.9.7-1.6 1.6-1.6H290c.9 0 1.6.7 1.6 1.6v52.1h1zM264.2 345.1h12.9v11.1h-12.9zM260.5 275.8h36.2v.9h-36.2zM260.5 359.4h36.2v.9h-36.2z"/><path class="st0" d="M413.3 223.3c0-.9-.7-1.6-1.6-1.6h-1c-20-.5-35.7-16.7-35.7-36.7v-29.9c0-.9-.7-1.6-1.6-1.6h-6.6V142c0-.9-.7-1.6-1.6-1.6-3.7 0-7.3-1.5-9.9-4.1-2.7-2.7-4.1-6.2-4.1-9.9v-11.8c0-.9-.7-1.6-1.6-1.6H309c-.9 0-1.6.7-1.6 1.6v11.8c0 7.7-6.3 14-14.1 14-.9 0-1.6.7-1.6 1.6v11.5h-6.6c-.9 0-1.6.7-1.6 1.6V185c0 20.3-16.5 36.8-36.7 36.8-.9 0-1.6.7-1.6 1.6v224.2c0 .9.7 1.6 1.6 1.6h163.9c.9 0 1.6-.7 1.6-1.6V224.9c.5-.3 1-.9 1-1.6zM268.8 395.4h19.5v50.5h-19.5v-50.5zm21.2-3.2h-22.8c-.9 0-1.6.7-1.6 1.6v52.1h-1v-55.2h28.1v55.2h-1v-52.1c-.1-.9-.8-1.6-1.7-1.6zm4.2-4.8h-31.3c-.9 0-1.6.7-1.6 1.6v56.8h-13.2V381H409v64.8H295.9V389c0-.8-.7-1.6-1.7-1.6zM409 285.7H248.1v-60.8H409v60.8zm0 5H248.1V289H409v1.7zm0 87.1H248.1v-1.7H409v1.7zm-160.9-5V294H409v78.8H248.1zm62.3-256.7h37.4v10.2c0 4.6 1.8 9 5.1 12.3 2.9 2.9 6.6 4.6 10.6 5v9.9h-68.7v-9.9c8.8-.8 15.7-8.2 15.7-17.2v-10.3zm-23.9 68.8v-28.2h85.2v28.2c0 16.6 9.8 30.7 24 36.8H262.3c14.2-6.2 24.2-20.3 24.2-36.8z"/><path class="st0" d="M329.1 148.6c7 0 12.7-5.7 12.7-12.7 0-7-5.7-12.7-12.7-12.7-7 0-12.7 5.7-12.7 12.7 0 7 5.7 12.7 12.7 12.7zm0-22.1c5.2 0 9.4 4.2 9.4 9.4s-4.2 9.4-9.4 9.4-9.4-4.2-9.4-9.4c0-5.1 4.2-9.4 9.4-9.4zM351.6 162.5h-45c-.9 0-1.6.7-1.6 1.6v50c0 .9.7 1.6 1.6 1.6h45c.9 0 1.6-.7 1.6-1.6v-50c0-.9-.7-1.6-1.6-1.6zm-1.7 50h-41.7v-46.7h41.7v46.7z"/><path class="st0" d="M312.3 210.1h33.5c.9 0 1.6-.7 1.6-1.6v-38.8c0-.9-.7-1.6-1.6-1.6h-33.5c-.9 0-1.6.7-1.6 1.6v38.8c0 .9.7 1.6 1.6 1.6zm1.7-38.7h30.2v35.5H314v-35.5zM308.8 429.8h39.5c.9 0 1.6-.7 1.6-1.6V424c0-.9-.7-1.6-1.6-1.6h-2.1v-33.3c0-.9-.7-1.6-1.6-1.6h-32c-.9 0-1.6.7-1.6 1.6V422.3h-2.1c-.9 0-1.6.7-1.6 1.6v4.1c-.1 1 .6 1.8 1.5 1.8zm34.1-34.1h-4.4v-5h4.4v5zm-12.7 26.6v-5h5.1v5h-5.1zm-8.6 0v-5h5.3v5h-5.3zm13.7-17.4h-5.1V399h5.1v5.9zm-5.1 9.2v-5.9h5.1v5.9h-5.1zm8.3-5.9h4.4v5.9h-4.4v-5.9zm0-9.3h4.4v5.9h-4.4v-5.9zm-11.6 0v5.9h-5.3v-5.9h5.3zm-8.5 6h-4.2V399h4.2v5.9zm3.2 3.3h5.3v5.9h-5.3v-5.9zm13.7-12.5h-5.1v-5h5.1v5zm-8.4 0h-5.3v-5h5.3v5zm-12.7 12.5h4.2v5.9h-4.2v-5.9zm24.3 14.1v-5h4.4v5h-4.4zm-20.1-31.6v5h-4.2v-5h4.2zm-4.2 26.7h4.2v5h-4.2v-5zm-3.8 8.2h36.2v.9h-36.2v-.9zM358.7 429.8h39.5c.9 0 1.6-.7 1.6-1.6V424c0-.9-.7-1.6-1.6-1.6H396v-33.3c0-.9-.7-1.6-1.6-1.6h-32c-.9 0-1.6.7-1.6 1.6V422.3h-2.1c-.9 0-1.6.7-1.6 1.6v4.1c-.1 1 .7 1.8 1.6 1.8zm21.3-7.5v-5h5.1v5H380zm-8.5 0v-5h5.3v5h-5.3zm21.2-17.4h-4.4V399h4.4v5.9zm0 9.2h-4.4v-5.9h4.4v5.9zm-7.6-9.2H380V399h5.1v5.9zm-5.1 9.2v-5.9h5.1v5.9H380zm-3.2-15.2v5.9h-5.3v-5.9h5.3zm-8.6 6H364V399h4.2v5.9zm0 3.3v5.9H364v-5.9h4.2zm3.3 0h5.3v5.9h-5.3v-5.9zm21.2-12.5h-4.4v-5h4.4v5zm-7.6 0H380v-5h5.1v5zm-8.3 0h-5.3v-5h5.3v5zm11.6 26.6v-5h4.4v5h-4.4zm-20.2-31.6v5H364v-5h4.2zm0 26.7v5H364v-5h4.2zm-7.9 8.2h36.2v.9h-36.2v-.9zM258.8 279.9h39.5c.9 0 1.6-.7 1.6-1.6v-4.1c0-.9-.7-1.6-1.6-1.6h-2.1v-33.3c0-.9-.7-1.6-1.6-1.6h-32c-.9 0-1.6.7-1.6 1.6V272.5h-2.1c-.9 0-1.6.7-1.6 1.6v4.1c-.1 1 .6 1.7 1.5 1.7zm34.1-34.1h-4.4v-5h4.4v5zm-12.7 26.7v-5h5.1v5h-5.1zm-8.5 0v-5h5.3v5h-5.3zm13.6-17.4h-5.1v-5.9h5.1v5.9zm-5.1 9.2v-5.9h5.1v5.9h-5.1zm8.4-6h4.4v5.9h-4.4v-5.9zm0-9.2h4.4v5.9h-4.4v-5.9zm-11.7 0v5.9h-5.3v-5.9h5.3zm-8.5 6h-4.2v-5.9h4.2v5.9zm3.3 3.2h5.3v5.9h-5.3v-5.9zm13.6-12.5h-5.1v-5h5.1v5zm-8.4 0h-5.3v-5h5.3v5zm-12.7 12.5h4.2v5.9h-4.2v-5.9zm24.4 14.2v-5h4.4v5h-4.4zm-20.2-31.6v5h-4.2v-5h4.2zm-4.2 26.6h4.2v5h-4.2v-5zm-3.7 8.3h36.2v.9h-36.2v-.9zM308.8 279.9h39.5c.9 0 1.6-.7 1.6-1.6v-4.1c0-.9-.7-1.6-1.6-1.6h-2.1v-33.3c0-.9-.7-1.6-1.6-1.6h-32c-.9 0-1.6.7-1.6 1.6V272.5h-2.1c-.9 0-1.6.7-1.6 1.6v4.1c-.1 1 .6 1.7 1.5 1.7zm34.1-34.1h-4.4v-5h4.4v5zm-12.7 26.7v-5h5.1v5h-5.1zm-8.6 0v-5h5.3v5h-5.3zm13.7-17.4h-5.1v-5.9h5.1v5.9zm-5.1 9.2v-5.9h5.1v5.9h-5.1zm8.3-6h4.4v5.9h-4.4v-5.9zm0-9.2h4.4v5.9h-4.4v-5.9zm-11.6 0v5.9h-5.3v-5.9h5.3zm-8.5 6h-4.2v-5.9h4.2v5.9zm3.2 3.2h5.3v5.9h-5.3v-5.9zm13.7-12.5h-5.1v-5h5.1v5zm-8.4 0h-5.3v-5h5.3v5zm-12.7 12.5h4.2v5.9h-4.2v-5.9zm24.3 14.2v-5h4.4v5h-4.4zm-20.1-31.6v5h-4.2v-5h4.2zm-4.2 26.6h4.2v5h-4.2v-5zm-3.8 8.3h36.2v.9h-36.2v-.9zM358.7 279.9h39.5c.9 0 1.6-.7 1.6-1.6v-4.1c0-.9-.7-1.6-1.6-1.6H396v-33.3c0-.9-.7-1.6-1.6-1.6h-32c-.9 0-1.6.7-1.6 1.6V272.5h-2.1c-.9 0-1.6.7-1.6 1.6v4.1c-.1 1 .7 1.7 1.6 1.7zm21.3-7.4v-5h5.1v5H380zm-8.5 0v-5h5.3v5h-5.3zm21.2-17.4h-4.4v-5.9h4.4v5.9zm0 9.2h-4.4v-5.9h4.4v5.9zm-7.6-9.2H380v-5.9h5.1v5.9zm-5.1 9.2v-5.9h5.1v5.9H380zm-3.2-15.2v5.9h-5.3v-5.9h5.3zm-8.6 6H364v-5.9h4.2v5.9zm0 3.2v5.9H364v-5.9h4.2zm3.3 0h5.3v5.9h-5.3v-5.9zm21.2-12.5h-4.4v-5h4.4v5zm-7.6 0H380v-5h5.1v5zm-8.3 0h-5.3v-5h5.3v5zm11.6 26.7v-5h4.4v5h-4.4zm-20.2-31.6v5H364v-5h4.2zm0 26.6v5H364v-5h4.2zm-7.9 8.3h36.2v.9h-36.2v-.9zM298.3 356.2h-2.1v-53.6c0-.9-.7-1.6-1.6-1.6h-32c-.9 0-1.6.7-1.6 1.6v53.6h-2.1c-.9 0-1.6.7-1.6 1.6v4.1c0 .9.7 1.6 1.6 1.6h39.5c.9 0 1.6-.7 1.6-1.6v-4.1c-.1-.9-.8-1.6-1.7-1.6zm-1.6 4.1h-36.2v-.9h36.2v.9zm-3.8-18.5h-28.7v-37.6h28.7v37.6zm-12.5 14.4v-11.1h12.5v11.1h-12.5zm-16.2-11.1h12.9v11.1h-12.9v-11.1zM348.3 356.2h-2.1v-53.6c0-.9-.7-1.6-1.6-1.6h-32c-.9 0-1.6.7-1.6 1.6v53.6h-2.1c-.9 0-1.6.7-1.6 1.6v4.1c0 .9.7 1.6 1.6 1.6h39.5c.9 0 1.6-.7 1.6-1.6v-4.1c-.1-.9-.8-1.6-1.7-1.6zm-1.7 4.1h-36.2v-.9h36.2v.9zm-3.7-18.5h-28.7v-37.6h28.7v37.6zm-12.5 14.4v-11.1h12.5v11.1h-12.5zm-16.2-11.1h12.9v11.1h-12.9v-11.1zM398.1 356.2H396v-53.6c0-.9-.7-1.6-1.6-1.6h-32c-.9 0-1.6.7-1.6 1.6v53.6h-2.1c-.9 0-1.6.7-1.6 1.6v4.1c0 .9.7 1.6 1.6 1.6h39.5c.9 0 1.6-.7 1.6-1.6v-4.1c0-.9-.8-1.6-1.7-1.6zm-1.6 4.1h-36.2v-.9h36.2v.9zm-16.3-4.1v-11.1h12.5v11.1h-12.5zm12.5-14.4H364v-37.6h28.7v37.6zm-28.7 3.3h12.9v11.1H364v-11.1z"/><path d="M285.3 416.7c-.9 0-1.6.7-1.6 1.6v7c0 .9.7 1.6 1.6 1.6.9 0 1.6-.7 1.6-1.6v-7c0-.9-.7-1.6-1.6-1.6z" style="fill:#4195ce"/><path class="st1" d="M185.9 166.8v-42.2h-36v42.2c0 18.5-11.4 34.4-27.6 41h91.1c-16.1-6.7-27.5-22.5-27.5-41zm-18-35.4c6.1 0 11 5 11 11 0 6.1-5 11-11 11-6.1 0-11-5-11-11s4.9-11 11-11zm15.3 69.9c0 .9-.7 1.6-1.6 1.6h-27.3c-.9 0-1.6-.7-1.6-1.6v-25.1c0-4.1 1.6-7.9 4.5-10.8 2.9-2.9 6.7-4.5 10.8-4.5 8.4 0 15.3 6.9 15.3 15.3v25.1z"/><path class="st2" d="M157.1 302.2h9.7v10.2h-9.7zM114.4 262.4h9.7v8.8h-9.7zM114.4 250.3h9.7v8.8h-9.7zM114.1 302.2h9.7v10.2h-9.7zM114.1 315.7h9.7v8.8h-9.7zM146.5 395.4H127v50.5h19.5v-50.5zm-1.4 29.9c0 .9-.7 1.6-1.6 1.6-.9 0-1.6-.7-1.6-1.6v-7c0-.9.7-1.6 1.6-1.6.9 0 1.6.7 1.6 1.6v7z"/><path class="st2" d="M150.8 445.9v-55.2h-28.1v55.2h1v-52.1c0-.9.7-1.6 1.6-1.6h22.8c.9 0 1.6.7 1.6 1.6v52.1h1.1zM127.1 315.7h9.7v8.8h-9.7zM127.1 302.2h9.7v10.2h-9.7zM127.4 236.9h9.7v10.2h-9.7zM127.1 327.8h9.7v8.8h-9.7zM127.1 339.8h9.7V350h-9.7zM127.4 250.3h9.7v8.8h-9.7zM127.4 262.4h9.7v8.8h-9.7zM157.1 327.8h9.7v8.8h-9.7zM127.4 274.4h9.7v10.2h-9.7zM157.1 315.7h9.7v8.8h-9.7zM157.1 339.8h9.7V350h-9.7zM157.3 236.9h9.7v10.2h-9.7zM157.3 262.4h9.7v8.8h-9.7zM157.3 250.3h9.7v8.8h-9.7zM157.3 274.4h9.7v10.2h-9.7zM170.1 315.7h9.7v8.8h-9.7zM169.5 390.7h10.2v9.7h-10.2zM169.5 403.7h10.2v9.7h-10.2zM170.1 302.2h9.7v10.2h-9.7zM170.1 327.8h9.7v8.8h-9.7zM170.3 236.9h9.7v10.2h-9.7zM170.1 339.8h9.7V350h-9.7zM156 174.5h23.8c-.8-5.9-5.8-10.4-11.9-10.4-3.2 0-6.2 1.3-8.5 3.5-1.9 1.9-3 4.3-3.4 6.9zM155.9 177.8H180v21.8h-24.1zM170.3 250.3h9.7v8.8h-9.7zM170.3 274.4h9.7v10.2h-9.7zM170.3 262.4h9.7v8.8h-9.7zM150 121.4h35.8c-.8-9.2-8.5-16.4-17.9-16.4-9.4 0-17.1 7.2-17.9 16.4zM183 390.7h8.8v9.7H183zM199.5 302.2h9.7v10.2h-9.7zM183 403.7h8.8v9.7H183zM195.1 390.7h8.8v9.7h-8.8zM195.1 403.7h8.8v9.7h-8.8zM199.5 315.7h9.7v8.8h-9.7zM199.5 339.8h9.7V350h-9.7zM199.5 327.8h9.7v8.8h-9.7zM199.8 236.9h9.7v10.2h-9.7zM199.8 250.3h9.7v8.8h-9.7zM199.8 262.4h9.7v8.8h-9.7zM199.8 274.4h9.7v10.2h-9.7zM207.1 390.7h10.2v9.7h-10.2zM207.1 403.7h10.2v9.7h-10.2zM212.5 302.2h9.7v10.2h-9.7zM212.5 315.7h9.7v8.8h-9.7zM212.5 327.8h9.7v8.8h-9.7zM212.5 339.8h9.7V350h-9.7zM212.8 236.9h9.7v10.2h-9.7zM212.8 250.3h9.7v8.8h-9.7zM212.8 262.4h9.7v8.8h-9.7zM212.8 274.4h9.7v10.2h-9.7zM107.3 211h121.2v3.8H107.3z"/><path class="st2" d="M107.3 218.1v150.6h121.2V218.1H107.3zm32.8 133.6c0 .9-.7 1.6-1.6 1.6h-26c-.9 0-1.6-.7-1.6-1.6v-51.1c0-.9.7-1.6 1.6-1.6h26c.9 0 1.6.7 1.6 1.6v51.1zm.2-65.4c0 .9-.7 1.6-1.6 1.6h-26c-.9 0-1.6-.7-1.6-1.6v-51.1c0-.9.7-1.6 1.6-1.6h26c.9 0 1.6.7 1.6 1.6v51.1zm42.8 65.4c0 .9-.7 1.6-1.6 1.6h-26c-.9 0-1.6-.7-1.6-1.6v-51.1c0-.9.7-1.6 1.6-1.6h26c.9 0 1.6.7 1.6 1.6v51.1zm.2-65.4c0 .9-.7 1.6-1.6 1.6h-26c-.9 0-1.6-.7-1.6-1.6v-51.1c0-.9.7-1.6 1.6-1.6h26c.9 0 1.6.7 1.6 1.6v51.1zm42.2 65.4c0 .9-.7 1.6-1.6 1.6h-26c-.9 0-1.6-.7-1.6-1.6v-51.1c0-.9.7-1.6 1.6-1.6h26c.9 0 1.6.7 1.6 1.6v51.1zm.3-65.4c0 .9-.7 1.6-1.6 1.6h-26c-.9 0-1.6-.7-1.6-1.6v-51.1c0-.9.7-1.6 1.6-1.6h26c.9 0 1.6.7 1.6 1.6v51.1zM107.3 372h121.2v4.4H107.3zM107.3 379.6v66.3h12.1v-56.8c0-.9.7-1.6 1.6-1.6h31.3c.9 0 1.6.7 1.6 1.6v56.8h74.5v-66.3H107.3zM220.6 415c0 .9-.7 1.6-1.6 1.6h-51.1c-.9 0-1.6-.7-1.6-1.6v-26c0-.9.7-1.6 1.6-1.6H219c.9 0 1.6.7 1.6 1.6v26z"/><path class="st2" d="M114.1 327.8h9.7v8.8h-9.7zM114.4 236.9h9.7v10.2h-9.7zM114.4 274.4h9.7v10.2h-9.7zM114.1 339.8h9.7V350h-9.7zM160.1 142.5c0 4.3 3.5 7.8 7.8 7.8s7.8-3.5 7.8-7.8-3.5-7.8-7.8-7.8-7.8 3.5-7.8 7.8z"/><path class="st0" d="M230.1 207.7c-22.6 0-41-18.4-41-41v-42.2h7.2c.9 0 1.6-.7 1.6-1.6 0-.9-.7-1.6-1.6-1.6H189c-.8-11-10-19.6-21.2-19.6s-20.3 8.7-21.2 19.6h-7.3c-.9 0-1.6.7-1.6 1.6 0 .9.7 1.6 1.6 1.6h7.2v42.2c0 22.6-18.4 41-41 41-.9 0-1.6.7-1.6 1.6v238.2c0 .9.7 1.6 1.6 1.6H230c.9 0 1.6-.7 1.6-1.6V209.3c.2-.8-.6-1.6-1.5-1.6zM127 395.4h19.5v50.5H127v-50.5zm21.1-3.2h-22.8c-.9 0-1.6.7-1.6 1.6v52.1h-1v-55.2h28.1v55.2h-1v-52.1c0-.9-.8-1.6-1.7-1.6zm5.9 53.7v-56.8c0-.9-.7-1.6-1.6-1.6h-31.3c-.9 0-1.6.7-1.6 1.6v56.8h-12.1v-66.3h121.2v66.3H154zm74.5-231.1H107.3V211h121.2v3.8zm0 157.2v4.4H107.3V372h121.2zm-121.2-3.3V218.1h121.2v150.6H107.3zm78.5-247.3H150c.8-9.2 8.5-16.4 17.9-16.4 9.4 0 17.1 7.2 17.9 16.4zm-35.9 45.4v-42.2h36v42.2c0 18.5 11.4 34.4 27.6 41h-91.1c16.1-6.7 27.5-22.5 27.5-41z"/><path class="st0" d="M167.9 153.5c6.1 0 11-5 11-11 0-6.1-5-11-11-11-6.1 0-11 5-11 11s4.9 11 11 11zm7.8-11c0 4.3-3.5 7.8-7.8 7.8s-7.8-3.5-7.8-7.8 3.5-7.8 7.8-7.8 7.8 3.5 7.8 7.8zM167.9 160.8c-4.1 0-7.9 1.6-10.8 4.5-2.9 2.9-4.5 6.7-4.5 10.8v25.1c0 .9.7 1.6 1.6 1.6h27.3c.9 0 1.6-.7 1.6-1.6v-25.1c.1-8.4-6.8-15.3-15.2-15.3zm11.9 13.7H156c.4-2.6 1.5-5 3.4-6.9 2.3-2.3 5.3-3.5 8.5-3.5 6.1 0 11.1 4.5 11.9 10.4zm-23.9 3.3H180v21.8h-24.1v-21.8zM138.4 299h-26c-.9 0-1.6.7-1.6 1.6v51.1c0 .9.7 1.6 1.6 1.6h26c.9 0 1.6-.7 1.6-1.6v-51.1c.1-.9-.7-1.6-1.6-1.6zm-1.6 3.2v10.2h-9.7v-10.2h9.7zm-13 25.6v8.8h-9.7v-8.8h9.7zm3.3 0h9.7v8.8h-9.7v-8.8zm0-12.1h9.7v8.8h-9.7v-8.8zm-3.3 0v8.8h-9.7v-8.8h9.7zm3.3 24.1h9.7V350h-9.7v-10.2zm-3.3-37.6v10.2h-9.7v-10.2h9.7zm-9.7 37.6h9.7V350h-9.7v-10.2zM181.4 299h-26c-.9 0-1.6.7-1.6 1.6v51.1c0 .9.7 1.6 1.6 1.6h26c.9 0 1.6-.7 1.6-1.6v-51.1c.1-.9-.7-1.6-1.6-1.6zm-24.3 40.8h9.7V350h-9.7v-10.2zm9.7-3.2h-9.7v-8.8h9.7v8.8zm0-12.1h-9.7v-8.8h9.7v8.8zm0-12.1h-9.7v-10.2h9.7v10.2zm3.3 15.4h9.7v8.8h-9.7v-8.8zm0-3.3v-8.8h9.7v8.8h-9.7zm9.7-12.1h-9.7v-10.2h9.7v10.2zm-9.7 37.6v-10.2h9.7V350h-9.7zM223.9 299h-26c-.9 0-1.6.7-1.6 1.6v51.1c0 .9.7 1.6 1.6 1.6h26c.9 0 1.6-.7 1.6-1.6v-51.1c0-.9-.7-1.6-1.6-1.6zm-1.6 3.2v10.2h-9.7v-10.2h9.7zm-13 25.6v8.8h-9.7v-8.8h9.7zm3.2 0h9.7v8.8h-9.7v-8.8zm0-12.1h9.7v8.8h-9.7v-8.8zm-3.2 0v8.8h-9.7v-8.8h9.7zm3.2 24.1h9.7V350h-9.7v-10.2zm-3.2-37.6v10.2h-9.7v-10.2h9.7zm-9.8 37.6h9.7V350h-9.7v-10.2zM138.7 233.6h-26c-.9 0-1.6.7-1.6 1.6v51.1c0 .9.7 1.6 1.6 1.6h26c.9 0 1.6-.7 1.6-1.6v-51.1c0-.9-.7-1.6-1.6-1.6zm-24.3 51v-10.2h9.7v10.2h-9.7zm13-25.5v-8.8h9.7v8.8h-9.7zm-3.3 0h-9.7v-8.8h9.7v8.8zm0 3.3v8.8h-9.7v-8.8h9.7zm3.3 8.8v-8.8h9.7v8.8h-9.7zm9.7-24.2h-9.7v-10.2h9.7V247zm-13-10.1V247h-9.7v-10.2h9.7zm3.3 47.7v-10.2h9.7v10.2h-9.7zM181.7 233.6h-26c-.9 0-1.6.7-1.6 1.6v51.1c0 .9.7 1.6 1.6 1.6h26c.9 0 1.6-.7 1.6-1.6v-51.1c0-.9-.7-1.6-1.6-1.6zM180 247h-9.7v-10.2h9.7V247zm-12.9 15.4v8.8h-9.7v-8.8h9.7zm3.2 0h9.7v8.8h-9.7v-8.8zm0-12.1h9.7v8.8h-9.7v-8.8zm-3.2 0v8.8h-9.7v-8.8h9.7zm3.2 24.1h9.7v10.2h-9.7v-10.2zm-3.2-37.5V247h-9.7v-10.2h9.7zm-9.8 37.5h9.7v10.2h-9.7v-10.2zM224.1 233.6h-26c-.9 0-1.6.7-1.6 1.6v51.1c0 .9.7 1.6 1.6 1.6h26c.9 0 1.6-.7 1.6-1.6v-51.1c.1-.9-.7-1.6-1.6-1.6zm-24.3 51v-10.2h9.7v10.2h-9.7zm13-25.5v-8.8h9.7v8.8h-9.7zm-3.3 0h-9.7v-8.8h9.7v8.8zm0 3.3v8.8h-9.7v-8.8h9.7zm3.3 8.8v-8.8h9.7v8.8h-9.7zm9.7-24.2h-9.7v-10.2h9.7V247zm-13-10.1V247h-9.7v-10.2h9.7zm3.3 47.7v-10.2h9.7v10.2h-9.7zM219 387.4h-51.1c-.9 0-1.6.7-1.6 1.6v26c0 .9.7 1.6 1.6 1.6H219c.9 0 1.6-.7 1.6-1.6v-26c0-.8-.7-1.6-1.6-1.6zm-1.7 13h-10.2v-9.7h10.2v9.7zm-47.8 3.3h10.2v9.7h-10.2v-9.7zm34.4-3.3h-8.8v-9.7h8.8v9.7zm-12.1 0H183v-9.7h8.8v9.7zm-12.1 0h-10.2v-9.7h10.2v9.7zm3.3 3.3h8.8v9.7H183v-9.7zm12.1 0h8.8v9.7h-8.8v-9.7zm12 9.7v-9.7h10.2v9.7h-10.2zM143.4 416.7c-.9 0-1.6.7-1.6 1.6v7c0 .9.7 1.6 1.6 1.6.9 0 1.6-.7 1.6-1.6v-7c.1-.9-.7-1.6-1.6-1.6z"/><path class="st2" d="m237.7 316.4-3.4 3.4h15.6l-3.5-3.4zM234.2 323.1c.8 3.7 4 6.4 7.9 6.4 3.9 0 7.2-2.8 7.9-6.4h-15.8zM238.7 312.9h6.8v.3h-6.8zM212.8 442.9h-4.7v3h19.3v-3h-4.7zM214.5 405.2h6.6v34.4h-6.6z"/><path class="st0" d="m255 320.3-6.2-6.2v-2.9c0-.9-.7-1.6-1.6-1.6h-3.4v-11.7c0-3.7-1.4-7.2-4-9.8-2.6-2.6-6.1-4-9.8-4-7.6 0-13.8 6.2-13.8 13.8v9H213c-.9 0-1.6.7-1.6 1.6v2.9c0 .9.7 1.6 1.6 1.6h3.2v88.8h-3.3c-.9 0-1.6.7-1.6 1.6v36h-4.8c-.9 0-1.6.7-1.6 1.6v6.3c0 .9.7 1.6 1.6 1.6h22.6c.9 0 1.6-.7 1.6-1.6V441c0-.9-.7-1.6-1.6-1.6h-4.8v-36c0-.9-.7-1.6-1.6-1.6h-3.3V313h3.2c.9 0 1.6-.7 1.6-1.6v-2.9c0-.9-.7-1.6-1.6-1.6h-3.2v-9c0-5.8 4.7-10.5 10.5-10.5 2.8 0 5.5 1.1 7.4 3.1 2 2 3.1 4.6 3.1 7.5v11.7H237c-.9 0-1.6.7-1.6 1.6v2.9l-6.2 6.2c-.5.5-.6 1.2-.4 1.8.3.6.8 1 1.5 1h.5c.8 5.5 5.5 9.7 11.2 9.7 5.7 0 10.4-4.2 11.2-9.7h.5c.7 0 1.3-.4 1.5-1 .4-.7.2-1.4-.2-1.9zm-27.6 125.6H208v-3H227.4v3zm-6.3-40.7v34.4h-6.6v-34.4h6.6zm21-75.7c-3.9 0-7.2-2.8-7.9-6.4H250c-.8 3.7-4 6.4-7.9 6.4zm-7.8-9.7 3.4-3.4h8.7l3.4 3.4h-15.5zm11.2-6.9v.3h-6.8v-.3h6.8z"/></svg>