<svg version="1.1" id="Calque_1" xmlns="http://www.w3.org/2000/svg" x="0" y="0" viewBox="0 0 798 454" style="enable-background:new 0 0 798 454" xml:space="preserve"><style>.st0{opacity:.2}</style><g class="st0"><path d="M42.8 188c-8.6 0-15.5-6.9-15.5-15.5V136c0-8.6 6.9-15.5 15.5-15.5s15.5 6.9 15.5 15.5v36.5c0 8.6-7 15.5-15.5 15.5zM131.8 188c-8.6 0-15.5-6.9-15.5-15.5v-79c0-8.6 6.9-15.5 15.5-15.5s15.5 6.9 15.5 15.5v79c0 8.6-7 15.5-15.5 15.5zM309.8 188c-8.6 0-15.5-6.9-15.5-15.5v-79c0-8.6 6.9-15.5 15.5-15.5s15.5 6.9 15.5 15.5v79c0 8.6-7 15.5-15.5 15.5zM220.8 221c-8.6 0-15.5-6.9-15.5-15.5v-173c0-8.6 6.9-15.5 15.5-15.5s15.5 6.9 15.5 15.5v173c0 8.6-7 15.5-15.5 15.5zM398.2 188c-8.6 0-15.5-6.9-15.5-15.5V136c0-8.6 6.9-15.5 15.5-15.5s15.5 6.9 15.5 15.5v36.5c0 8.6-6.9 15.5-15.5 15.5zM755.2 188c-8.6 0-15.5-6.9-15.5-15.5V136c0-8.6 6.9-15.5 15.5-15.5s15.5 6.9 15.5 15.5v36.5c0 8.6-6.9 15.5-15.5 15.5zM487.2 188c-8.6 0-15.5-6.9-15.5-15.5v-79c0-8.6 6.9-15.5 15.5-15.5s15.5 6.9 15.5 15.5v79c0 8.6-6.9 15.5-15.5 15.5zM665.2 188c-8.6 0-15.5-6.9-15.5-15.5v-79c0-8.6 6.9-15.5 15.5-15.5s15.5 6.9 15.5 15.5v79c0 8.6-6.9 15.5-15.5 15.5zM576.2 221c-8.6 0-15.5-6.9-15.5-15.5v-173c0-8.6 6.9-15.5 15.5-15.5s15.5 6.9 15.5 15.5v173c0 8.6-6.9 15.5-15.5 15.5z"/></g><g class="st0"><path d="M166.8 401.5c-12 0-20.9-3-26.6-9.1-5.7-6.1-8.7-16.2-9-30.3l25.2-3.3c0 4 .2 7.4.7 10.1.4 2.7 1.1 4.8 1.9 6.3.8 1.4 1.7 2.5 2.7 3s2.1.9 3.3.9c3.3 0 5-2.4 5-7.2 0-4.7-1.1-8.7-3.2-12.1s-5.5-7.1-10.2-11.1l-7.7-6.5c-2.8-2.4-5.1-4.5-6.8-6.4-1.8-1.9-3.6-4.1-5.4-6.8-1.8-2.7-3.2-5.7-4.1-9-.9-3.3-1.3-6.9-1.3-10.9 0-10.5 3.2-18.6 9.5-24.3 6.3-5.7 15.1-8.6 26.2-8.6 19.9 0 30 11.8 30.1 35.4l-25.8 2.6c0-3.2 0-5.6-.1-7.1-.1-1.6-.3-3.2-.6-4.9-.3-1.7-.9-2.9-1.6-3.5-.8-.7-1.8-1-3-1-1.8 0-3.2 1-4.1 2.9-.9 1.9-1.4 3.7-1.4 5.6 0 1 .1 2 .3 3 .2 1 .3 1.8.5 2.6.1.8.5 1.6 1 2.5.5.9.9 1.6 1.1 2.2.2.5.7 1.2 1.5 2.1s1.2 1.5 1.5 1.8c.2.3.8 1 1.8 1.8.9.9 1.5 1.4 1.7 1.6.2.2.8.7 1.9 1.7 1.1 1 1.7 1.5 1.8 1.6l7 6.2c3 2.7 5.5 5.2 7.6 7.5 2.1 2.3 4.1 5 6 8.1s3.3 6.4 4.3 10c1 3.6 1.4 7.5 1.4 11.6 0 8.7-3 16.1-9 22-6.4 6-14.3 9-24.1 9zM241.8 399.6V348l-22.2-69.8h28.1l9.6 32.5 8-32.5h26.9L270.4 348v51.6h-28.6zM350.3 401.5c-12 0-20.9-3-26.6-9.1-5.7-6.1-8.7-16.2-9-30.3l25.2-3.3c0 4 .2 7.4.7 10.1.4 2.7 1.1 4.8 1.9 6.3.8 1.4 1.7 2.5 2.7 3s2.1.9 3.3.9c3.3 0 5-2.4 5-7.2 0-4.7-1.1-8.7-3.2-12.1s-5.5-7.1-10.2-11.1l-7.7-6.5c-2.8-2.4-5.1-4.5-6.8-6.4-1.8-1.9-3.6-4.1-5.4-6.8-1.8-2.7-3.2-5.7-4.1-9-.9-3.3-1.3-6.9-1.3-10.9 0-10.5 3.2-18.6 9.5-24.3 6.3-5.7 15.1-8.6 26.2-8.6 19.9 0 30 11.8 30.1 35.4l-25.8 2.6c0-3.2 0-5.6-.1-7.1-.1-1.6-.3-3.2-.6-4.9-.3-1.7-.9-2.9-1.6-3.5-.8-.7-1.8-1-3-1-1.8 0-3.2 1-4.1 2.9-.9 1.9-1.4 3.7-1.4 5.6 0 1 .1 2 .3 3 .2 1 .3 1.8.5 2.6.1.8.5 1.6 1 2.5.5.9.9 1.6 1.1 2.2.2.5.7 1.2 1.5 2.1s1.2 1.5 1.5 1.8c.2.3.8 1 1.8 1.8.9.9 1.5 1.4 1.7 1.6.2.2.8.7 1.9 1.7 1.1 1 1.7 1.5 1.8 1.6l7 6.2c3 2.7 5.5 5.2 7.6 7.5 2.1 2.3 4.1 5 6 8.1s3.3 6.4 4.3 10c1 3.6 1.4 7.5 1.4 11.6 0 8.7-3 16.1-9 22-6.5 6-14.4 9-24.1 9zM421.7 399.6v-99.5H404v-22h65.1v22h-17.7v99.5h-29.7zM494.9 399.6V278.1h56.8V298h-27.1v27.1h20.2v20.7h-20.2v33.9H552v19.8h-57.1zM578.8 399.6V278.1h29.7v47.3l18.4-47.3h29.2l-22 55.2 22.3 66.3h-30.5L610.1 347l-1.5 1.9v50.7h-29.8z"/></g></svg>