<svg version="1.1" id="Calque_1" xmlns="http://www.w3.org/2000/svg" x="0" y="0" viewBox="0 0 798 454" style="enable-background:new 0 0 798 454" xml:space="preserve"><style>.st0{opacity:.2}.st1{fill:#fff}</style><path class="st0" d="m36.4 149 49-10.5v41h36v42h-37V294s-.5 26 37 15v38.5s-21 14-63 0c0 0-19.3-14.4-22-39.3s0-159.2 0-159.2zM137.4 181v172.7h49V235.5s18-20 36-8.5v-46.8s-9.8-5.3-27.3.7c0 0-11 6-13.4 13.5l-2.4-14.6-41.9.2v1zM235.1 180.7h48.7v173.1h-48.7zM235.1 165l48.7-10.7v-39.6l-48.7 10.6zM438.9 209.8S425.6 184 394.1 178c-31.5-6-46.3 14.5-46.3 14.5L345 194v-79.4L300.4 125v228.7h51.3v-11c19.5 13.3 40.3 12 40.3 12 33.8-7 41.8-24.3 41.8-24.3s11.8-11 18-50-12.9-70.6-12.9-70.6z"/><path class="st1" d="M351.1 230.3v72.3s15 16 36 5 16.7-54.7 16.7-54.7-7.5-31.7-27.1-32.3c-19.6-.6-25.6 9.7-25.6 9.7z"/><path class="st0" d="M605.8 283.7h-95s0 25.1 22.7 27.9c22.7 2.8 34.7 2.5 62.7-8.5l.3 38.3s-46.3 23.7-87.7 7c-41.3-16.7-46-61-46-61s-10.3-53.3 20.7-87.7 78-19 78-19 36 15 42 58.3c-.1 0 5.3 15.7 2.3 44.7z"/><path class="st1" d="M509.9 246.5s-1.2-27.7 24-29.7 26 30.7 26 30.7h-50v-1z"/></svg>