<svg version="1.1" id="Layer_1" xmlns="http://www.w3.org/2000/svg" x="0" y="0" viewBox="0 0 512 512" style="enable-background:new 0 0 512 512" xml:space="preserve"><style>.st0{fill:#d4e1f4}</style><path class="st0" d="M166.1 254.3H124c.6-13.8 3.5-27.5 8.4-40.4 8.7 3 21.2 5.5 36.9 7.3-1.8 11-2.9 22-3.2 33.1zM166.1 266.3c.3 11.5 1.4 22.9 3.5 34.2-15.9 1.8-28.2 4.3-36.7 7.2-5.2-13.2-8.2-27.2-8.8-41.4h42zM191.6 159.8c-.4.6-.7 1.3-1.1 1.9-6.7-.6-13.1-1.3-19.1-2 11.3-9.4 24-16.9 37.7-22.1-6.8 6.6-12.6 14.1-17.5 22.2zM160.2 170.2c7.5 1.2 15.6 2.1 24.2 3-5.5 11.6-9.7 23.7-12.6 36.2-14.9-1.7-26.7-3.9-34.5-6.5 5.9-12 13.6-23 22.9-32.7zM137.8 318.7c7.9-2.6 19.5-4.8 34.3-6.4 3 12.5 7.3 24.7 12.9 36.3-8.5.8-16.5 1.7-23.8 2.8-9.5-9.6-17.3-20.6-23.4-32.7zM172.7 362c5.8-.7 12-1.3 18.5-1.9.1.2.3.5.4.7 4.9 8.1 10.7 15.6 17.5 22.3-13.2-5.1-25.5-12.2-36.4-21.1z"/><path d="M463.9 348.8V167.2c12.5-5 18.5-19.2 13.5-31.6-5-12.5-19.2-18.5-31.6-13.5-2.3.9-4.4 2.2-6.3 3.7l-159-90.9c.4-1.8.7-3.7.7-5.6C281 15.7 269.9 4.9 256.4 5c-13.4.2-24.1 11-24.3 24.3 0 1.9.2 3.9.7 5.8l-159.7 91c-11.5-7.2-26.6-3.8-33.9 7.7-2.4 3.8-3.7 8.3-3.8 12.8 0 9.2 5.3 17.7 13.6 21.7v179.1c-13 3.4-20.8 16.7-17.4 29.7 3.4 13 16.7 20.8 29.7 17.4 3.8-1 7.2-2.8 10.1-5.4l161.6 92c0 .5-.1 1.1-.1 1.6.2 13.5 11.3 24.4 24.8 24.3 13.3-.1 24.1-10.9 24.3-24.3 0-.9-.1-1.8-.2-2.7l158.4-90.2c9.7 9.3 25.2 9 34.5-.8 9.3-9.7 9-25.2-.8-34.5-2.8-2.6-6.2-4.6-10-5.7zM455 132.4c6.8.1 12.2 5.7 12 12.5-.1 6.8-5.7 12.2-12.5 12-6.7-.1-12-5.6-12-12.3 0-6.8 5.6-12.3 12.5-12.2zM256.7 17c6.8.1 12.2 5.7 12 12.5-.1 6.8-5.7 12.2-12.5 12-6.7-.1-12-5.6-12-12.3 0-6.8 5.6-12.3 12.5-12.2zM60 134.3c6.8.1 12.2 5.7 12 12.5-.1 6.8-5.7 12.2-12.5 12-6.7-.1-12-5.6-12-12.3 0-6.8 5.6-12.3 12.5-12.2zm-4.9 249c-6.8-.1-12.2-5.7-12-12.5.1-6.8 5.7-12.2 12.5-12 6.7.1 12 5.6 12 12.3-.1 6.7-5.7 12.2-12.5 12.2zM257.5 495c-6.8-.1-12.2-5.7-12-12.5.1-6.8 5.7-12.2 12.5-12 6.7.1 12 5.6 12 12.3-.1 6.8-5.7 12.3-12.5 12.2zm6-35.8V398h-12v61.1c-6 1.5-11.2 5.2-14.6 10.4L78.2 379.1c1.6-4.4 1.8-9.2.7-13.7l61.4-28.8-5.1-10.9-62 29c-3.3-3.6-7.5-6.1-12.2-7.3V170.8c6.6-.3 12.9-3.2 17.3-8.2l56.8 31.5 5.8-10.5-57-31.6c1.3-5.7.5-11.8-2.3-16.9l156.9-89.4c3.3 3.6 7.5 6.1 12.2 7.2l.8 69.8 12-.1-.8-69.7c4.7-1.2 8.9-3.7 12.2-7.3l157.3 90c-2.4 5.8-2.4 12.3-.1 18.1L375 185.4l5.8 10.5 58.5-32.6c3.6 3 8 4.8 12.6 5.4v179.6c-5.1 1-9.7 3.7-13.2 7.5l-55.2-35.2-6.4 10.1 56 35.7c-1.1 4.4-.9 9.1.6 13.4l-156.2 89c-3.4-4.8-8.4-8.2-14-9.6zm193.4-74.8c-6.8-.1-12.2-5.7-12-12.5.1-6.8 5.7-12.2 12.5-12 6.7.1 12.1 5.6 12.1 12.3-.1 6.7-5.7 12.2-12.6 12.2z" style="fill:#515d75"/><path d="M257.5 116.6h-3.3C175.5 118.4 112 182.1 112 260.3S175.4 402.2 254.1 404h3.3c80.3 0 145.6-64.5 145.6-143.7s-65.3-143.7-145.5-143.7zm-6 179.8c-26.3.1-50.2 1.1-69.9 2.9-2-10.9-3.1-21.9-3.4-33h73.3v30.1zm12-30.1h71c-.3 11-1.4 22-3.4 32.8-19.2-1.6-42.3-2.5-67.6-2.7v-30.1zm0-12v-28.9c25.7-.1 48.6-1.1 67.8-2.7 1.8 10.5 2.9 21 3.2 31.6h-71zm0-40.9v-37.2c19.4-.1 36.7-.6 52.1-1.6 5.8 11.5 10.3 23.7 13.2 36.2-18.7 1.6-40.9 2.5-65.3 2.6zm0-49.2v-35.1c16.8 2.6 32.6 14.4 45.3 33.9-13.5.7-28.6 1.2-45.3 1.2zm-12-35.4v35.4c-16.9-.1-32.9-.6-47.5-1.6 13.3-20.1 29.9-31.9 47.5-33.8zm0 47.4v37.2c-25.5-.1-48.5-1.1-67.6-2.8 3-12.6 7.5-24.8 13.4-36.4 16.5 1.2 34.7 1.9 54.2 2zm0 49.2v28.9h-73.3c.3-10.7 1.3-21.3 3.2-31.8 19.6 1.8 43.3 2.8 70.1 2.9zm-85.4 28.9H124c.6-13.8 3.5-27.5 8.4-40.4 8.7 3 21.2 5.5 36.9 7.3-1.8 11-2.9 22-3.2 33.1zm0 12c.3 11.5 1.4 22.9 3.5 34.2-15.9 1.8-28.2 4.3-36.7 7.2-5.2-13.2-8.2-27.2-8.8-41.4h42zm85.4 42.1v37.2c-18.9.1-37.1.8-53.6 2-6-11.6-10.7-23.8-13.8-36.5 18.9-1.6 41.7-2.6 67.4-2.7zm0 49.2v34.2c-17.2-1.8-33.6-13.2-46.7-32.6 14.6-1 30.3-1.5 46.7-1.6zm12 33.9v-33.9c15.3.1 30.3.6 44.4 1.5-12.6 18.6-28 29.8-44.4 32.4zm0-45.9v-37.2c24.6.1 46.6 1 65 2.5-3.1 12.7-7.7 25-13.8 36.6-16-1.1-33.5-1.8-51.2-1.9zm83-79.3h44.4c-.6 14.2-3.6 28.2-8.8 41.4-9-3.1-22-5.6-39-7.5 1.9-11.2 3.1-22.5 3.4-33.9zm0-12c-.3-11-1.3-22-3.2-32.8 16.8-1.9 30.2-4.5 39.2-7.6 5 12.9 7.8 26.6 8.4 40.4h-44.4zm-5.7-44.7c-2.9-12.4-7-24.5-12.4-36 9.7-.9 18.5-2 26.5-3.3 9.2 9.6 16.8 20.6 22.7 32.5-8.2 2.8-20.8 5.1-36.8 6.8zm3-49.7c-6.6.9-13.8 1.6-21.5 2.2-.4-.8-.9-1.6-1.3-2.3-5.2-8.7-11.6-16.7-19-23.7 15.3 5.4 29.4 13.4 41.8 23.8zm-152.2-.1c-.4.6-.7 1.3-1.1 1.9-6.7-.6-13.1-1.3-19.1-2 11.3-9.4 24-16.9 37.7-22.1-6.7 6.6-12.6 14.1-17.5 22.2zm-31.4 10.4c7.5 1.2 15.6 2.1 24.2 3-5.5 11.6-9.7 23.7-12.6 36.2-14.9-1.7-26.7-3.9-34.5-6.5 5.9-12 13.6-23 22.9-32.7zm-22.4 148.5c7.9-2.6 19.5-4.8 34.3-6.4 3 12.5 7.3 24.7 12.9 36.3-8.5.8-16.5 1.7-23.8 2.8-9.5-9.6-17.3-20.6-23.4-32.7zm34.9 43.3c5.8-.7 12-1.3 18.5-1.9.1.2.3.5.4.7 4.9 8.1 10.7 15.6 17.5 22.3-13.2-5.1-25.5-12.2-36.4-21.1zm148.3-1.2c.2-.3.3-.6.5-.8 7.3.6 14.3 1.3 20.8 2-12 9.7-25.6 17.3-40.2 22.5 7.3-7 13.7-15 18.9-23.7zm32.8-9.3c-7.9-1.2-16.7-2.2-26.1-3 5.6-11.6 9.9-23.9 12.9-36.4 15.9 1.7 28.3 4 36.6 6.7-6.1 12-14 23-23.4 32.7z" style="fill:#f39200"/></svg>