<svg version="1.1" id="Calque_1" xmlns="http://www.w3.org/2000/svg" x="0" y="0" viewBox="0 0 200 200" style="enable-background:new 0 0 200 200" xml:space="preserve"><style>.st0{fill:#4fc1ea}.st2{fill:#585763}</style><g id="XMLID_135_"><g id="XMLID_1529_"><path id="XMLID_2258_" class="st0" d="M76.1 72.9v46.2c0 4.1 3.3 7.4 7.4 7.4h32.9c4.1 0 7.4-3.3 7.4-7.4v-34c0-2-.8-3.9-2.2-5.3l-12.2-12.2c-1.4-1.4-3.3-2.2-5.3-2.2H83.6c-4.1.1-7.5 3.4-7.5 7.5zm30.7-2.5L119 82.6c.7.7 1 1.6 1 2.5v34c0 2-1.6 3.6-3.6 3.6H83.6c-2 0-3.6-1.6-3.6-3.6V72.9c0-2 1.6-3.6 3.6-3.6h20.7c.9 0 1.8.4 2.5 1.1z"/><path id="XMLID_2180_" class="st0" d="M88.9 80.8h22.2v3.9H88.9z"/><path id="XMLID_2171_" class="st0" d="M88.9 94.1h22.2V98H88.9z"/><path id="XMLID_1695_" class="st0" d="M88.9 107.3h22.2v3.9H88.9z"/></g><g id="XMLID_1420_" style="opacity:.3"><path id="XMLID_1437_" class="st2" d="M114.5 56.6c13.3 4.9 23.4 16.3 26.5 30.3l3.8-.8c-3.5-15.7-15.1-28.5-30.2-33.5v-2.3c0-1.9-2.1-3.1-3.7-2.1l-5.1 2.9c-1.6.9-1.6 3.3 0 4.3l5.1 2.9c1.5.7 3.3-.2 3.6-1.7z"/><path id="XMLID_1435_" class="st2" d="m59.2 90.4 2.9-5.1c.9-1.5-.1-3.3-1.7-3.7 5-13.3 16.4-23.5 30.5-26.6l-.9-3.8c-15.8 3.5-28.6 15.2-33.6 30.4h-2.3c-1.9 0-3.1 2.1-2.1 3.7l2.9 5.1c1 1.6 3.4 1.6 4.3 0z"/><path id="XMLID_1426_" class="st2" d="m96.8 136.8-5.1-2.9c-1.6-.9-3.7.2-3.7 2.1v.3C73.5 132 62.3 120 59 105.1l-3.8.8c3.7 16.6 16.5 29.9 32.8 34.3v1.6c0 1.9 2.1 3.1 3.7 2.1l5.1-2.9c1.7-.9 1.7-3.3 0-4.2z"/><path id="XMLID_1424_" class="st2" d="m148 106.9-2.9-5.1c-1-1.6-3.3-1.6-4.3 0l-2.9 5.1c-.9 1.5 0 3.3 1.6 3.6-4.9 13.3-16.3 23.4-30.3 26.5l.8 3.8c15.7-3.5 28.5-15.1 33.5-30.2h2.3c2 0 3.1-2.1 2.2-3.7z"/></g></g></svg>