<svg xmlns="http://www.w3.org/2000/svg" viewBox="-124 126 200 200" style="enable-background:new -124 126 200 200" xml:space="preserve"><path d="M-7.9 213.9v-9h-4.2v8.9h-5.1v-8.9h-4.2v8.9h-5.1v-8.9h-4.2v8.9h-5.1v-8.9H-40v9c-3.2.4-5.6 3.1-5.6 6.3v13.3c0 5.9 4.8 10.6 10.6 10.6h9v34h4.2v-34h9c5.9 0 10.6-4.8 10.6-10.6v-13.3c0-3.3-2.5-6-5.7-6.3zm1.4 19.6c0 3.5-2.9 6.4-6.4 6.4h-22.3c-3.5 0-6.4-2.9-6.4-6.4v-13.3c0-1.2 1-2.1 2.1-2.1h30.8c1.2 0 2.1 1 2.1 2.1l.1 13.3z" style="opacity:.3;fill:#585763;enable-background:new"/><path d="M7.8 197.9c0-7.4-5.9-13.4-13.2-13.6-3-7.5-10.3-12.6-18.5-12.6s-15.5 5.1-18.5 12.6c-7.3.2-13.2 6.2-13.2 13.5-5.4 1.9-9.1 7-9.1 12.8 0 7.5 6.1 13.5 13.5 13.5h5.5v-4.2h-5.5c-5.1 0-9.3-4.2-9.3-9.3 0-4.4 3.2-8.3 7.5-9.1 1.1-.2 1.9-1.3 1.7-2.4-.1-.5-.1-.9-.1-1.3 0-5.1 4.2-9.3 9.3-9.3.3 0 .6 0 1 .1 1 .1 2-.5 2.3-1.5 1.8-6.5 8-11.1 14.8-11.1s13 4.6 14.9 11.1c.3 1 1.2 1.6 2.3 1.5.3 0 .6-.1 1-.1 5.1 0 9.3 4.2 9.3 9.3 0 .4 0 .8-.1 1.3-.2 1.1.6 2.2 1.7 2.4 4.3.9 7.5 4.7 7.5 9.1 0 5.1-4.2 9.3-9.3 9.3h-5.5v4.2h5.5c7.5 0 13.5-6.1 13.5-13.5 0-5.7-3.7-10.8-9-12.7z" style="fill:#4fc1ea"/></svg>