<svg version="1.1" id="Layer_1" xmlns="http://www.w3.org/2000/svg" x="0" y="0" viewBox="0 0 512 512" style="enable-background:new 0 0 512 512" xml:space="preserve"><style>.st0{fill:#d4e1f4}.st1{fill:#f39200}</style><path class="st0" d="M153.3 342.8c1.5-4.2 5-7.3 9.3-8.3 3.4-.8 7-.1 9.9 1.9l-10-10.4c-3.1-3.2-7.6-4.5-11.9-3.5-4.3 1-7.9 4.1-9.3 8.3l-15 51.5 16.9-5 10.1-34.5zM183.3 329.8c0-.1 0-.1 0 0l-.2-.2-27.1-28.1 9.5-9.1-11.8-12.2-9.7 9.4 27.1 28.1.1.1 46.3 48 .2-.2-34.4-35.8zM166 275.2l29.5-36.1-11.8-12.2-29.7 36.3 87.7 90.9.2-.2-75.9-78.7zM203.3 229.4l116-142.3c28.1-34.4 68.9-53.8 112.1-53.1 1.2 0 2.4 0 3.5.1l55.1 2V24.5l-67.1-2.4c-1.2 0-2.4-.1-3.5-.1-43.2-.7-84 18.7-112.1 53.1l-116 142.3L288.8 318l.2-.2-85.7-88.4z"/><path class="st1" d="M279.4 190.9c-11.1 11-11.3 28.9-.5 40.1 5.2 5.4 12.4 8.5 19.9 8.6h.3c7.4 0 14.5-2.9 19.7-8.1 11.1-11 11.3-28.9.5-40.1-10.8-11.2-28.6-11.4-39.7-.7 0 .1-.1.1-.2.2zm31.1 32c-6.3 6.2-16.5 6.2-22.7-.1l-.1-.1c-6.3-6.5-6.2-16.8.3-23.2 3-3 7.1-4.7 11.3-4.6h.2c4.3 0 8.4 1.8 11.4 4.9 6.1 6.4 6 16.8-.4 23.1zM374.2 143.3c1.6 0 3.1-.6 4.2-1.7l50.2-49.4c17.8 16.8 42.6 23.8 66.6 18.9 3.2-.7 5.3-3.8 4.7-7.1-.7-3.2-3.8-5.3-7.1-4.7-21.4 4.3-43.5-2.6-58.6-18.4C418 64.2 412.2 40 419 17.8c1-3.2-.8-6.5-4-7.5s-6.5.8-7.5 4c-7.3 23.8-2.4 49.6 13 69.1L370 133c-2.4 2.3-2.4 6.1-.1 8.5 1.1 1.2 2.7 1.8 4.3 1.8zM353.9 163.3c1.6 0 3.1-.6 4.2-1.7l8.4-8.3c2.4-2.3 2.4-6.1 0-8.5-2.3-2.3-6.1-2.4-8.5-.1l-8.4 8.3c-2.4 2.3-2.4 6.1-.1 8.5 1.3 1.1 2.8 1.8 4.4 1.8zM335.3 167.2l-2.1 2.1c-2.4 2.3-2.4 6.1-.1 8.5 2.3 2.4 6.1 2.4 8.5.1l2.1-2.1c2.4-2.3 2.4-6.1.1-8.5s-6.1-2.5-8.5-.1zM43.8 387.2c1.6 0 3.1-.6 4.2-1.7l72.5-71.4c2.4-2.3 2.4-6.1.1-8.5s-6.1-2.4-8.5-.1L39.6 377c-2.4 2.3-2.4 6.1-.1 8.5 1.2 1.1 2.7 1.7 4.3 1.7zM32.2 401.1c2.4-2.3 2.4-6.1.1-8.5s-6.1-2.4-8.5-.1l-12 11.8c-2.4 2.3-2.4 6.1-.1 8.5s6.1 2.4 8.5.1l12-11.8zM88 379.6l-33.8 33.3c-2.4 2.3-2.4 6.1-.1 8.5s6.1 2.4 8.5.1l33.8-33.3c2.3-2.4 2.3-6.2 0-8.5s-6-2.4-8.4-.1zM43.8 431.6c-2.3-2.4-6.1-2.4-8.5-.1l-16.2 15.9c-2.4 2.3-2.4 6.1-.1 8.5s6.1 2.4 8.5.1l16.2-15.9c2.4-2.3 2.4-6.1.1-8.5zM88.8 448.4l30.3-29.8c2.4-2.3 2.4-6.1.1-8.5s-6.1-2.4-8.5-.1l-30.3 29.8c-2.4 2.3-2.4 6.1-.1 8.5s6.1 2.4 8.5.1zM57.2 462.7l-12 11.8c-2.4 2.3-2.4 6.1-.1 8.5s6.1 2.4 8.5.1l12-11.8c2.4-2.3 2.4-6.1.1-8.5s-6.2-2.5-8.5-.1zM113.4 469.4c2.3 2.4 6.1 2.4 8.5.1l77.1-75.9c2.4-2.3 2.4-6.1.1-8.5-2.3-2.4-6.1-2.4-8.5-.1l-77.1 75.9c-2.4 2.3-2.4 6.1-.1 8.5zM101.5 481.1c-2.3-2.4-6.1-2.4-8.5-.1l-10.9 10.7c-2.4 2.3-2.4 6.1-.1 8.5s6.1 2.4 8.5.1l10.9-10.7c2.4-2.4 2.5-6.2.1-8.5z"/><path d="m491.6 12.6-68.2-2.5c-1.3 0-2.5-.1-3.8-.1-23.3-.3-46.3 4.8-67.3 14.8-21 10.1-39.6 24.7-54.3 42.7l-66.6 81.6-139.2-49c-3.5-1.3-7.4 0-9.4 3.1-2 3.2-1.6 7.5 1.1 10.2l95.7 99.2-37.1 45.6c-2.6 3.2-2.4 7.8.4 10.8l2.4 2.5-12.8 12.3c-1.5 1.4-2.3 3.4-2.4 5.4 0 2 .7 3.9 2.1 5.4l15.6 16.1c-8.4 1.9-15.2 8-17.9 16.2l-15.2 52.4c-1.2 4.1-.1 8.4 2.8 11.5 3 3.1 7.5 4.3 11.6 3.1l51.4-15.1.3-.1c7.9-2.7 13.9-9.2 16-17.2l15.2 15.7c1.4 1.5 3.4 2.3 5.4 2.3 2 0 3.9-.8 5.3-2.2l12.8-12.3c2.9 2.8 7.4 3.1 10.6.7l46.8-35.8 87.4 90.6c1.6 1.7 3.8 2.7 6.2 2.7 4.4 0 7.9-3.5 7.9-7.8 0-.9-.1-1.8-.5-2.7l-42.1-127.8 85.2-65.2c18.9-14.3 34.2-32.8 44.8-54 13.3-26.8 20-56.6 20-88.4V23.4c.1-5.8-4.4-10.5-10.2-10.8zM104.1 117.1l119.3 42-36.1 44.2-83.2-86.2zm78 229.2c3.1 3.1 4.3 7.6 3.3 11.9-1 4.3-4.1 7.8-8.3 9.2l-50.7 14.9 15-51.5c1.5-4.2 5-7.3 9.3-8.3 4.3-1 8.8.3 11.9 3.5l19.2 19.9c.1.1.2.2.3.4zm35.5 19.4-46.3-48-.1-.1-27.2-28.1 9.7-9.4 73.5 76.3-9.6 9.3zm24.1-11.6L154 263.2l29.6-36.3 95.6 98.6-37.5 28.6zm135.5 45.8-74.6-77.3 39.3-30 35.3 107.3zM490 77.3c0 30-6.3 58-18.8 83.1-9.8 19.5-23.9 36.5-41.3 49.8L288.8 318l-97.5-100.6 116-142.3c28.1-34.4 68.9-53.8 112.1-53.1 1.2 0 2.4 0 3.5.1l67.1 2.4v52.8z" style="fill:#515d75"/></svg>