<svg version="1.1" id="Layer_1" xmlns="http://www.w3.org/2000/svg" x="0" y="0" viewBox="0 0 500 500" style="enable-background:new 0 0 500 500" xml:space="preserve"><style>.st0{fill:#4fc1ea}.st1{fill:none}.st2{fill:#fff}</style><path class="st0" d="M476 450.3H24.6c-.4 0-.6-.8-.6-1.8s.3-1.8.6-1.8H476"/><path class="st1" d="m210.2 287.9-.8 4.4 4.7 4.6 9.1-9zM228.8 335.2c-1 0-1.8-.8-1.8-1.8v-26.6c0-1 .8-1.8 1.8-1.8h26.6c1 0 1.8.8 1.8 1.8v3.1l4.6-4.6 5.8-5.8-11.6-11.6h-27.8l-7.4 7.4h13.8c1 0 1.8.8 1.8 1.8s-.8 1.8-1.8 1.8h-16.2c-.3 0-.6-.1-.9-.3l-2.2 2.2-9.2 9.2-4.6 25.2h14.1c1 0 1.8.8 1.8 1.8s-.8 1.8-1.8 1.8h-14.8L189.2 402h14.1c1 0 1.8.8 1.8 1.8s-.8 1.8-1.8 1.8h-14.7L181 447h42v-7.3h-14.2c-1 0-1.8-.8-1.8-1.8s.8-1.8 1.8-1.8H223v-18.8c0-5.1 2-9.9 5.6-13.5 3.6-3.6 8.4-5.6 13.5-5.6 10.4 0 18.9 8.4 19.1 18.8h14.4c1 0 1.8.8 1.8 1.8s-.8 1.8-1.8 1.8h-14.4V447h42l-12.9-69.9-41.7-41.7h-19.8zm36.4 53.3h16.2c1 0 1.8.8 1.8 1.8s-.8 1.8-1.8 1.8h-16.2c-1 0-1.8-.8-1.8-1.8s.8-1.8 1.8-1.8zm-8-38.4v26.6c0 1-.8 1.8-1.8 1.8h-26.6c-1 0-1.8-.8-1.8-1.8v-4.1h-14.4c-1 0-1.8-.8-1.8-1.8s.8-1.8 1.8-1.8H227v-18.9c0-1 .8-1.8 1.8-1.8h26.6c1 0 1.8.8 1.8 1.8zM261 287.9l10.3 10.3 5.6 5.5-3-15.8z"/><path class="st2" d="M382.8 147.4 279.6 250.5l17.8 17.8 103.2-103.1z"/><path transform="rotate(-45.017 326.462 194.178)" class="st2" d="M253.5 191h145.9v6.4H253.5z"/><path class="st2" d="M366.2 412.2 263 309l-6.4 6.4-11.4 11.4 5.3 5.3 97.8 97.8 17.9-17.7z"/><path transform="rotate(-45.02 319.376 355.804)" class="st2" d="M316.2 282.9h6.4v145.9h-6.4z"/><path class="st2" d="m244.6 271.5 12.9 12.9h15.9c-.8-5-3.6-18.5-11.8-29.9l-17 17zM242.1 274l-10.3 10.3h20.6zM230.6 351.9h23v23h-23zM230.6 331.6H245l-3.5-3.5c-.7-.7-.7-1.8 0-2.5l12.1-12.1v-4.8h-23v22.9zM242.1 269l17.3-17.3c-4.8-5.8-10.7-10.1-17.3-12.7-6.7 2.6-12.5 6.8-17.3 12.7l17.3 17.3zM257.6 417.1c0-8.6-7-15.6-15.6-15.6-4.1 0-8 1.6-11 4.6-3 3-4.6 6.9-4.6 11v19.8c.1.2.2.5.2.8 0 .3-.1.5-.2.8v8.3h31.1v-29.7zM226.7 284.3l12.9-12.9-17-17c-8.2 11.4-11 24.9-11.8 29.9h15.9zM221.2 233.9l17.7-17.8L135.8 113 118 130.8zM218.7 236.4 115.5 133.3l-4.6 4.5L214.1 241z"/><path transform="rotate(-45.001 157.753 348.792)" class="st2" d="M84.8 345.6h145.9v6.4H84.8z"/><path transform="rotate(-45.001 144.07 335.11)" class="st2" d="M71.1 322.5H217v25.2H71.1z"/><path class="st0" d="M228.8 348.3c-1 0-1.8.8-1.8 1.8V369h-14.4c-1 0-1.8.8-1.8 1.8s.8 1.8 1.8 1.8H227v4.1c0 1 .8 1.8 1.8 1.8h26.6c1 0 1.8-.8 1.8-1.8v-26.6c0-1-.8-1.8-1.8-1.8h-26.6zm24.8 26.6h-23v-23h23v23zM265.2 392h16.2c1 0 1.8-.8 1.8-1.8s-.8-1.8-1.8-1.8h-16.2c-1 0-1.8.8-1.8 1.8s.8 1.8 1.8 1.8z"/><path class="st0" d="m275.9 251.8 20.3 20.3c.3.3.8.5 1.3.5s.9-.2 1.3-.5l105.7-105.7c.7-.7.7-1.8 0-2.5l-20.3-20.3-7.1-7.1c-.7-.7-1.8-.7-2.5 0L268.8 242.2l-6.9 6.9c-5.4-6.4-11.8-11-19.2-13.7-.4-.1-.8-.1-1.2 0-7.4 2.7-13.9 7.4-19.2 13.7l-5.6-5.6 26.1-26.1c.7-.7.7-1.8 0-2.5L137 109.2c-.7-.7-1.8-.7-2.5 0l-27.4 27.4c-.7.7-.7 1.8 0 2.5l105.7 105.7 7.2 7.2c-10.8 14.8-12.9 32.5-13 33.9l-.6 3.4-18.4-18.5c-.7-.7-1.8-.7-2.5 0L79.8 376.5c-.3.3-.5.8-.5 1.3s.2.9.5 1.3l27.4 27.4c.3.3.8.5 1.3.5s.9-.2 1.3-.5l92.1-92.1-24.7 133.9c-.1.5 0 1.1.4 1.5.3.4.8.6 1.4.6h126.5c.5 0 1-.2 1.4-.6.3-.4.5-.9.4-1.5L295 381.4l52.4 52.4c.3.3.8.5 1.3.5s.9-.2 1.3-.5l20.3-20.3 7.1-7.1c.7-.7.7-1.8 0-2.5l-95.7-95.7-4.1-22.3c-.2-1.5-2.2-19.2-13-33.9l5.9-5.9 5.4 5.7zm3.7-1.3 103.2-103.2 17.8 17.8-103.2 103.2-17.8-17.8zm-2.5-2.5-4.5-4.5 103.2-103.2 4.5 4.5L277.1 248zm-63 48.9-4.7-4.7.8-4.4h12.9l-9 9.1zm-27.3-22.3 17.8 17.8-103.2 103.2-17.8-17.8 103.2-103.2zm55.3-35.7c6.7 2.6 12.5 6.9 17.3 12.7L242.1 269l-17.3-17.3c4.8-5.9 10.6-10.2 17.3-12.8zm0 35.1 10.3 10.3h-20.7l10.4-10.3zm-2.5-2.5-12.9 12.9h-15.9c.8-5 3.6-18.4 11.8-29.9l17 17zm-32.5 23.4 4.5 4.5-103.2 103.2-4.5-4.5 103.2-103.2zm50.4-10.6-12.9-12.9 17-17c8.2 11.4 11 24.9 11.8 29.9h-15.9zm-18.6-68.2-17.8 17.8L118 130.8l17.8-17.8 103.1 103.1zm-123.4-82.8 103.2 103.2-4.5 4.6-103.3-103.3 4.6-4.5zm111 305.1c.1-.2.2-.5.2-.8 0-.3-.1-.5-.2-.8V417c0-4.1 1.6-8 4.6-11 2.9-2.9 6.8-4.6 11-4.6 8.6 0 15.6 7 15.6 15.6v29.7h-31.1v-8.3zm76.7 8.4h-42v-26.4h14.4c1 0 1.8-.8 1.8-1.8s-.8-1.8-1.8-1.8h-14.4c-.2-10.4-8.7-18.8-19.1-18.8-5.1 0-9.9 2-13.5 5.6-3.6 3.6-5.6 8.4-5.6 13.5v18.8h-14.2c-1 0-1.8.8-1.8 1.8s.8 1.8 1.8 1.8H223v7.3h-42l7.6-41.4h14.7c1 0 1.8-.8 1.8-1.8s-.8-1.8-1.8-1.8h-14.1l11.6-63.2h14.8c1 0 1.8-.8 1.8-1.8s-.8-1.8-1.8-1.8h-14.1l4.6-25.2 9.2-9.2 2.2-2.2c.3.2.6.3.9.3h16.2c1 0 1.8-.8 1.8-1.8s-.8-1.8-1.8-1.8h-13.8l7.4-7.4H256l11.6 11.6-5.8 5.8-4.6 4.6v-3.1c0-1-.8-1.8-1.8-1.8h-26.6c-1 0-1.8.8-1.8 1.8v26.6c0 1 .8 1.8 1.8 1.8h19.8l41.7 41.7 12.9 70.1zm-49.6-133.4-12.1 12.1c-.7.7-.7 1.8 0 2.5l3.5 3.5h-14.5v-23h23v4.9zm-3 18.7-5.3-5.3 11.4-11.4 6.4-6.4 103.2 103.2-17.9 17.8-97.8-97.9zm118.1 77.6L265.5 306.5l4.5-4.5 103.2 103.2-4.5 4.5zm-97.4-111.5L261 287.9h12.9l2.9 15.9-5.5-5.6z"/><path class="st1" d="M115.2 355.1c1.4.9 2.8 1.7 4.3 2.2v-8.6c-.6-.1-1.3-.2-1.9-.4l-8.5-.5c2.4 2.1 4.5 4.6 6.1 7.3zM123.1 352.2c2.7-.2 5.2-1.4 7.1-3.1l-7.1-.4v3.5zM133 358.3c3-3.7 7-6.5 11.5-8.2l-9.9-.6c-2.7 3.6-6.8 6-11.6 6.3v2.6c1.5.3 3.1.5 4.7.5 1.9 0 3.6-.2 5.3-.6zM119.5 369.6v-8.5c-.6-.2-1.2-.4-1.8-.7 1.1 3 1.7 6 1.8 9.2zM127.2 374.7c0-4.5 1.1-8.7 3.1-12.3-.9.1-1.7.1-2.6.1-1.6 0-3.1-.2-4.7-.4v48h7.8c6.9 0 12.8-4.2 15.3-10.2-10.8-3.2-18.9-13.3-18.9-25.2zM119.5 371.9c-.5 13.9-10.4 25.5-23.5 28.6 0 13 10.5 23.7 23.5 24v-52.6z"/><path class="st2" d="M146.2 349.5c0-.1.1-.2.1-.3 2.7-3.8 4.1-8.3 4.1-13 0-12.5-10.1-22.6-22.6-22.6s-22.6 10.1-22.6 22.6c0 3.6.9 7.1 2.5 10.3.5.4 1 .8 1.5 1.3l8.5.5c-4.9-1.6-8.4-6.1-8.4-11.5 0-1 .8-1.8 1.8-1.8s1.8.8 1.8 1.8c0 4.1 2.9 7.5 6.8 8.3v-8.9c0-1 .8-1.8 1.8-1.8s1.8.8 1.8 1.8v12.4l7.1.4c2.4-2.2 4-5.4 4-8.9 0-1 .8-1.8 1.8-1.8s1.8.8 1.8 1.8c0 3.4-1.1 6.6-3 9.2l9.9.6c.2 0 .7-.2 1.3-.4zM153.4 352.1c-7.1 0-13.4 3.3-17.6 8.4-.1.3-.3.6-.6.8-2.8 3.8-4.4 8.4-4.4 13.4 0 10.3 6.9 19 16.4 21.7.2-.9.3-1.9.3-2.9v-12.1c-5.8-.9-10.3-5.9-10.3-11.9 0-1 .8-1.8 1.8-1.8s1.8.8 1.8 1.8c0 4.1 2.9 7.5 6.8 8.3v-3.2c0-1 .8-1.8 1.8-1.8s1.8.8 1.8 1.8v13.9c5.8-.9 10.3-5.9 10.3-11.9 0-1 .8-1.8 1.8-1.8s1.8.8 1.8 1.8c0 8-6.1 14.6-13.8 15.5v1.4c0 1.2-.1 2.4-.3 3.6.9.1 1.8.2 2.8.2 12.5 0 22.6-10.1 22.6-22.6-.4-12.5-10.5-22.6-23-22.6z"/><path class="st0" d="M153.4 348.5c-.9 0-1.7 0-2.6.1 2-3.8 3.1-8 3.1-12.3 0-14.4-11.7-26.2-26.2-26.2-14.4 0-26.2 11.7-26.2 26.2 0 2.4.4 4.8 1 7.2-4.1-2-8.7-3.2-13.6-3.2-16.8 0-30.5 13.7-30.5 30.5s13.7 30.5 30.5 30.5c1.2 0 2.3-.1 3.5-.2.4 14.7 12.3 26.6 27 26.9v20.6c0 1 .8 1.8 1.8 1.8s1.8-.8 1.8-1.8v-34.9h7.8c8.6 0 15.9-5.4 18.8-13.1 1.2.2 2.5.3 3.7.3 14.4 0 26.2-11.7 26.2-26.2.1-14.5-11.7-26.2-26.1-26.2zm0 48.8c-.9 0-1.9-.1-2.8-.2.2-1.2.3-2.4.3-3.6v-1.4c7.8-.9 13.8-7.5 13.8-15.5 0-1-.8-1.8-1.8-1.8s-1.8.8-1.8 1.8c0 6-4.5 11-10.3 11.9v-13.9c0-1-.8-1.8-1.8-1.8s-1.8.8-1.8 1.8v3.2c-3.9-.8-6.8-4.2-6.8-8.3 0-1-.8-1.8-1.8-1.8s-1.8.8-1.8 1.8c0 6.1 4.5 11.1 10.3 11.9v12.1c0 1-.1 1.9-.3 2.9-9.4-2.7-16.4-11.4-16.4-21.7 0-5 1.7-9.6 4.4-13.4.3-.2.5-.5.6-.8 4.2-5.1 10.5-8.4 17.6-8.4 12.5 0 22.6 10.1 22.6 22.6.4 12.5-9.7 22.6-22.2 22.6zm-30.3-41.5c4.7-.3 8.9-2.7 11.6-6.3 1.9-2.6 3-5.8 3-9.2 0-1-.8-1.8-1.8-1.8s-1.8.8-1.8 1.8c0 3.5-1.5 6.7-4 8.9-1.9 1.7-4.4 2.9-7.1 3.1v-15.9c0-1-.8-1.8-1.8-1.8s-1.8.8-1.8 1.8v8.9c-3.9-.8-6.8-4.2-6.8-8.3 0-1-.8-1.8-1.8-1.8s-1.8.8-1.8 1.8c0 5.4 3.5 10 8.4 11.5.6.2 1.2.3 1.9.4v8.6c-1.5-.6-2.9-1.3-4.3-2.2-1.6-2.7-3.7-5.2-6.1-7.3-.5-.4-1-.9-1.5-1.3-1.6-3.2-2.5-6.7-2.5-10.3 0-12.5 10.1-22.6 22.6-22.6s22.6 10.1 22.6 22.6c0 4.7-1.4 9.2-4.1 13-.1.1-.1.2-.1.3-.6.2-1.1.3-1.6.5-4.6 1.6-8.5 4.5-11.5 8.2-1.7.4-3.5.7-5.3.7-1.6 0-3.1-.2-4.7-.5v-2.8zm-3.6 13.8c-.1-3.2-.7-6.3-1.8-9.2.6.2 1.2.5 1.8.7v8.5zm-3.4 1.2c0 12.5-8.5 22.9-20 26v-13.4c5.8-.9 10.3-5.9 10.3-11.9 0-1-.8-1.8-1.8-1.8s-1.8.8-1.8 1.8c0 4.1-2.9 7.5-6.8 8.3v-3.5c0-1-.8-1.8-1.8-1.8s-1.8.8-1.8 1.8v13.4c-7.4-.5-13.2-6.6-13.2-14.1 0-1-.8-1.8-1.8-1.8s-1.8.8-1.8 1.8c0 9.4 7.4 17.2 16.8 17.6v4.3c-1.1.1-2.3.2-3.5.2-14.9 0-27-12.1-27-27s12.1-27 27-27c15 .1 27.2 12.2 27.2 27.1zm-20 29.7c13.1-3.1 23-14.6 23.5-28.6v52.5c-13-.3-23.5-10.9-23.5-23.9zm34.8 9.6h-7.8v-48c1.5.3 3.1.4 4.7.4.9 0 1.7-.1 2.6-.1-2 3.7-3.1 7.9-3.1 12.3 0 11.9 8 22 19 25.1-2.6 6-8.5 10.3-15.4 10.3z"/><path class="st2" d="M62.1 370.8c0 14.9 12.1 27 27 27 1.2 0 2.3-.1 3.5-.2v-4.3c-9.3-.5-16.8-8.2-16.8-17.6 0-1 .8-1.8 1.8-1.8s1.8.8 1.8 1.8c0 7.5 5.9 13.6 13.2 14.1v-13.4c0-1 .8-1.8 1.8-1.8s1.8.8 1.8 1.8v3.5c3.9-.8 6.8-4.2 6.8-8.3 0-1 .8-1.8 1.8-1.8s1.8.8 1.8 1.8c0 6.1-4.5 11.1-10.3 11.9v13.4c11.5-3.1 20-13.6 20-26 0-14.9-12.1-27-27-27-15.1-.1-27.2 12-27.2 26.9z"/><path class="st1" d="M446.4 364.3c.4 0 .7-.3.7-.7 0-.4-.3-.7-.7-.7-.4 0-.7.3-.7.7 0 .4.3.7.7.7z"/><path class="st2" d="M406.1 365.8c.2 0 .4-.2.4-.4s-.2-.4-.4-.4h-17.4c-.2 0-.4.2-.4.4s.2.4.4.4h17.4zM318.9 60.2c-5.8 0-11.4 2.1-15.8 5.9-.4.3-.9.5-1.4.4-.5-.1-.9-.3-1.2-.7-5.9-8-15.1-12.6-25-12.6-17.2 0-31.2 14-31.2 31.2 0 4.2 3.4 7.6 7.6 7.6h83.6c4.2 0 7.6-3.4 7.6-7.6 0-13.4-10.9-24.2-24.2-24.2z"/><path class="st0" d="M318.9 56.6c-6 0-11.9 2-16.7 5.6-6.6-7.9-16.4-12.6-26.7-12.6-19.1 0-34.7 15.6-34.7 34.7 0 6.2 5 11.2 11.2 11.2h83.6c6.2 0 11.2-5 11.2-11.2-.2-15.2-12.6-27.7-27.9-27.7zM335.5 92h-83.6c-4.2 0-7.6-3.4-7.6-7.6 0-17.2 14-31.2 31.2-31.2 10 0 19.1 4.6 25 12.6.3.4.7.7 1.2.7.5.1 1-.1 1.4-.4 4.4-3.8 10-5.9 15.8-5.9 13.3 0 24.2 10.9 24.2 24.2 0 4.2-3.4 7.6-7.6 7.6z"/></svg>