<svg version="1.1" id="Calque_1" xmlns="http://www.w3.org/2000/svg" x="0" y="0" viewBox="390 76 1230 300" style="enable-background:new 390 76 1230 300" xml:space="preserve"><style>.st0{fill:#fff}.st1{fill:#f39208}</style><circle id="XMLID_2_" class="st0" cx="1389.2" cy="223.1" r="25.9"/><circle id="XMLID_19_" class="st1" cx="1443.1" cy="158.6" r="30.8"/><circle id="XMLID_20_" class="st0" cx="1447.5" cy="242.8" r="13"/><path id="XMLID_59_" d="M570.6 374.2c-81.9 0-148.2-66.3-148.2-148.2S488.9 77.6 570.8 77.6l-.2 296.6z" style="fill:#fcc010"/><path id="XMLID_58_" d="M570.8 111.1V340.5c-63.5 0-114.9-51.3-114.9-114.9 0-63.2 51.5-114.6 114.9-114.5z" style="fill:#f49619"/><path id="XMLID_57_" d="M570.8 152.1v137.7l-63.5-54.2c-5.8-5.1-6.2-14-.8-19.4l64.2-64.2.1.1z" style="fill:#ec630e"/><g id="XMLID_60_"><path id="XMLID_61_" class="st0" d="M676.4 161v43.2h83.3v49.3h-83.3v82.3h-51.2v-224h136.1V161h-84.9z"/><path id="XMLID_63_" class="st0" d="M886.1 172.5v54.4c-19.8-3.2-48.1 4.8-48.1 36.5v72.4h-48v-160h48v28.5c6.5-21.5 27.9-31.8 48.1-31.8z"/><path id="XMLID_65_" class="st1" d="M985 297.4c13.1 0 24.4-5.2 30.7-12.2l38.5 22.1c-15.7 21.8-39.4 33-69.8 33-54.7 0-88.7-36.8-88.7-84.6 0-47.7 34.6-84.6 85.1-84.6 46.8 0 81.3 36.2 81.3 84.6 0 6.7-.6 13.1-1.9 19.2H946.6c6.1 16.7 20.8 22.5 38.4 22.5zm29.5-58.3c-5.2-18.5-19.5-25.3-33.9-25.3-18.2 0-30.4 8.9-34.9 25.3h68.8z"/><path id="XMLID_68_" class="st0" d="M1207.3 287.8c0 36.8-32 52.5-66.6 52.5-32 0-56.4-12.2-68.9-38.1l41.6-23.7c4.2 12.2 13.1 18.9 27.3 18.9 11.5 0 17.2-3.6 17.2-9.9 0-17.6-78.8-8.3-78.8-63.7 0-34.9 29.4-52.5 62.7-52.5 26 0 49 11.5 62.4 34.3l-40.9 22.1c-4.5-8.3-10.9-14.1-21.4-14.1-8.3 0-13.5 3.2-13.5 8.9.1 18.2 78.9 6.1 78.9 65.3z"/><path id="XMLID_70_" class="st0" d="M1384.9 237.5v98.3h-48v-91.3c0-19.8-12.5-29.1-27.9-29.1-17.6 0-29.7 10.2-29.7 33v87.4h-48.1V111.7h48.1v79.1c8.6-11.9 24.7-19.5 45.8-19.5 32.3-.1 59.8 23 59.8 66.2z"/></g></svg>