<svg version="1.1" id="Calque_1" xmlns="http://www.w3.org/2000/svg" x="0" y="0" viewBox="0 0 1230 300" style="enable-background:new 0 0 1230 300" xml:space="preserve"><style>.st0{fill:#344358}.st1{fill:#f39208}.st6{fill:#77c2e0}.st7{fill:#f9de6a}.st9{fill:#010202}</style><circle id="XMLID_2_" class="st0" cx="1103.4" cy="183.4" r="25.9"/><circle id="XMLID_19_" class="st1" cx="1157.3" cy="118.9" r="30.8"/><circle id="XMLID_20_" class="st0" cx="1161.7" cy="203.1" r="13"/><path id="XMLID_59_" d="M37.7 140.8C6.9 110 6.9 60.1 37.7 29.3s80.8-30.8 111.6 0L37.7 140.8z" style="fill:#fcc010"/><path id="XMLID_58_" d="m136.7 41.9-15.4 15.4-51.8 51.8-19.1 19.1c-23.9-23.9-23.9-62.5 0-86.4 23.8-23.8 62.5-23.8 86.3.1z" style="fill:#f49619"/><path id="XMLID_57_" d="m121.3 57.3-51.8 51.8L66 64.8c-.3-4.1 2.9-7.6 7-7.6h48.3v.1z" style="fill:#ec630e"/><path id="XMLID_56_" style="fill:#cbeafc" d="M228.8 65.5 226.6 94l-2.5 31.6-12.6 161.1H91.6L79.3 128.4l-1.6-19.9-3.3-43z"/><path id="XMLID_55_" class="st6" d="M133.2 114.5H171v37.8h-37.8z"/><path id="XMLID_54_" class="st6" d="M228.8 65.5 226.6 94l-15.1 192.7h-10.4L216.2 94l2.2-28.5z"/><path id="XMLID_53_" class="st1" d="m224.1 125.6-12.6 161.1H91.6L79.3 128.4c11.4-4.4 27.9-6.9 48.8-.6 31.4 9.5 57 3.3 85.6-.9 3.4-.4 6.9-.9 10.4-1.3z"/><path id="XMLID_52_" class="st7" d="M171 132.6v19.7h-37.8v-23c13.3 3.4 25.7 4 37.8 3.3z"/><path id="XMLID_51_" d="m224.1 125.6-12.6 161.1h-10.4L213.6 127c3.5-.5 7-1 10.5-1.4z" style="fill:#c6781a"/><path id="XMLID_50_" transform="rotate(-69.782 129.757 183.36)" class="st7" d="M110.9 164.5h37.8v37.8h-37.8z"/><path id="XMLID_42_" class="st9" d="M231.9 62.7a4.1 4.1 0 0 0-3.1-1.4H123.3l16.4-16.4 12.6-12.6c1.7-1.7 1.7-4.3 0-6-32.4-32.4-85.1-32.4-117.6 0-14.5 14.6-23.1 33.9-24.2 54.5-.1 2.3 1.7 4.3 4 4.4h.2c2.2 0 4.1-1.8 4.2-4 1-18.5 8.7-35.8 21.8-48.9 14.1-14.1 32.8-21.9 52.8-21.9 18.5 0 36 6.7 49.7 19l-6.6 6.6C111 13.4 71.8 14.4 47.3 38.9s-25.4 63.7-2.9 89.3l-6.6 6.6c-9.6-10.7-15.8-23.8-18-38.1-.4-2.3-2.5-3.9-4.8-3.5-2.3.4-3.9 2.5-3.5 4.8 2.7 17.5 10.8 33.3 23.3 45.8.8.8 1.9 1.2 3 1.2s2.2-.4 3-1.2l32.9-32.9 1.4 17.7v.1l8.7 111c.2 2.2 2 3.9 4.2 3.9h.3c2.3-.2 4.1-2.2 3.9-4.6l-8.4-107.7c13.2-4.3 27.7-4.1 43.1.6l2.1.6v19.8c0 2.3 1.9 4.2 4.2 4.2H171c2.3 0 4.2-1.9 4.2-4.2v-15.8c9.4-.8 18.7-2.2 28.1-3.7 5.3-.8 10.7-1.7 16.2-2.4l-11.9 152h-112l-2.1-27c-.2-2.3-2.2-4.1-4.6-3.9-2.3.2-4.1 2.2-3.9 4.6l2.4 30.9c.2 2.2 2 3.9 4.2 3.9h119.9c2.2 0 4-1.7 4.2-3.9l12.7-161 2.7-34.7c.2-2.3-1.6-4.4-3.9-4.6-2.3-.2-4.4 1.6-4.6 3.9l-2.4 31.2c-6.2.8-12.3 1.8-18.2 2.7-9 1.4-17.9 2.8-26.8 3.6v-13.5c0-2.3-1.9-4.2-4.2-4.2h-37.8c-2.3 0-4.2 1.9-4.2 4.2v9.2c-16-4.8-31.7-5.1-45.9-1L79 69.9h145.3l-.4 4.5c-.2 2.3 1.6 4.4 3.9 4.6 2.3.2 4.4-1.6 4.6-3.9l.7-9.1c.1-1.3-.4-2.5-1.2-3.3zm-65.2 85.4h-29.3v-13.5c8.7 1.8 16.9 2.5 25 2.5 1.5 0 2.9 0 4.4-.1l-.1 11.1zm0-29.3v9.8c-9.5.3-19.1-.3-29.3-2.6v-7.2h29.3zm-55.4-57.5H98.7V28.5c11.5 1 22.7 5.5 31.9 13.5l-19.3 19.3zm-41 6.5 1.1 14H36.8C37.5 69.7 42 57.7 50.4 48l19.9 19.8zm-19.9 54.4c-8-9.2-12.5-20.4-13.5-31.9H72l.7 9.6-22.3 22.3zm25.4-60.9L56.4 42c9.8-8.4 21.7-13 33.8-13.6v33H75.8z"/><path id="XMLID_39_" class="st9" d="M155.5 168.2 120 155.1c-1.1-.4-2.2-.3-3.2.1-1 .5-1.8 1.3-2.2 2.4l-13.1 35.5c-.8 2.2.3 4.6 2.5 5.4l35.5 13.1c.5.2 1 .3 1.5.3 1.7 0 3.3-1.1 4-2.8l13.1-35.5c.7-2.2-.4-4.6-2.6-5.4zm-17 34L111 192.1l10.1-27.5 27.5 10.1-10.1 27.5z"/><path id="XMLID_38_" class="st9" d="M195.2 173.6c2.3 0 4.2-1.9 4.2-4.2v-.9c0-2.3-1.9-4.2-4.2-4.2s-4.2 1.9-4.2 4.2v.9c0 2.3 1.8 4.2 4.2 4.2z"/><path id="XMLID_37_" class="st9" d="M136.7 255.7c-2.3 0-4.2 1.9-4.2 4.2v.9c0 2.3 1.9 4.2 4.2 4.2 2.3 0 4.2-1.9 4.2-4.2v-.9c.1-2.4-1.8-4.2-4.2-4.2z"/><path id="XMLID_36_" class="st9" d="M152.1 271.8c2.3 0 4.2-1.9 4.2-4.2v-.9c0-2.3-1.9-4.2-4.2-4.2s-4.2 1.9-4.2 4.2v.9c-.1 2.3 1.8 4.2 4.2 4.2z"/><path id="XMLID_35_" class="st9" d="M187.1 227.6c-2.3 0-4.2 1.9-4.2 4.2v.9c0 2.3 1.9 4.2 4.2 4.2 2.3 0 4.2-1.9 4.2-4.2v-.9c0-2.3-1.8-4.2-4.2-4.2z"/><path id="XMLID_34_" class="st9" d="M152.1 220.6v-.9c0-2.3-1.9-4.2-4.2-4.2-2.3 0-4.2 1.9-4.2 4.2v.9c0 2.3 1.9 4.2 4.2 4.2 2.3 0 4.2-1.8 4.2-4.2z"/><path id="XMLID_33_" class="st9" d="M181.6 158.8c-2.3 0-4.2 1.9-4.2 4.2v.9c0 2.3 1.9 4.2 4.2 4.2s4.2-1.9 4.2-4.2v-.9c0-2.3-1.9-4.2-4.2-4.2z"/><g id="XMLID_60_"><path id="XMLID_61_" class="st0" d="M345.6 111.9v43.6h84v49.7h-84v83h-51.7v-226h137.3v49.7h-85.6z"/><path id="XMLID_63_" class="st0" d="M557.2 123.5v54.9c-20-3.2-48.5 4.8-48.5 36.8v73h-48.5V126.8h48.5v28.8c6.5-21.7 28.1-32.1 48.5-32.1z"/><path id="XMLID_65_" class="st1" d="M657 249.5c13.2 0 24.6-5.2 31-12.3l38.8 22.3c-15.8 22-39.7 33.3-70.4 33.3-55.2 0-89.5-37.1-89.5-85.3 0-48.1 34.9-85.3 85.9-85.3 47.2 0 82 36.5 82 85.3 0 6.8-.6 13.2-1.9 19.4H618.2c6.2 16.8 21 22.6 38.8 22.6zm29.7-58.8c-5.2-18.7-19.7-25.5-34.2-25.5-18.4 0-30.7 9-35.2 25.5h69.4z"/><path id="XMLID_68_" class="st0" d="M881.2 239.8c0 37.1-32.3 53-67.2 53-32.3 0-56.9-12.3-69.5-38.4l42-23.9c4.2 12.3 13.2 19.1 27.5 19.1 11.6 0 17.4-3.6 17.4-10 0-17.8-79.5-8.4-79.5-64.3 0-35.2 29.7-53 63.3-53 26.2 0 49.4 11.6 63 34.6l-41.3 22.3c-4.5-8.4-11-14.2-21.6-14.2-8.4 0-13.6 3.2-13.6 9 0 18.3 79.5 6.1 79.5 65.8z"/><path id="XMLID_70_" class="st0" d="M1060.4 189.1v99.2H1012v-92.1c0-20-12.6-29.4-28.1-29.4-17.8 0-30 10.3-30 33.3v88.2h-48.5V62.2h48.5V142c8.7-12 24.9-19.7 46.2-19.7 32.6-.1 60.3 23.2 60.3 66.8z"/></g></svg>