<svg xmlns="http://www.w3.org/2000/svg" viewBox="-300 709 798 454" style="enable-background:new -300 709 798 454" xml:space="preserve"><g style="opacity:.2"><path d="M-270.7 993.5c9.2 32 16.7 41.7 20 47.7s23.8 26.1 23.8 26.1 51.3 43.8 103.3 31.5c52-12.3 67.8-30.3 67.8-30.3 9-4.8 41.5-39.5 41.5-39.5l-49.2-56s-37 43.3-60.8 48.8-38-5-38-5-22.3-8.3-29-34.8 3.5-41.8 3.5-41.8 1-3.7 16.5-19.7 43-12 43-12c-16-9.8-20.8-11-20.8-11-33.3-12.3-63.3-4-63.3-4s-33.9 5.5-50.6 46.2c0 0-13.8 34.7-7.7 53.8z"/><path d="M-269.2 938.5s5.5-37 53.5-56 95 17.5 95 17.5l30.8 29s89.7 103 120.7 133 63.5 34.5 63.5 34.5 35.5 9.5 76.5-5.5 55.5-39 55.5-39 29-34 30-74.5c0 0-9.3 28.8-31.5 40.3-22.2 11.5-36.8 21.3-90 14.5 0 0-19.8-4.3-33.8-12.8s-33.3-27.3-33.3-27.3-19.3-18.8-37-40.8-45.3-56.8-45.3-56.8-52.2-54.3-106.5-60.5c-54.3-6.2-90 18.8-90 18.8s-51.6 32.4-58.1 85.6z"/><path d="m-.7 897.5 49.5 62s43.5-53.5 74-51 38.5 16.5 38.5 16.5 16.5 16.2 17.5 41.4-21.9 47.7-39 55.1c0 0 36.9 7.7 70.5-6.5s47-52 46-67.5c0 0-42.7-3.2-55.7-39.2s4-48.7 2-50-34.3-27.8-90.7-25.1C55.7 836 .3 891.7-.7 897.5z"/></g><g style="opacity:.2;enable-background:new"><path d="M223.3 918c-.5 0-.9-.5-.9-1v-50.8c0-.3.3-.7.6-.7h12c.5 0 .8.3.8.7v50.9c0 .4-.3.9-.8.9h-11.7zM238.6 866.4c0-.5.4-.9.8-.9h11.8c.5 0 .8.3 1 .8l4.2 15.8c.1.6.3.8.5.8s.4-.3.4-.9v-15.6c0-.5.3-.9.8-.9h10.5c.6 0 .9.5.9 1v50.6c0 .5-.3.9-.8.9h-13.1c-.3 0-.7-.3-.8-.7l-3.1-12.6c-.1-.7-.4-1-.6-1s-.4.3-.4 1v12.4c0 .5-.4.9-.9.9h-10.6c-.4 0-.7-.4-.7-1v-50.6zM272.4 866.5c0-.5.3-1 .8-1h25.2c.5 0 .8.4.8.8v12.2c0 .5-.4.9-.9.9H287c-.4 0-.8.3-.8.8v4.2c0 .4.2.6.7.6h5.3c.3 0 .8.3.8.7v12.7c0 .4-.3.8-.8.8h-5.3c-.3 0-.7.5-.7.9v17c0 .6-.4 1-.9 1h-12.2c-.4 0-.8-.4-.8-.9v-50.7zM302.7 918c-.5 0-.9-.5-.9-1v-50.8c0-.3.3-.7.6-.7h12c.5 0 .8.3.8.7v50.9c0 .4-.3.9-.8.9h-11.7zM318 866.4c0-.5.4-.9.8-.9h11.8c.5 0 .8.3 1 .8l4.2 15.8c.1.6.3.8.5.8s.4-.3.4-.9v-15.6c0-.5.3-.9.8-.9H348c.6 0 .9.5.9 1v50.6c0 .5-.3.9-.8.9H335c-.3 0-.7-.3-.8-.7l-3.1-12.6c-.1-.7-.4-1-.6-1s-.4.3-.4 1v12.4c0 .5-.4.9-.9.9h-10.6c-.4 0-.7-.4-.7-1v-50.6zM352.7 918c-.5 0-.9-.5-.9-1v-50.8c0-.3.3-.7.6-.7h12c.5 0 .8.3.8.7v50.9c0 .4-.4.9-.8.9h-11.7zM377.4 918c-.5 0-1-.4-1-1v-36.5c0-.5-.4-.8-.9-.8h-7c-.4 0-.9-.6-.9-1v-12.5c0-.4.2-.7.6-.7h30c.5 0 .9.3.9.8v12.3c0 .6-.4 1-1 1h-7c-.5 0-.8.4-.8 1v36.5c0 .5-.4.9-1 .9h-11.9zM401.6 866.4c0-.4.4-.9.9-.9h24.9c.4 0 .7.4.7.8v12.6c0 .4-.3.7-.8.7h-11.7c-.3 0-.5.2-.5.5v3.9c0 .3.3.5.5.5h5.5c.3 0 .5.2.5.5v12.7c0 .3-.3.6-.6.6h-5.7c-.3 0-.5.2-.5.6v4.1c0 .3.2.5.4.5h12.1c.5 0 .8.3.8.7v13c0 .4-.4.8-.8.8h-25.1c-.4 0-.8-.4-.8-.9v-50.7z"/></g></svg>