<?xml version="1.0" encoding="utf-8"?>
<!-- Generator: Adobe Illustrator 25.2.0, SVG Export Plug-In . SVG Version: 6.00 Build 0)  -->
<svg version="1.1" id="Calque_1" xmlns="http://www.w3.org/2000/svg" xmlns:xlink="http://www.w3.org/1999/xlink" x="0px" y="0px"
	 viewBox="0 0 450 450" style="enable-background:new 0 0 450 450;" xml:space="preserve">
<style type="text/css">
	.st0{fill:none;stroke:#3C4349;stroke-width:2;stroke-miterlimit:10;}
	.st1{fill:#0D82C5;stroke:#5D5C74;stroke-miterlimit:10;}
	.st2{fill:#4FC1EA;stroke:#5D5C74;stroke-width:2;stroke-miterlimit:10;}
	.st3{fill:#344258;stroke:#5D5C74;stroke-miterlimit:10;}
	.st4{fill:#FBD7CE;}
	.st5{fill:#5C5C74;}
	.st6{fill:#E4E6E9;}
	.st7{fill:#CDCFD2;}
	.st8{fill:#3C4349;}
	.st9{fill:#FFFFFF;}
	.st10{fill:#FBD7CE;stroke:#5D5C74;stroke-miterlimit:10;}
	.st11{fill:#FBD7CE;stroke:#5E5C74;stroke-miterlimit:10;}
	.st12{fill:#FACAB8;}
	.st13{fill:#4FC1EA;}
	.st14{fill:#4FC1EA;stroke:#5C5C74;stroke-width:2;stroke-miterlimit:10;}
</style>
<path class="st0" d="M-8.4,314.4h466.8"/>
<path class="st1" d="M410.7,213.5c8.6,26.7-4.1,47-37,47c-34.8,0-44.8-20.2-36.6-47c5.2-16.9,3.2-35.3,8.5-43.7
	c7.5-11.9,14.4-16.5,28.1-16.5c13,0,21.3,4.1,26.6,15.7C404.7,178.4,405.1,196.2,410.7,213.5z"/>
<path class="st2" d="M373.4,153.3c-13.1,0-20.1,4.1-27.7,16.3c-2.8,4.4-3.5,11.6-4.4,20c-0.8,7.3-1.6,15.7-4.1,23.6
	c-4.3,14-3.4,25.7,2.6,33.8c6.2,8.4,17.5,12.7,33.6,12.7c15.7,0,27.4-4.6,33.8-13.4c6.1-8.3,7-19.7,2.8-33c-2.4-8.2-4.3-16.5-5.6-25
	c-1.4-7.9-2.6-14.8-4.7-19.5C394.7,157.9,386.9,153.3,373.4,153.3L373.4,153.3z"/>
<path class="st3" d="M326.7,276.1c0-19.7,21.2-35.6,47.4-35.6s47.4,16,47.4,35.6"/>
<path class="st4" d="M384.7,186.2c-10.2,0-19-4.1-23.1-10.2c-1.7,6.8-6.4,11.8-12.2,12.5v21.9c0,8.5,5.3,19,13.6,24.3v8.5
	c0,4.7,3,11.4,10.8,11.4c7.6,0,11-6.6,11-11.4v-7.9c8.8-5.1,13.6-16.1,13.6-24.9v-27.9C396.9,185.5,393.3,186.2,384.7,186.2
	L384.7,186.2z"/>
<path class="st5" d="M373.7,254.8c-8.3,0-11.3-7.1-11.3-11.8v-8.2c-7.9-5.2-13.6-15.5-13.6-24.6v-21.9c0-0.2,0.2-0.4,0.4-0.5
	c5.5-0.7,10.1-5.5,11.8-12.2c0-0.2,0.2-0.3,0.4-0.3s0.4,0,0.5,0.2c4.3,6.1,13,10,22.8,10c8.8,0,11.9-0.8,13.2-3.3
	c0.1-0.2,0.3-0.3,0.5-0.2c0,0,0,0,0,0c0.2,0,0.4,0.2,0.4,0.4v27.9c0,8.3-4.3,19.7-13.6,25.2v7.6
	C385.1,247.9,381.6,254.8,373.7,254.8L373.7,254.8z M349.7,188.7v21.5c0,8.9,5.6,18.9,13.4,23.9c0.1,0.1,0.2,0.2,0.2,0.4v8.5
	c0,4.4,2.8,10.9,10.3,10.9c7.2,0,10.5-6.4,10.5-10.9v-7.9c0-0.2,0.1-0.3,0.2-0.4c8.8-5.1,13.4-16.2,13.4-24.5v-26.4
	c-2.1,2.1-6.1,2.6-13.2,2.6c-9.6,0-18.3-3.6-23-9.6C359.7,183.3,355.2,187.8,349.7,188.7z"/>
<path class="st5" d="M378.8,219.2c0,0-2.1,2.4-4.7,2.4s-4.7-2.4-4.7-2.4C372.5,219.6,375.7,219.6,378.8,219.2L378.8,219.2z
	 M374.3,212.7c-0.7,0-1.4-0.3-1.9-0.8c-0.3-0.4-0.4-0.9-0.2-1.4l0.4,0.1c-0.1,0.3-0.1,0.7,0.1,1c0.3,0.4,0.9,0.6,1.4,0.6
	c0.6,0.1,1.3-0.2,1.7-0.7c0.2-0.3,0.2-0.7,0.1-1l0.4-0.2c0.2,0.5,0.2,1.1-0.1,1.5C375.8,212.4,375.1,212.8,374.3,212.7L374.3,212.7z
	"/>
<path class="st6" d="M426.4,266v56.1c0,2.9-2.4,5.3-5.3,5.3H326c-2.9,0-5.3-2.4-5.3-5.3v-56.2c0-2.9,2.4-5.3,5.3-5.3h95.1
	C424,260.7,426.4,263.1,426.4,266"/>
<path class="st7" d="M426.4,316v6.1c0,2.9-2.4,5.3-5.3,5.3H326c-2.9,0-5.3-2.4-5.3-5.3v-6.2L426.4,316z"/>
<path class="st8" d="M320.8,295.2c-0.6,0-1.1-0.5-1.1-1.1V283c0-0.6,0.5-1.1,1.1-1.1c0.6,0,1.1,0.5,1.1,1.1v11
	C321.9,294.6,321.5,295.2,320.8,295.2C320.8,295.2,320.8,295.2,320.8,295.2"/>
<path class="st8" d="M421.2,328.6H326c-3.5,0-6.4-2.9-6.4-6.4v-21.3c0-0.6,0.5-1.1,1.1-1.1c0.6,0,1.1,0.5,1.1,1.1v21.3
	c0,2.3,1.9,4.2,4.2,4.2h95.2c2.3,0,4.2-1.9,4.2-4.2V266c0-2.3-1.9-4.2-4.2-4.2H326c-2.3,0-4.2,1.9-4.2,4.2v11c0,0.6-0.5,1.1-1.1,1.1
	s-1.1-0.5-1.1-1.1v-11c0-3.5,2.9-6.4,6.4-6.4h95.1c3.5,0,6.4,2.9,6.4,6.4v56.1C427.6,325.6,424.8,328.5,421.2,328.6
	C421.2,328.6,421.2,328.6,421.2,328.6"/>
<path class="st9" d="M419.2,283.9c-0.5,0-0.9-0.4-0.9-0.9v-10.1c0-2.4-2-4.4-4.4-4.4h-11.4c-0.5,0-0.9-0.4-0.9-0.9
	c0-0.5,0.4-0.9,0.9-0.9c0,0,0,0,0,0H414c3.4,0,6.1,2.7,6.1,6.1V283C420.2,283.4,419.7,283.9,419.2,283.9 M396.3,268.5h-7.9
	c-0.5,0-0.9-0.4-0.9-0.9c0-0.5,0.4-0.9,0.9-0.9c0,0,0,0,0,0h7.9c0.5,0,0.9,0.4,0.9,0.9C397.2,268.1,396.8,268.5,396.3,268.5
	 M376.6,298.5c4.2,5,1,7.2-3,7.2c-4,0-7.2-3.2-7.2-7.2c0-4,3.2-7.2,7.2-7.2C377.6,291.3,379.5,294.9,376.6,298.5"/>
<path class="st8" d="M373.6,292.4c-3.4,0-6.1,2.7-6.1,6.1s2.7,6.1,6.1,6.1c1.9,0,3.4-0.6,3.7-1.4s-0.1-2.3-1.6-4
	c-0.4-0.4-0.4-1,0-1.4c1.1-1.4,1.4-2.8,0.9-3.8C376,292.9,374.8,292.3,373.6,292.4 M373.6,306.8c-4.6,0-8.3-3.7-8.3-8.3
	c0-4.6,3.7-8.3,8.3-8.3c2.1-0.1,4,1,5,2.8c0.8,1.8,0.6,3.9-0.6,5.5c1.6,2.2,2.1,4.1,1.4,5.6C378.6,305.8,376.4,306.8,373.6,306.8
	 M372.5,288.1c-0.6,0-1.1-0.5-1.1-1.1c0-0.1,0-0.2,0.1-0.3c0.1-0.1,1-3.5,3.8-4.3c0.6-0.2,1.2,0.2,1.4,0.8c0,0,0,0,0,0
	c0.1,0.5-0.2,1.1-0.7,1.3c-1.6,0.5-2.3,2.7-2.3,2.8C373.5,287.8,373,288.1,372.5,288.1"/>
<path class="st5" d="M356.7,198.3c-0.2,0-0.5-0.1-0.6-0.3c-0.4-0.3-0.4-0.8-0.1-1.2c0,0,0.1-0.1,0.1-0.1c1.1-1.2,2.7-1.9,4.4-1.8
	c1.3,0.1,2.4,0.8,3.1,1.8c0.3,0.4,0.1,1-0.3,1.3c-0.4,0.3-1,0.1-1.3-0.3c-0.4-0.6-1-0.9-1.7-1c-1.1-0.1-2.2,0.4-2.9,1.2
	C357.3,198.2,357,198.3,356.7,198.3L356.7,198.3z M392.1,198.3c-0.3,0-0.5-0.1-0.7-0.3c-0.8-0.8-1.9-1.3-3.1-1.2
	c-0.9,0-1.7,0.4-2.2,1.1c-0.3,0.4-0.9,0.5-1.3,0.2c-0.4-0.3-0.5-0.9-0.2-1.3c0.9-1.1,2.2-1.8,3.6-1.8c1.7-0.1,3.3,0.6,4.5,1.8
	c0.4,0.4,0.4,0.9,0,1.3C392.5,198.2,392.3,198.3,392.1,198.3L392.1,198.3z"/>
<path class="st3" d="M182.9,278.2c0-19.7,21.2-35.6,47.4-35.6s47.4,16,47.4,35.6"/>
<path class="st6" d="M282.6,268.1v56.1c0,2.9-2.4,5.3-5.3,5.3h-95.1c-2.9,0-5.3-2.4-5.3-5.3V268c0-2.9,2.4-5.3,5.3-5.3h95.1
	C280.2,262.8,282.6,265.2,282.6,268.1"/>
<path class="st8" d="M176.9,297.3c-0.6,0-1.1-0.5-1.1-1.1V285c0-0.6,0.5-1.1,1.1-1.1s1.1,0.5,1.1,1.1c0,0,0,0,0,0v11.1
	c0.1,0.5-0.2,1.1-0.8,1.2C177.1,297.3,177,297.3,176.9,297.3"/>
<path class="st8" d="M277.3,330.7h-95.1c-3.5,0-6.4-2.9-6.4-6.4V303c0-0.6,0.5-1.1,1.1-1.1s1.1,0.5,1.1,1.1c0,0,0,0,0,0v21.3
	c0,2.3,1.9,4.2,4.2,4.2h95.2c2.3,0,4.2-1.9,4.2-4.2v-56.2c0-2.3-1.9-4.2-4.2-4.2h-95.1c-2.3,0-4.2,1.9-4.2,4.2v11.1
	c0,0.6-0.5,1.1-1.1,1.1c-0.6,0-1.1-0.5-1.1-1.1v-11.1c0-3.5,2.9-6.4,6.4-6.4h95.1c3.5,0,6.4,2.9,6.4,6.4v56.1
	C283.8,327.8,280.9,330.7,277.3,330.7"/>
<path class="st9" d="M275.4,286c-0.5,0-0.9-0.4-0.9-0.9V275c0-2.4-2-4.4-4.4-4.4h-11.4c-0.5,0-0.9-0.4-0.9-0.9
	c0-0.5,0.4-0.9,0.9-0.9h11.4c3.4,0,6.1,2.7,6.1,6.1V285c0.1,0.5-0.2,0.9-0.7,1C275.5,286,275.4,286,275.4,286 M252.5,270.6h-7.9
	c-0.5,0-0.9-0.4-0.9-0.9c0-0.5,0.4-0.9,0.9-0.9c0,0,0,0,0,0h7.9c0.5,0,0.9,0.4,0.9,0.9C253.4,270.2,253,270.6,252.5,270.6
	 M232.8,300.6c4.2,5,1,7.2-3,7.2c-4,0-7.2-3.2-7.2-7.2c0-4,3.2-7.2,7.2-7.2C233.8,293.4,235.7,297,232.8,300.6"/>
<path class="st8" d="M229.8,294.5c-3.4,0-6.1,2.7-6.1,6.1s2.7,6.1,6.1,6.1l0,0c1.9,0,3.4-0.6,3.7-1.4s-0.1-2.3-1.6-4
	c-0.4-0.4-0.4-1,0-1.4c1.1-1.4,1.4-2.8,0.9-3.8C232.2,295,231,294.4,229.8,294.5 M229.8,308.9c-4.6,0-8.3-3.7-8.3-8.3
	c0-4.6,3.7-8.3,8.3-8.3c2.1-0.1,4,1,5,2.8c0.8,1.8,0.6,3.9-0.6,5.5c1.6,2.2,2.1,4.1,1.4,5.6C234.7,308,232.6,308.9,229.8,308.9
	 M228.7,290.2c-0.6,0-1.1-0.5-1.1-1.1c0-0.1,0-0.2,0.1-0.3c0.1-0.1,1-3.5,3.8-4.3c0.6-0.2,1.2,0.2,1.4,0.8c0,0,0,0,0,0
	c0.1,0.5-0.2,1.1-0.7,1.3c-1.6,0.5-2.3,2.7-2.3,2.8C229.7,289.9,229.2,290.2,228.7,290.2"/>
<path class="st10" d="M229.9,256c7.2,0,10.5-6.4,10.5-10.9v-7.9c0-0.2,0.1-0.3,0.2-0.4c0.6-0.3,1.2-0.7,1.7-1.1
	c-3.9,0.9-8,1.4-12,1.4c-3.9,0-7.7-0.5-11.5-1.3c0.2,0.1,0.4,0.3,0.6,0.4c0.1,0.1,0.2,0.2,0.2,0.4v8.5
	C219.5,249.5,222.3,256,229.9,256L229.9,256z"/>
<path class="st3" d="M33.4,276.1c0-19.7,21.2-35.6,47.4-35.6s47.4,16,47.4,35.6"/>
<path class="st6" d="M133.1,266v56.1c0,2.9-2.4,5.3-5.3,5.3H32.7c-2.9,0-5.3-2.4-5.3-5.3v-56.2c0-2.9,2.4-5.3,5.3-5.3h95.1
	C130.7,260.7,133.1,263.1,133.1,266"/>
<path class="st8" d="M27.5,295.2c-0.6,0-1.1-0.5-1.1-1.1V283c0-0.6,0.5-1.1,1.1-1.1c0.6,0,1.1,0.5,1.1,1.1v11
	C28.6,294.6,28.2,295.2,27.5,295.2C27.5,295.2,27.5,295.2,27.5,295.2"/>
<path class="st8" d="M127.8,328.6H32.7c-3.5,0-6.4-2.9-6.4-6.4v-21.3c0-0.6,0.5-1.1,1.1-1.1c0.6,0,1.1,0.5,1.1,1.1v21.3
	c0,2.3,1.9,4.2,4.2,4.2h95.2c2.3,0,4.2-1.9,4.2-4.2V266c0-2.3-1.9-4.2-4.2-4.2H32.7c-2.3,0-4.2,1.9-4.2,4.2v11
	c0,0.6-0.5,1.1-1.1,1.1s-1.1-0.5-1.1-1.1v-11c0-3.5,2.9-6.4,6.4-6.4h95.1c3.5,0,6.4,2.9,6.4,6.4v56.1
	C134.2,325.7,131.4,328.6,127.8,328.6"/>
<path class="st9" d="M125.9,283.9c-0.5,0-0.9-0.4-0.9-0.9v-10.1c0-2.4-2-4.4-4.4-4.4h-11.4c-0.5,0-0.9-0.4-0.9-0.9
	c0-0.5,0.4-0.9,0.9-0.9c0,0,0,0,0,0h11.4c3.4,0,6.1,2.7,6.1,6.1V283C126.7,283.4,126.4,283.8,125.9,283.9
	C126,283.9,125.9,283.9,125.9,283.9 M103,268.5h-7.9c-0.5,0-0.9-0.4-0.9-0.9c0-0.5,0.4-0.9,0.9-0.9h7.9c0.5,0,0.9,0.4,0.9,0.9
	C103.9,268.1,103.5,268.5,103,268.5 M83.3,298.5c4.2,5,1,7.2-3,7.2c-4,0-7.2-3.2-7.2-7.2c0-4,3.2-7.2,7.2-7.2
	C84.3,291.3,86.2,294.9,83.3,298.5"/>
<path class="st8" d="M80.3,292.4c-3.4,0-6.1,2.7-6.1,6.1s2.7,6.1,6.1,6.1c1.9,0,3.4-0.6,3.7-1.4s-0.1-2.3-1.6-4
	c-0.4-0.4-0.4-1,0-1.4c1.1-1.4,1.4-2.8,0.9-3.8C82.7,292.9,81.5,292.3,80.3,292.4 M80.3,306.8c-4.6,0-8.3-3.7-8.3-8.3
	c0-4.6,3.7-8.3,8.3-8.3c2.1-0.1,4,1,5,2.8c0.8,1.8,0.6,3.9-0.6,5.5c1.6,2.2,2.1,4.1,1.4,5.6C85.2,305.8,83.1,306.8,80.3,306.8
	 M79.2,288.1c-0.6,0-1.1-0.5-1.1-1.1c0-0.1,0-0.2,0.1-0.3c0.1-0.1,1-3.5,3.8-4.3c0.6-0.2,1.2,0.2,1.4,0.8c0,0,0,0,0,0
	c0.1,0.5-0.2,1.1-0.7,1.3c-1.6,0.5-2.3,2.7-2.3,2.8C80.2,287.8,79.7,288.1,79.2,288.1"/>
<path class="st11" d="M80.4,253.9c7.2,0,10.5-6.4,10.5-10.9v-7.9c0-0.2,0.1-0.3,0.2-0.4c0.6-0.3,1.2-0.7,1.7-1.1
	c-3.9,0.9-8,1.4-12,1.4c-3.9,0-7.7-0.5-11.5-1.3c0.2,0.1,0.4,0.3,0.6,0.4c0.1,0.1,0.2,0.2,0.2,0.4v8.5
	C70,247.4,72.8,253.9,80.4,253.9L80.4,253.9z"/>
<path class="st12" d="M262.2,200.5c0,3.3-2.2,6-4.8,6s-4.8-2.7-4.8-6c0-2.7,2.1-4.8,4.8-4.8C260,195.7,262.2,197.8,262.2,200.5
	C262.2,200.5,262.2,200.5,262.2,200.5z"/>
<path class="st5" d="M257.4,207.3c-3.1,0-5.6-3-5.6-6.8c0-3.5,2.2-5.7,5.6-5.7c3.4,0,5.6,2.2,5.6,5.7
	C263,204.2,260.5,207.3,257.4,207.3z M257.4,196.3c-2.6,0-4.1,1.6-4.1,4.2c0,2.9,1.8,5.2,4.1,5.2c2.3,0,4.1-2.4,4.1-5.2
	C261.4,197.9,259.9,196.3,257.4,196.3z"/>
<path class="st12" d="M207.8,200.5c0,3.3-2.2,6-4.8,6s-4.8-2.7-4.8-6c0-2.7,2.1-4.8,4.8-4.8S207.8,197.8,207.8,200.5L207.8,200.5z"
	/>
<path class="st5" d="M202.9,207.3c-3.1,0-5.6-3-5.6-6.8c0-3.5,2.2-5.7,5.6-5.7s5.6,2.2,5.6,5.7C208.5,204.2,206,207.3,202.9,207.3z
	 M202.9,196.3c-2.6,0-4.1,1.6-4.1,4.2c0,2.9,1.8,5.2,4.1,5.2s4.1-2.4,4.1-5.2C207,197.9,205.5,196.3,202.9,196.3z"/>
<path class="st4" d="M257.6,190.8c0,32.5-11.3,46.4-27.4,46.4s-27.9-13-27.9-46.4c0-20.1,11.7-24.3,27.9-24.3
	S257.6,170.8,257.6,190.8L257.6,190.8z"/>
<path class="st5" d="M230.1,238c-8.8,0-15.8-3.7-20.6-11c-5.3-8-8-20.1-8-36.2c0-22.1,14.5-25.1,28.6-25.1c14.6,0,28.2,3,28.2,25.1
	C258.3,221.2,248.3,238,230.1,238L230.1,238z M230.1,167.3c-9.1,0-15.3,1.4-19.5,4.5c-5.1,3.7-7.6,9.9-7.6,19
	c0,37.7,14.7,45.6,27.1,45.6c17.2,0,26.6-16.2,26.6-45.6C256.8,171.3,246.1,167.3,230.1,167.3L230.1,167.3z"/>
<path class="st13" d="M229.6,206.9c10.8,0,13.3,6.7,18.3,6.7s8.5-7.2,8.5-7.2s3.2,37-25.8,37s-26.9-36.6-26.9-36.6s1.4,6.7,7.6,6.7
	S217.9,206.9,229.6,206.9L229.6,206.9z"/>
<path class="st5" d="M230.5,244.3c-7.7,0-13.9-2.5-18.5-7.4c-5.3-5.6-7.5-13.5-8.4-19.1c-0.6-3.6-0.8-7.3-0.7-10.9
	c0-0.4,0.3-0.7,0.7-0.7c0,0,0,0,0,0c0.4,0,0.7,0.2,0.8,0.6c0.1,0.2,1.3,6.1,6.8,6.1c2.4,0,3.8-1.1,5.6-2.4c3.6-2.9,8.1-4.5,12.7-4.3
	c6.7,0,10.3,2.5,13.2,4.4c1.9,1.3,3.3,2.3,5.1,2.3c4.5,0,7.8-6.7,7.8-6.8c0.1-0.3,0.5-0.5,0.8-0.4c0.3,0.1,0.6,0.4,0.6,0.7
	c0.2,3.7,0.1,7.4-0.4,11.1c-0.8,5.7-2.8,13.7-8,19.4C244.3,241.8,238.1,244.3,230.5,244.3L230.5,244.3z M204.4,210.7
	c0.2,5.9,1.7,17.7,8.7,25.1c4.3,4.6,10.2,6.9,17.4,6.9s12.9-2.3,17.1-6.9c7.4-8.1,8.2-21.2,8.1-26.7c-1.5,2.3-4.3,5.3-7.8,5.3
	c-2.3,0-4-1.2-6-2.6c-3.5-2.8-7.8-4.3-12.3-4.2c-6.5,0-9.3,2.1-11.8,4c-1.9,1.4-3.7,2.7-6.5,2.7
	C208.5,214.4,205.9,213.1,204.4,210.7z"/>
<path class="st12" d="M239.7,219.3c-1.1,3.6-5.2,3.5-9.5,3.5s-9.5,0.5-10.5-3.2c-1.2-4.1,6.1-4.5,10.5-4.5S240.9,215.4,239.7,219.3z
	"/>
<path class="st5" d="M227.5,223.6c-3.6,0-7.6-0.3-8.6-3.8c-0.3-1-0.1-2.1,0.5-2.9c1.3-1.8,4.8-2.6,10.8-2.6c4.1,0,8.4,0.3,9.9,2.4
	c0.6,0.8,0.7,1.9,0.4,2.8c-1.3,4.1-5.7,4.1-10,4.1H227.5L227.5,223.6z M230.1,215.9c-6.7,0-8.9,1.1-9.6,2c-0.3,0.4-0.4,1-0.2,1.5
	c0.6,2.2,3.2,2.7,7.1,2.7h2.9c4.7,0,7.6-0.2,8.5-3c0.2-0.5,0.2-1-0.1-1.4C237.6,215.9,232,215.9,230.1,215.9L230.1,215.9z
	 M212.9,198.3c-0.2,0-0.4-0.1-0.6-0.3c-0.3-0.3-0.3-0.7,0-1c0,0,0.1-0.1,0.1-0.1c1.2-1,2.7-1.5,4.2-1.4c1.1,0,2.2,0.6,2.8,1.5
	c0.2,0.4,0.2,0.9-0.2,1.1c-0.4,0.2-0.9,0.2-1.1-0.2c-0.4-0.5-1-0.8-1.7-0.8c-1.1-0.1-2.2,0.3-3,1
	C213.3,198.2,213.1,198.3,212.9,198.3L212.9,198.3z M246.9,198.3c-0.2,0-0.4-0.1-0.5-0.2c-0.9-0.7-2-1.1-3.2-1
	c-0.8,0-1.6,0.4-2.2,0.9c-0.3,0.3-0.8,0.4-1.1,0.1c-0.3-0.3-0.4-0.8-0.1-1.1l0,0c0.8-0.9,2-1.4,3.3-1.4c1.6-0.1,3.1,0.4,4.3,1.4
	c0.3,0.3,0.3,0.8,0.1,1.1C247.3,198.2,247.1,198.3,246.9,198.3L246.9,198.3z"/>
<path class="st13" d="M222.8,151.1c10.2-2.8,21,4.2,25.9,10.6c4.1,5.3,9,3.8,12.8,9.6s1.3,16.6-1.5,21.2l-2.7,4.6
	c0,0-3.6-14.2-9.1-16.6s-5.3,3.4-17.5,2.4s-16.3-8.2-19.3-7.2s-2.5,6.3-5.1,11.5c-1.5,3.2-2.9,6.5-4,9.9c0,0-8.1-15.5-4.8-24.3
	c2.5-6.7,7.2-4.3,10.6-8.7S215.6,153.1,222.8,151.1L222.8,151.1z"/>
<path class="st5" d="M202.5,197.8c-0.3,0-0.5-0.2-0.7-0.4c-0.3-0.6-8.2-15.9-4.9-24.9c1.6-4.2,4-5.1,6.3-6c1.7-0.5,3.2-1.5,4.4-2.8
	c0.5-0.6,1-1.3,1.5-2c3.1-4.3,7.1-9.6,13.5-11.3c1.6-0.4,3.3-0.6,5-0.6c8.8,0,17.3,5.8,21.8,11.5c1.6,1.9,3.7,3.4,6,4.3
	c2.4,1.1,4.8,2.2,6.9,5.4c4.1,6.2,1.3,17.4-1.4,22l-2.7,4.6c-0.2,0.3-0.5,0.4-0.8,0.4c-0.3,0-0.6-0.3-0.6-0.6
	c-1-3.8-4.4-14.2-8.6-16.1c-0.6-0.3-1.4-0.5-2.1-0.5c-1.1,0.1-2.1,0.4-3,0.9c-2.9,1.5-6.2,2.3-9.5,2.2c-0.9,0-1.8,0-2.7-0.1
	c-5.5-0.4-10.7-2.4-15.2-5.6c-1.7-1.1-2.9-1.9-3.7-1.7c-1.4,0.4-1.9,2.3-2.5,5c-0.5,2.1-1.2,4.2-2.1,6.2c-1.5,3.2-2.9,6.4-4,9.8
	C203.1,197.6,202.8,197.7,202.5,197.8L202.5,197.8z M245.9,179.1c1,0,1.9,0.2,2.8,0.7c4.6,2,7.8,11.4,9,15.4l1.8-3
	c2.5-4.1,5.1-14.7,1.5-20.3c-1.5-2.2-3.7-3.9-6.2-4.8c-2.6-1-4.8-2.6-6.5-4.7c-4.1-5.3-12.3-10.9-20.6-10.9c-1.6,0-3.1,0.2-4.6,0.6
	c-5.9,1.6-9.6,6.6-12.6,10.7c-0.5,0.7-1,1.4-1.5,2c-1.3,1.6-3,2.7-5,3.3c-2.2,0.8-4.1,1.6-5.5,5.1c-2.5,6.8,2.1,17.9,4,22
	c0.7-1.8,1.9-4.9,3.4-8.2c0.9-1.9,1.5-3.9,2-5.9c0.7-2.9,1.4-5.3,3.5-6.1c0.3-0.1,0.5-0.1,0.8-0.1c1.3,0,2.5,0.8,4.2,2
	c4.2,3.1,9.3,4.9,14.5,5.3c0.9,0.1,1.7,0.1,2.6,0.1c3.1,0.1,6.1-0.6,8.8-2C243.4,179.5,244.6,179.1,245.9,179.1L245.9,179.1z"/>
<path class="st5" d="M229.8,208.9c-0.3,0-0.6,0-0.9-0.1c-1.2-0.2-2.3-0.9-2.9-1.9c-0.2-0.4,0-0.8,0.4-1c0.3-0.2,0.7,0,0.9,0.3
	c0.4,0.6,1,1,1.7,1.1c0.9,0.3,1.9,0,2.6-0.7c0.3-0.5,0.2-1.1-0.1-1.5c-1.1-1.7-2.9-7.5-2.4-9.4c0.1-0.4,0.6-0.6,0.9-0.4
	c0.3,0.1,0.5,0.5,0.5,0.8c-0.4,1.3,1.1,6.5,2.2,8.2c0.7,0.9,0.7,2.1,0.1,3.1C232.2,208.4,231,209,229.8,208.9L229.8,208.9z
	 M229.8,220.7c-1.9,0.1-3.7-0.6-4.9-2.1c-0.2-0.4-0.2-0.8,0.2-1.1c0.4-0.2,0.8-0.1,1.1,0.2c0.9,1,2.2,1.5,3.6,1.4
	c1.9,0,3.7-0.7,4.3-1.6c0.2-0.4,0.7-0.4,1.1-0.2s0.4,0.7,0.2,1.1C234.3,220,231.8,220.7,229.8,220.7L229.8,220.7z"/>
<path class="st12" d="M55.9,201.3c0,3.6-2.3,6.4-5.2,6.4s-5.2-2.9-5.2-6.4s2.3-5.3,5.2-5.3S55.9,197.7,55.9,201.3z"/>
<path class="st5" d="M50.7,208.5c-3.3,0-6-3.3-6-7.3c-0.2-3.1,2.1-5.9,5.3-6.1c0.2,0,0.5,0,0.7,0c3.1-0.2,5.8,2.2,6,5.4
	c0,0.2,0,0.5,0,0.7C56.7,205.3,54,208.5,50.7,208.5z M50.7,196.8c-2.3-0.2-4.2,1.5-4.4,3.8c0,0.2,0,0.5,0,0.7c0,3.1,2,5.6,4.4,5.6
	s4.4-2.5,4.4-5.6C55,198.5,53.4,196.8,50.7,196.8z"/>
<path class="st4" d="M69.8,237.4c-9.1-3.2-12.9-12.4-16.3-25.3c-2-7.1-3-14.5-2.8-21.9c0-22.5,11.6-30.7,30.1-30.7
	s30.9,4.7,30.9,27.2c0,33.7-11,53.4-30.9,53.4"/>
<path class="st5" d="M80.8,240.9c-0.4,0-0.8-0.4-0.8-0.8s0.4-0.8,0.8-0.8c19.1,0,30.1-19.2,30.1-52.6c0-21.9-12-26.4-30.1-26.4
	c-9.6,0-16.6,2.2-21.4,6.7c-5.2,4.9-7.9,12.7-7.9,23.2c-0.2,7.3,0.8,14.6,2.8,21.7c4.6,17.6,9.5,22.5,15.8,24.7
	c0.4,0.2,0.7,0.6,0.5,1s-0.6,0.7-1,0.5c-9.2-3.2-13.3-12.3-16.8-25.8c-2-7.2-3-14.6-2.8-22.1c0-21.2,10.1-31.6,30.9-31.6
	c16.5,0,31.8,3.4,31.8,28C112.5,221.1,100.9,240.9,80.8,240.9L80.8,240.9z"/>
<path class="st5" d="M81.1,211.2c-0.3,0-0.7,0-1-0.1c-1.4-0.2-2.5-1-3.2-2.2c-0.2-0.4,0-0.9,0.4-1.1c0.4-0.2,0.8,0,1,0.3
	c0.4,0.7,1.2,1.2,2,1.3c1.4,0.2,2.5-0.1,3-0.8c0.3-0.6,0.3-1.3-0.1-1.9c-1.2-2-3.3-8.7-2.7-11c0.1-0.4,0.6-0.7,1-0.6
	c0.4,0.1,0.7,0.6,0.6,1c-0.4,1.6,1.3,7.8,2.5,9.8c0.7,1.1,0.8,2.5,0.1,3.6C83.9,210.7,82.5,211.3,81.1,211.2z M64.5,196.1
	c-0.2,0-0.4-0.1-0.6-0.2c-0.3-0.3-0.3-0.9,0-1.2c1-1.1,2.5-1.7,4-1.6c1.2,0.1,2.2,0.7,2.8,1.7c0.3,0.4,0.2,0.9-0.2,1.1
	s-0.9,0.2-1.1-0.2c0,0-0.1-0.1-0.1-0.1c-0.3-0.6-0.9-0.9-1.6-0.9c-1-0.1-2,0.3-2.7,1.1C64.9,196,64.7,196.1,64.5,196.1L64.5,196.1z
	 M97,196.1c-0.2,0-0.4-0.1-0.6-0.3c-0.7-0.8-1.8-1.2-2.9-1.1c-0.8,0-1.6,0.4-2.1,1c-0.3,0.4-0.8,0.5-1.2,0.2
	c-0.4-0.3-0.5-0.8-0.2-1.2l0,0c0.8-1,2-1.7,3.3-1.7c1.5-0.1,3,0.5,4.1,1.6c0.3,0.3,0.3,0.9,0,1.2C97.5,196,97.3,196.1,97,196.1z
	 M80.4,221.6c-1.8,0.1-3.6-0.7-4.8-2.1c-0.2-0.4-0.2-0.9,0.2-1.1c0.4-0.2,0.9-0.2,1.1,0.2l0,0c0.6,0.9,2,1.4,3.7,1.3
	s3.5-0.8,4.1-1.8c0.2-0.4,0.7-0.6,1.1-0.4s0.6,0.7,0.4,1.1c0,0,0,0.1-0.1,0.1c-0.9,1.5-3,2.5-5.5,2.6
	C80.6,221.6,80.5,221.6,80.4,221.6L80.4,221.6z"/>
<path class="st12" d="M108.9,209.5c4.4,0.3,7.4-3.9,7.6-7.7s-3.5-5.2-6.5-4.9"/>
<path class="st5" d="M109.4,210.3h-0.5c-0.5,0-0.8-0.4-0.8-0.9c0-0.5,0.4-0.8,0.9-0.8c1.5,0.1,3-0.4,4.1-1.4
	c1.6-1.4,2.5-3.4,2.7-5.5c0.1-1-0.3-2.1-1-2.8c-1.2-1.1-2.9-1.5-4.5-1.2c-0.4,0-0.8-0.3-0.8-0.8c0-0.4,0.3-0.7,0.6-0.8
	c2.1-0.3,4.3,0.3,5.9,1.7c1.1,1,1.7,2.5,1.6,4c-0.2,2.5-1.3,4.9-3.2,6.6C113,209.6,111.2,210.3,109.4,210.3z"/>
<path class="st14" d="M110.8,197c4-11.2,4.7-23.3,2.1-34.9c-0.8-3.5-2-6.9-3.7-10c-5.7,1.3-7.3-2.1-22.7-4.2
	c-11.1-1.5-16.2,2-18.1,4.1c0,0-3.6-1.8-10.9,1.4c-6.6,2.9-12.3,10.5-8.3,34.3c0.8,6.2,2.3,12.4,4.4,18.3c0,0-1.5-18.9,1.5-26.4
	c0.1-0.4,0.3-0.7,0.5-1l1.5-2.2c4.1-4.7,11.7-5.4,14.6-2.6c3.4,3.3,9.2,2.9,9.2,2.9s5.8,0.4,9.2-2.9s13.6-1.7,16.5,5.8
	s1.5,26.4,1.5,26.4C109.2,203.1,110.1,200,110.8,197L110.8,197z"/>
</svg>
