<svg version="1.1" id="Layer_1" xmlns="http://www.w3.org/2000/svg" xmlns:xlink="http://www.w3.org/1999/xlink" x="0" y="0" viewBox="0 0 500 500" style="enable-background:new 0 0 500 500" xml:space="preserve"><style>.st0{opacity:.1}.st1{fill:#fff}.st2{fill:#e2e2e2}.st3{fill:#ffcbb7}.st4{fill:#5b5b74}.st5{fill:#fcd7cd}.st6{fill:#f39200}.st7{fill:#4fc1ea}.st11{opacity:.3;fill:#444;enable-background:new}</style><path d="M250 189c33.6 0 61 27.4 61 61s-27.4 61-61 61-61-27.4-61-61 27.4-61 61-61m0-1c-34.2 0-62 27.8-62 62s27.8 62 62 62 62-27.8 62-62-27.8-62-62-62z" class="st0"/><path d="M250 117c35.5 0 68.9 13.8 94 39 25.1 25.1 39 58.5 39 94s-13.8 68.9-39 94c-25.1 25.1-58.5 39-94 39s-68.9-13.8-94-39c-25.1-25.1-39-58.5-39-94s13.8-68.9 39-94c25.1-25.2 58.5-39 94-39m0-1c-74 0-134 60-134 134s60 134 134 134 134-60 134-134-60-134-134-134z" class="st0"/><path d="M250 50c27 0 53.2 5.3 77.8 15.7 23.8 10.1 45.2 24.5 63.6 42.9s32.8 39.8 42.9 63.6C444.7 196.8 450 223 450 250s-5.3 53.2-15.7 77.8c-10.1 23.8-24.5 45.2-42.9 63.6s-39.8 32.8-63.6 42.9C303.2 444.7 277 450 250 450s-53.2-5.3-77.8-15.7c-23.8-10.1-45.2-24.5-63.6-42.9s-32.8-39.8-42.9-63.6C55.3 303.2 50 277 50 250s5.3-53.2 15.7-77.8c10.1-23.8 24.5-45.2 42.9-63.6s39.8-32.8 63.6-42.9C196.8 55.3 223 50 250 50m0-1C139 49 49 139 49 250s90 201 201 201 201-90 201-201S361 49 250 49z" class="st0"/><image style="overflow:visible;opacity:.12;enable-background:new" width="127" height="127" xlink:href="F6498E95.png" transform="translate(54 41)"/><circle class="st1" cx="115.5" cy="97.5" r="39"/><path class="st2" d="M115.5 59c21.2 0 38.5 17.3 38.5 38.5S136.7 136 115.5 136 77 118.7 77 97.5 94.3 59 115.5 59m0-1C93.7 58 76 75.7 76 97.5S93.7 137 115.5 137 155 119.3 155 97.5 137.3 58 115.5 58z"/><image style="overflow:visible;opacity:.12;enable-background:new" width="99" height="99" xlink:href="F6498E97.png" transform="translate(223 337)"/><circle class="st1" cx="270.5" cy="379.5" r="25"/><path class="st2" d="M270.5 355c13.5 0 24.5 11 24.5 24.5S284 404 270.5 404 246 393 246 379.5s11-24.5 24.5-24.5m0-1c-14.1 0-25.5 11.4-25.5 25.5s11.4 25.5 25.5 25.5 25.5-11.4 25.5-25.5-11.4-25.5-25.5-25.5z"/><image style="overflow:visible;opacity:.12;enable-background:new" width="99" height="99" xlink:href="F6498E92.png" transform="translate(223 12)"/><circle class="st1" cx="270.5" cy="54.5" r="25"/><path class="st2" d="M270.5 30C284 30 295 41 295 54.5S284 79 270.5 79 246 68 246 54.5 257 30 270.5 30m0-1C256.4 29 245 40.4 245 54.5S256.4 80 270.5 80 296 68.6 296 54.5 284.6 29 270.5 29z"/><image style="overflow:visible;opacity:.12;enable-background:new" width="113" height="113" xlink:href="F6498E93.png" transform="translate(143 179)"/><circle class="st1" cx="197.5" cy="228.5" r="32"/><path class="st2" d="M197.5 197c17.4 0 31.5 14.1 31.5 31.5S214.9 260 197.5 260 166 245.9 166 228.5s14.1-31.5 31.5-31.5m0-1c-17.9 0-32.5 14.6-32.5 32.5s14.6 32.5 32.5 32.5 32.5-14.6 32.5-32.5-14.6-32.5-32.5-32.5z"/><image style="overflow:visible;opacity:.12;enable-background:new" width="114" height="113" xlink:href="F6498E9D.png" transform="translate(364.752 305.25) scale(.9956)"/><circle class="st1" cx="419.5" cy="354.5" r="32"/><path class="st2" d="M419.5 323c17.4 0 31.5 14.1 31.5 31.5S436.9 386 419.5 386 388 371.9 388 354.5s14.1-31.5 31.5-31.5m0-1c-17.9 0-32.5 14.6-32.5 32.5s14.6 32.5 32.5 32.5 32.5-14.6 32.5-32.5-14.6-32.5-32.5-32.5z"/><image style="overflow:visible;opacity:.12;enable-background:new" width="128" height="127" xlink:href="F6498E9F.png" transform="translate(53.752 344.25) scale(.9961)"/><circle class="st1" cx="115.5" cy="400.5" r="39"/><path class="st2" d="M115.5 362c21.2 0 38.5 17.3 38.5 38.5S136.7 439 115.5 439 77 421.7 77 400.5 94.3 362 115.5 362m0-1C93.7 361 76 378.7 76 400.5S93.7 440 115.5 440s39.5-17.7 39.5-39.5-17.7-39.5-39.5-39.5z"/><image style="overflow:visible;opacity:.12;enable-background:new" width="135" height="135" xlink:href="F6498E90.png" transform="translate(295 116)"/><circle class="st1" cx="360.5" cy="176.5" r="43"/><path class="st2" d="M360.5 134c23.4 0 42.5 19.1 42.5 42.5S383.9 219 360.5 219 318 199.9 318 176.5s19.1-42.5 42.5-42.5m0-1c-24 0-43.5 19.5-43.5 43.5s19.5 43.5 43.5 43.5 43.5-19.5 43.5-43.5-19.5-43.5-43.5-43.5z"/><path class="st3" d="M134.4 98.1c0 2-1.3 3.6-2.9 3.6s-2.9-1.6-2.9-3.6 1.3-2.9 2.9-2.9 2.9.9 2.9 2.9z"/><path class="st4" d="M131.6 102.1c-1.8 0-3.3-1.8-3.3-4 0-2.1 1.3-3.4 3.3-3.4s3.3 1.3 3.3 3.4c0 2.2-1.5 4-3.3 4zm0-6.5c-1.5 0-2.4.9-2.4 2.5 0 1.7 1.1 3.1 2.4 3.1s2.4-1.4 2.4-3.1c0-1.6-.9-2.5-2.4-2.5z"/><path class="st3" d="M102.2 98.1c0 2-1.3 3.6-2.9 3.6s-2.9-1.6-2.9-3.6 1.3-2.9 2.9-2.9c1.6-.1 2.9.9 2.9 2.9z"/><path class="st4" d="M99.3 102.1c-1.8 0-3.3-1.8-3.3-4 0-2.1 1.3-3.4 3.3-3.4s3.3 1.3 3.3 3.4c0 2.2-1.5 4-3.3 4zm0-6.5c-1.5 0-2.4.9-2.4 2.5 0 1.7 1.1 3.1 2.4 3.1s2.4-1.4 2.4-3.1c0-1.6-.9-2.5-2.4-2.5z"/><path class="st5" d="M131.7 92.3c0 19.2-6.7 27.5-16.2 27.5S99 112.1 99 92.3c0-11.9 6.9-14.4 16.5-14.4s16.2 2.6 16.2 14.4z"/><path class="st4" d="M115.4 120.3c-5.2 0-9.3-2.2-12.2-6.5-3.1-4.7-4.7-11.9-4.7-21.4 0-13.1 8.6-14.8 17-14.8 8.7 0 16.7 1.8 16.7 14.8-.1 18-6 27.9-16.8 27.9zm0-41.9c-5.4 0-9.1.8-11.6 2.7-3 2.2-4.5 5.9-4.5 11.3 0 22.4 8.7 27 16.1 27 10.2 0 15.8-9.6 15.8-27 0-11.6-6.3-14-15.8-14z"/><path class="st6" d="M115.1 101.9c6.4 0 7.9 4 10.8 4 3 0 5-4.3 5-4.3s1.9 21.9-15.3 21.9-15.9-21.7-15.9-21.7.8 4 4.5 4 4-3.9 10.9-3.9z"/><path class="st4" d="M115.7 124c-4.5 0-8.2-1.5-11-4.4-3.2-3.3-4.5-8-5-11.3-.6-3.6-.4-6.3-.4-6.4 0-.2.2-.4.4-.4s.4.1.5.4c0 .1.8 3.6 4 3.6 1.4 0 2.3-.6 3.3-1.4 1.5-1.1 3.4-2.5 7.6-2.5 4 0 6.1 1.5 7.8 2.6 1.1.8 2 1.4 3 1.4 2.7 0 4.6-4 4.6-4 .1-.2.3-.3.5-.2.2 0 .4.2.4.4 0 .1.2 2.9-.2 6.6-.5 3.4-1.6 8.1-4.7 11.5-2.7 2.6-6.3 4.1-10.8 4.1zm-15.5-19.9c.1 3.5 1 10.5 5.2 14.9 2.6 2.7 6 4.1 10.3 4.1 4.2 0 7.6-1.4 10.1-4.1 4.4-4.8 4.8-12.6 4.8-15.9-.9 1.3-2.6 3.2-4.7 3.2-1.4 0-2.4-.7-3.6-1.5-1.6-1.1-3.6-2.5-7.3-2.5-3.8 0-5.5 1.3-7 2.4-1.1.8-2.2 1.6-3.9 1.6-1.9 0-3.2-1.1-3.9-2.2z"/><path class="st3" d="M121.1 109.2c-.7 2.1-3.1 2.1-5.7 2.1s-5.6.3-6.2-1.9c-.7-2.4 3.6-2.7 6.2-2.7s6.4.2 5.7 2.5z"/><path class="st4" d="M113.9 111.8c-2.2 0-4.5-.2-5.1-2.2-.2-.6-.1-1.2.3-1.7.8-1.1 2.8-1.5 6.4-1.5 2.4 0 5 .2 5.9 1.4.2.3.5.9.2 1.7-.8 2.4-3.4 2.4-5.9 2.4h-1c-.3-.1-.6-.1-.8-.1zm1.5-4.6c-4 0-5.3.6-5.7 1.2-.2.2-.2.5-.1.9.4 1.3 1.9 1.6 4.2 1.6h1.8c2.8 0 4.5-.1 5-1.8.1-.5 0-.7-.1-.9-.7-1-4-1-5.1-1zM105.2 96.8c-.1 0-.2-.1-.3-.1-.2-.2-.2-.5 0-.6.7-.6 1.6-.9 2.5-.8.7.1 1.3.4 1.7.9.1.2.1.5-.1.6s-.5.1-.6-.1c-.2-.3-.6-.5-1-.5-.6-.1-1.3.2-1.8.6-.2-.1-.3 0-.4 0zM125.4 96.8c-.1 0-.2 0-.3-.1-.5-.4-1.2-.7-1.9-.6-.6 0-1 .2-1.3.6-.2.2-.5.2-.6 0-.2-.2-.2-.5 0-.6.4-.5 1.1-.8 1.9-.9.9-.1 1.9.3 2.5.8.2.2.2.5 0 .6-.1.1-.2.2-.3.2z"/><path class="st6" d="M111.1 68.8c6.1-1.6 12.4 2.5 15.4 6.3 2.5 3.1 5.4 2.3 7.6 5.7s.8 9.8-.9 12.5l-1.6 2.7s-2.1-8.4-5.4-9.8c-3.2-1.4-3.2 2-10.4 1.4-7.2-.6-9.7-4.8-11.4-4.3-1.7.6-1.5 3.7-3 6.8C99.9 93.3 99 96 99 96s-4.8-9.2-2.9-14.4c1.5-4 4.3-2.6 6.3-5.1 2.1-2.5 4.4-6.5 8.7-7.7z"/><path class="st4" d="M99 96.5c-.2 0-.3-.1-.4-.2-.2-.4-4.9-9.4-2.9-14.8.9-2.5 2.4-3 3.8-3.6.9-.4 1.8-.7 2.6-1.7l.9-1.2c1.9-2.5 4.2-5.7 8-6.7.9-.3 1.9-.4 2.9-.4 5.2 0 10.3 3.4 12.9 6.8 1.1 1.4 2.3 2 3.5 2.5 1.4.6 2.8 1.3 4.1 3.2 2.4 3.7.8 10.3-.9 13l-1.6 2.7c-.1.2-.3.2-.5.2s-.3-.2-.4-.3c-.6-2.3-2.6-8.4-5.1-9.5-.5-.2-.9-.3-1.3-.3-.6 0-1.1.2-1.8.6-1.1.5-2.7 1.3-5.6 1.3-.5 0-1 0-1.6-.1-4.5-.4-7.2-2.1-9-3.3-1-.7-1.7-1.1-2.2-1-.8.3-1.1 1.4-1.5 2.9-.3 1.1-.6 2.4-1.2 3.7-1.5 3.1-2.4 5.8-2.4 5.8.1.3-.1.4-.3.4.1 0 0 0 0 0zm25.7-11.1c.5 0 1 .1 1.6.4 2.7 1.2 4.6 6.8 5.3 9.1l1.1-1.8c1.5-2.4 3.1-8.7.9-12.1-1.1-1.7-2.4-2.3-3.7-2.9s-2.6-1.2-3.9-2.8c-2.4-3.1-7.3-6.5-12.2-6.5-.9 0-1.8.1-2.7.4-3.5.9-5.7 3.9-7.5 6.3l-.9 1.2c-.9 1.2-2 1.6-3 2-1.3.5-2.4.9-3.2 3-1.5 4 1.2 10.6 2.4 13.1.4-1.1 1.1-2.9 2-4.9.6-1.2.9-2.4 1.2-3.5.4-1.7.8-3.2 2.1-3.6.2 0 .3-.1.5-.1.7 0 1.5.5 2.5 1.2 1.7 1.1 4.3 2.8 8.6 3.2.5 0 1 .1 1.5.1 2.7 0 4.1-.7 5.2-1.2.8-.3 1.5-.6 2.2-.6z"/><path class="st4" d="M115.2 103h-.5c-1.2-.2-1.7-1.1-1.7-1.1-.1-.2 0-.5.2-.6s.5 0 .6.2c0 0 .3.5 1 .6s1.3-.1 1.5-.4c.2-.2.1-.6-.1-.9-.6-1-1.7-4.4-1.4-5.6.1-.2.3-.4.6-.3.2.1.4.3.3.6-.2.8.7 3.9 1.3 4.9.4.6.4 1.3.1 1.9-.4.4-1 .7-1.9.7zM115.3 110.1c-1.3 0-2.3-.5-2.9-1.2-.1-.2-.1-.5.1-.6s.5-.1.6.1c.4.5 1.2.8 2.1.8 1.1 0 2.2-.4 2.6-1 .1-.2.4-.3.6-.1.2.1.3.4.1.6-.6.9-2.1 1.4-3.2 1.4zM105.8 79.9s.1.1.3.2c.1.1.2.1.3.2.1.1.2.2.4.3.1.1.3.2.4.3.2.1.3.2.5.3.2.1.4.2.5.3.2.1.4.2.5.3.2.1.4.2.5.3.2.1.4.2.5.3.1.1.2.1.3.2.1 0 .2.1.3.1.2.1.3.2.5.3.1.1.3.2.4.2.1.1.2.1.3.2.2.1.3.2.3.2h-.7c-.1 0-.3 0-.5-.1-.2 0-.4-.1-.5-.1s-.2-.1-.3-.1c-.1 0-.2-.1-.3-.1l-.6-.3-.6-.3c-.2-.1-.4-.3-.6-.4s-.4-.3-.5-.4l-.4-.4-.4-.4c-.1-.1-.2-.3-.3-.4-.1-.1-.1-.2-.2-.3-.1-.3-.1-.4-.1-.4zM129.2 86.4s-.1-.1-.1-.2-.1-.1-.1-.2-.1-.2-.2-.3c-.1-.1-.1-.2-.2-.3-.1-.1-.1-.2-.2-.3-.1-.1-.1-.2-.2-.4-.1-.1-.1-.2-.2-.4-.1-.1-.1-.2-.2-.4-.1-.1-.1-.2-.2-.3-.1-.1-.1-.2-.2-.3-.1-.1-.1-.2-.2-.3-.1-.1-.1-.2-.2-.3-.1-.1-.1-.1-.1-.2-.1-.1-.1-.2-.1-.2s.1 0 .2.1c.1 0 .2 0 .2.1 0 0 .1 0 .1.1l.1.1c.1.1.2.1.3.2l.3.3c.1.1.2.2.3.4.1.1.2.3.3.4.1.3.3.6.4.8 0 .1.1.3.1.4v1c.1.1.1.2.1.2z"/><path class="st5" d="M354.3 200.8c-6-2.1-8.5-8.2-10.7-16.6-1.3-4.9-1.8-8.2-1.8-14.4 0-14.7 7.6-20.1 19.7-20.1s20.3 3.1 20.3 17.8c0 22.1-7.2 35-20.3 35"/><path class="st4" d="M361.5 203.1c-.3 0-.5-.2-.5-.5s.2-.5.5-.5c12.5 0 19.7-12.6 19.7-34.5 0-14.3-7.9-17.3-19.7-17.3-6.3 0-10.9 1.4-14 4.4-3.4 3.2-5.1 8.3-5.1 15.2 0 6.2.6 9.5 1.8 14.2 3 11.5 6.2 14.8 10.3 16.2.3.1.4.4.3.7s-.4.4-.7.3c-6-2.1-8.7-8-11-16.9-1.3-4.8-1.9-8.2-1.9-14.5 0-13.9 6.6-20.7 20.3-20.7 10.8 0 20.8 2.2 20.8 18.4 0 22.6-7.6 35.5-20.8 35.5z"/><path class="st4" d="M361.7 183.6h-.7c-1.5-.2-2.1-1.4-2.1-1.4-.1-.3 0-.6.2-.7.3-.1.6 0 .7.2 0 0 .4.7 1.3.9.9.1 1.6-.1 1.9-.5.2-.3.2-.8-.1-1.2-.8-1.3-2.2-5.7-1.8-7.2.1-.3.4-.5.7-.4.3.1.5.4.4.7-.3 1 .8 5.1 1.7 6.4.5.8.5 1.7.1 2.4-.4.5-1.2.8-2.3.8zM350.8 173.7c-.1 0-.3 0-.4-.1-.2-.2-.2-.5 0-.8.7-.8 1.7-1.1 2.6-1.1.8.1 1.5.5 1.9 1.1.2.3.1.6-.2.7-.3.2-.6.1-.7-.2-.2-.3-.6-.6-1-.6-.6-.1-1.3.2-1.8.7-.1.3-.2.3-.4.3zM372.2 173.7c-.1 0-.3-.1-.4-.2-.5-.5-1.2-.8-1.9-.7-.6 0-1.1.3-1.4.7-.2.2-.5.3-.8.1-.2-.2-.3-.5-.1-.8.5-.6 1.3-1 2.2-1.1 1-.1 2 .3 2.7 1.1.2.2.2.6 0 .8-.1.1-.2.1-.3.1zM361.2 190.4c-1.4 0-2.6-.5-3.1-1.4-.2-.2-.1-.6.1-.8s.6-.1.8.1c.4.6 1.3.9 2.4.9 1.2 0 2.3-.5 2.7-1.2.1-.3.5-.3.7-.2.3.2.3.5.2.7-.6 1-2 1.6-3.6 1.7 0 .2-.1.2-.2.2z"/><path class="st3" d="M343.6 182.6c-2.8-.2-4.4-3.1-4.2-5.5.3-2.4 2.8-3 4.7-2.5"/><path class="st4" d="M343.6 183.2s-.1 0 0 0c-1.4-.1-2.5-.7-3.4-1.8-1-1.2-1.5-2.8-1.3-4.3.1-1.1.6-1.9 1.4-2.5 1-.7 2.5-.9 3.9-.5.3.1.5.4.4.7s-.4.5-.7.4c-1.1-.3-2.2-.2-3 .3-.6.4-.9 1-1 1.7-.1 1.2.3 2.6 1.1 3.5.5.6 1.3 1.3 2.6 1.4.3 0 .5.3.5.6 0 .2-.2.5-.5.5z"/><path class="st3" d="M379.9 182.5c2.9.2 4.9-2.6 5-5s-2.3-3.4-4.3-3.2"/><path class="st4" d="M380.2 183.1h-.4c-.3 0-.5-.3-.5-.6s.3-.5.6-.5c1.2.1 2.1-.5 2.7-.9 1-.9 1.7-2.2 1.7-3.6 0-.7-.2-1.3-.7-1.8-.7-.6-1.8-1-3-.8-.3 0-.6-.2-.6-.5s.2-.6.5-.6c1.5-.2 2.9.2 3.8 1.1.7.7 1.1 1.6 1 2.7-.1 1.6-.9 3.3-2.1 4.3-.8.8-1.8 1.2-3 1.2z"/><path class="st7" d="M345 175.2c-2.5 5.8 2.1 20.9 3 21.6 3.1 2.5-13.7-1.9-15.9-7.6-3.2-8.3 6.8-33.1 14.7-37.4 2.5-1.3 9.4-9 20.5-5.4 10.2 3.3 15.8 7.9 19.8 16.2s8.7 25.1 5 29.1c-3.6 4-19.2 7.2-17.1 3.6 3.8-6.8 2.4-18.9 2.4-23.9 0-4.7-7.1-5.1-12.9-7-6.5-2.2-14-5-14-5s-3.1 10.4-5.5 15.8z"/><path class="st4" d="M347.8 198c-2.7 0-14.3-3.7-16.2-8.6-1.8-4.7.4-13.7 3.2-20.6 4.2-10.4 8.8-15.9 11.8-17.5.4-.2.9-.6 1.6-1.1 2.6-2 7.1-5.3 13.4-5.3 2 0 4 .3 6 1 10.3 3.3 16.1 8.1 20.1 16.5 2.1 4.5 4.3 10.9 5.4 16.3 1 4.8 1.8 11-.5 13.5-2.7 3-11.2 5.3-15.3 5.3-1.5 0-2.4-.3-2.8-.9-.2-.3-.3-.8.1-1.5 3-5.4 2.7-14.3 2.4-20.2-.1-1.4-.1-2.5-.1-3.5 0-3.2-3.9-4.2-8.3-5.3-1.4-.4-2.9-.7-4.2-1.2-5.4-1.8-11.7-4.1-13.5-4.8-.7 2.2-3.2 10.7-5.3 15.3-2.4 5.4 2 20 2.9 21 .2.1.7.6.5 1.1-.3.5-1 .5-1.2.5zm13.7-52c-5.9 0-10.2 3.2-12.7 5.1-.7.5-1.3.9-1.7 1.2-3.5 1.9-8 8.6-11.3 16.9-3.4 8.4-4.6 16.2-3.2 19.8 1.6 4 11.7 7.7 14.9 7.9-.8-1.2-2-5.4-2.8-9-.9-4.2-1.6-9.8-.2-13 2.3-5.3 5.3-15.7 5.4-15.8 0-.1.1-.3.3-.3.1-.1.3-.1.4 0 .1 0 7.6 2.9 14 5 1.3.4 2.8.8 4.2 1.2 4.7 1.2 9.2 2.4 9.2 6.4 0 .9 0 2.1.1 3.4.3 6 .6 15.1-2.5 20.8-.1.2-.1.3-.1.4.1.1.6.4 1.8.4 4.3 0 12.2-2.5 14.5-5 3.2-3.6-.8-19.5-5.1-28.5-3.9-8.2-9.4-12.7-19.5-15.9-2-.7-3.9-1-5.7-1z"/><path class="st5" d="M108.8 425c-5.4-1.9-7.6-7.3-9.6-14.9-1.2-4.4-1.7-7.4-1.7-12.9 0-13.2 6.8-18.1 17.7-18.1s18.2 2.8 18.2 16c0 19.8-6.5 31.5-18.2 31.5"/><path class="st4" d="M115.3 427c-.3 0-.5-.2-.5-.5s.2-.5.5-.5c11.3 0 17.7-11.3 17.7-31 0-12.9-7.1-15.5-17.7-15.5-5.6 0-9.8 1.3-12.6 4-3.1 2.9-4.6 7.5-4.6 13.7 0 5.6.5 8.6 1.6 12.8 2.7 10.4 5.6 13.3 9.3 14.6.3.1.4.4.3.6-.1.3-.4.4-.6.3-5.4-1.9-7.8-7.2-9.9-15.2-1.1-4.3-1.7-7.4-1.7-13.1 0-12.5 6-18.6 18.2-18.6 9.7 0 18.7 2 18.7 16.5 0 20.3-6.8 31.9-18.7 31.9z"/><path class="st4" d="M115.5 409.5h-.6c-1.3-.2-1.9-1.2-1.9-1.3-.1-.2 0-.5.2-.7.2-.1.5 0 .7.2 0 0 .4.7 1.2.8.8.1 1.5-.1 1.8-.5.2-.3.2-.7-.1-1.1-.7-1.2-2-5.1-1.6-6.5.1-.3.3-.4.6-.3.3.1.4.3.3.6-.3.9.8 4.6 1.5 5.7.4.7.5 1.5.1 2.1-.5.6-1.3 1-2.2 1zM105.7 400.6c-.1 0-.2 0-.3-.1-.2-.2-.2-.5 0-.7.6-.7 1.5-1 2.4-.9.7.1 1.3.4 1.7 1 .1.2.1.5-.1.7-.2.1-.5.1-.7-.1-.2-.3-.5-.5-.9-.5-.6-.1-1.1.2-1.6.6-.3-.1-.4 0-.5 0zM124.9 400.6c-.1 0-.3 0-.4-.1-.4-.5-1.1-.7-1.7-.7-.5 0-1 .2-1.2.6-.2.2-.5.3-.7.1-.2-.2-.3-.5-.1-.7.4-.6 1.1-.9 1.9-1 .9-.1 1.8.3 2.4 1 .2.2.2.5 0 .7 0 0-.1.1-.2.1zM115 415.6c-1.3 0-2.3-.4-2.8-1.2-.2-.2-.1-.5.1-.7s.5-.1.7.1c.4.5 1.2.8 2.2.8 1.1 0 2.1-.5 2.4-1.1.1-.2.4-.3.7-.2.2.1.3.4.2.7-.5.9-1.8 1.5-3.2 1.5-.1.1-.2.1-.3.1z"/><path class="st3" d="M99.2 408.6c-2.5-.2-4-2.8-3.8-5s2.5-2.7 4.2-2.2"/><path class="st4" d="M99.2 409.1s-.1 0 0 0c-1.2-.1-2.3-.7-3.1-1.6-.9-1.1-1.3-2.5-1.2-3.9.1-1 .6-1.7 1.3-2.2.9-.6 2.3-.8 3.5-.4.3.1.4.3.3.6s-.3.4-.6.3c-1-.3-2-.2-2.7.3-.5.3-.8.9-.9 1.5-.1 1.1.3 2.3 1 3.2.4.5 1.2 1.2 2.4 1.3.3 0 .5.3.4.5 0 .2-.2.4-.4.4z"/><path class="st3" d="M131.8 408.5c2.6.2 4.4-2.3 4.5-4.5s-2-3.1-3.8-2.9"/><path class="st4" d="M132.1 409h-.3c-.3 0-.5-.3-.4-.5 0-.3.3-.5.5-.4 1.1.1 1.9-.4 2.4-.8.9-.8 1.5-2 1.6-3.2 0-.7-.2-1.2-.6-1.6-.6-.6-1.7-.9-2.7-.7-.3 0-.5-.2-.5-.4 0-.3.2-.5.4-.5 1.3-.2 2.6.2 3.5 1 .7.6 1 1.4.9 2.4-.1 1.5-.8 2.9-1.9 3.9-.9.4-1.9.8-2.9.8z"/><path d="M103 386.1c2.5 2.7 7 6.3 17.4 7 4.7.3 7.8-.4 9.5 1.6 2.2 2.6 2.5 6.8 2.3 9.1-.1 1 3.6-3.4 3.6-3.4-1.5-2.4 1.6-7.6.7-14.6-.4-2.9-6.5-9.4-15-11.6-10.7-2.7-16.5 2.5-19.4 5.1-2.2 2-5.1 1-7.3 5.8-2 4.3 1.3 12.4.8 14.8-.2 1.1.8.8 3.1 3.6.9 1.1 1-3.4 1.2-6.1.4-2.6 3.1-11.3 3.1-11.3z" style="fill:#68bb88"/><path class="st4" d="M132.3 404.5c-.2 0-.3-.1-.4-.2-.1-.1-.2-.3-.1-.5.2-1.9 0-6.1-2.2-8.7-1.1-1.3-2.9-1.3-5.7-1.3-1 0-2.2 0-3.5-.1-9.9-.6-14.6-3.9-17.2-6.6-.7 2.2-2.5 8.3-2.7 10.4 0 .5-.1 1-.1 1.5-.3 3.9-.4 5.2-1.3 5.2-.2 0-.5-.1-.6-.4-1-1.3-1.8-1.9-2.3-2.3-.6-.5-1.1-.9-.9-1.8.2-.8-.2-2.6-.6-4.4-.7-3.4-1.6-7.7-.2-10.6 1.5-3.2 3.4-4 5-4.6.9-.3 1.7-.7 2.4-1.3 2.1-1.9 6.5-6 13.9-6 1.9 0 3.9.3 5.9.8 3.8 1 7.6 3 10.7 5.6 2.6 2.2 4.4 4.7 4.6 6.4.5 3.7-.1 6.9-.6 9.5-.4 2.2-.8 4-.1 5 .1.2.1.4 0 .6-3.2 3.8-3.8 3.8-4 3.8zM115.8 374c-7 0-11.2 3.9-13.3 5.7-.9.8-1.8 1.2-2.7 1.5-1.6.6-3.1 1.2-4.5 4.1-1.2 2.6-.4 6.7.3 10 .4 2.1.8 3.8.6 4.8-.1.3-.1.3.6.8.5.4 1.3 1 2.2 2.2.2-.8.4-2.8.4-4.1 0-.5.1-1.1.1-1.5.2-2.7 2.9-11.1 3-11.4.1-.2.2-.3.4-.3s.3 0 .5.1c2.4 2.6 6.8 6.2 17.1 6.9 1.3.1 2.4.1 3.5.1 2.9 0 5 0 6.4 1.7 2.1 2.5 2.5 6.3 2.4 8.6.6-.6 1.6-1.7 2.5-2.7-.6-1.3-.2-3.1.2-5.3.5-2.5 1.1-5.6.6-9.2-.3-2.6-6.3-9-14.6-11.1-2-.7-3.9-.9-5.7-.9z"/><path class="st4" d="M104.5 383.6s.1.1.3.2l.3.3c.1.1.3.2.4.3.1.1.3.2.4.4.2.1.3.3.5.4.2.2.4.3.6.4s.4.3.6.4.4.3.6.4.4.3.6.4.4.3.5.4c.2.1.3.2.5.3.2.1.3.2.4.3.1.1.2.1.3.2.2.1.3.2.3.2h-.8c-.2 0-.3 0-.5-.1s-.4-.1-.6-.2-.4-.2-.7-.3c-.2-.1-.5-.2-.7-.4-.2-.1-.4-.3-.6-.4s-.4-.3-.6-.5-.4-.3-.5-.5c-.2-.2-.3-.4-.5-.5-.1-.2-.3-.4-.4-.5-.1-.2-.2-.3-.3-.5-.1-.1-.1-.3-.2-.4.1-.2.1-.3.1-.3z"/><path class="st6" d="M315.3 326.7c-.5 0-1.1-.1-1.6-.2-1.6-.4-3-1.5-3.8-2.9l-4.7-8.2c-.8-1.4-1.1-3.1-.6-4.7.4-1.6 1.5-3 2.9-3.8l8.2-4.7c1.4-.8 3.1-1.1 4.7-.6 1.6.4 3 1.5 3.8 2.9l4.7 8.2c.8 1.4 1.1 3.1.6 4.7-.4 1.6-1.5 3-2.9 3.8l-8.2 4.7c-1 .6-2 .8-3.1.8zm3.4-24.4c-.9 0-1.8.2-2.6.7l-8.2 4.7c-2.5 1.4-3.4 4.7-1.9 7.2l4.7 8.2c1.4 2.5 4.7 3.4 7.2 1.9l8.2-4.7c2.5-1.4 3.4-4.7 1.9-7.2l-4.7-8.2c-1-1.7-2.8-2.6-4.6-2.6z"/><path class="st7" d="M176.5 321c-.4 0-.8-.1-1.3-.2-1.2-.3-2.3-1.1-2.9-2.3l-3.7-6.4c-.6-1.1-.8-2.4-.5-3.7.3-1.2 1.1-2.3 2.3-2.9l6.4-3.7c1.1-.6 2.4-.8 3.7-.5 1.2.3 2.3 1.1 2.9 2.3l3.7 6.4c.6 1.1.8 2.4.5 3.7-.3 1.2-1.1 2.3-2.3 2.9l-6.4 3.7c-.7.5-1.5.7-2.4.7zm2.7-19c-.7 0-1.4.2-2 .5l-6.4 3.7c-1.9 1.1-2.6 3.6-1.5 5.6l3.7 6.4c1.1 1.9 3.6 2.6 5.6 1.5l6.4-3.7c1.9-1.1 2.6-3.6 1.5-5.6l-3.7-6.4c-.8-1.2-2.2-2-3.6-2zM92.5 291.3c-.3 0-.6 0-1-.1-.9-.3-1.7-.9-2.2-1.7l-2.8-4.8c-.5-.9-.6-1.8-.4-2.8.3-.9.9-1.7 1.7-2.2l4.8-2.8c.9-.5 1.8-.6 2.8-.4.9.3 1.7.9 2.2 1.7l2.8 4.8c.5.9.6 1.8.4 2.8-.3.9-.9 1.7-1.7 2.2l-4.8 2.8c-.5.3-1.2.5-1.8.5zm2-14.4c-.5 0-1.1.1-1.5.4l-4.8 2.8c-1.5.9-2 2.7-1.1 4.2l2.8 4.8c.9 1.5 2.7 2 4.2 1.1l4.8-2.8c1.5-.9 2-2.7 1.1-4.2l-2.8-4.8c-.6-1-1.6-1.5-2.7-1.5zM424.2 110.3c-.3 0-.5 0-.8-.1-.8-.2-1.4-.7-1.8-1.4l-2.2-3.9c-.4-.7-.5-1.5-.3-2.2.2-.8.7-1.4 1.4-1.8l3.9-2.2c.7-.4 1.5-.5 2.2-.3.8.2 1.4.7 1.8 1.4l2.2 3.9c.4.7.5 1.5.3 2.2-.2.8-.7 1.4-1.4 1.8l-3.9 2.2c-.4.2-.9.4-1.4.4zm1.6-11.6c-.4 0-.8.1-1.2.3l-3.9 2.2c-1.2.7-1.6 2.2-.9 3.4l2.2 3.9c.7 1.2 2.2 1.6 3.4.9l3.9-2.2c1.2-.7 1.6-2.2.9-3.4L428 100c-.5-.8-1.3-1.3-2.2-1.3z"/><path class="st6" d="m110.1 41-7.7-10c-.6-.8-.7-1.7-.3-2.6.4-.9 1.2-1.5 2.1-1.6l12.5-1.6c1-.1 1.9.3 2.5 1s.7 1.7.3 2.6l-4.8 11.6c-.4.9-1.2 1.5-2.1 1.6-1 .2-2-.2-2.5-1zm6.6-15.2-12.5 1.6c-.7.1-1.3.6-1.6 1.2-.3.7-.2 1.4.3 2l7.7 10c.4.6 1.1.9 1.9.8.7-.1 1.3-.6 1.6-1.2l4.8-11.6c.3-.7.2-1.4-.3-2s-1.1-.9-1.9-.8zM127 38.5l1.9-5.3c.1-.4.5-.7.9-.8s.8.1 1.1.4l3.6 4.3c.3.3.4.8.2 1.2s-.5.7-.9.8l-5.5 1c-.4.1-.8-.1-1.1-.4-.3-.3-.4-.8-.2-1.2zm7.3-1.1-3.6-4.3c-.2-.2-.5-.4-.8-.3-.3.1-.6.3-.7.6l-1.9 5.3c-.1.3-.1.6.2.9.2.2.5.4.8.3l5.5-1c.3-.1.6-.3.7-.6 0-.4 0-.7-.2-.9z"/><path class="st1" d="m260.4 394.1-7.3-12.7a3.7 3.7 0 0 1 0-3.8l7.3-12.7c.7-1.2 1.9-1.9 3.3-1.9h14.6c1.4 0 2.6.7 3.3 1.9l7.3 12.7c.7 1.2.7 2.6 0 3.8l-7.3 12.7c-.7 1.2-1.9 1.9-3.3 1.9h-14.6c-1.4 0-2.7-.7-3.3-1.9z"/><path d="m261 393.3-6.9-12c-.6-1.1-.6-2.5 0-3.6l6.9-12c.6-1.1 1.8-1.8 3.1-1.8h13.8c1.3 0 2.5.7 3.1 1.8l6.9 11.9c.6 1.1.6 2.5 0 3.6l-6.9 12c-.6 1.1-1.8 1.8-3.1 1.8h-13.8c-1.3 0-2.5-.6-3.1-1.7z" style="fill:#7c4dff"/><path d="M262.8 376.7c-.3-.3-.5-.7-.5-1.2 0-2.5 2-4.5 4.5-4.5h8.5c1.8 0 3.2 1.4 3.2 3.2v2.7c0 .2-.1.3-.3.3H272l5.9 5.9c.4.3.6.7.6 1.2 0 2.6-2.1 4.6-4.6 4.6h-8.5c-1.7 0-3.1-1.4-3.1-3.1V383c0-.2.1-.3.3-.3h6.2l-5.9-5.9-.1-.1z" style="fill:#f7f7f7"/><path class="st11" d="m273.7 387.6-6.2-4.8h1.4zM267.2 372.3l4.9 4.9h1.6z"/><path d="M213.1 213.5c-3.9-5.5-11.5-7.2-17-3.7l-9.7 6.2c-2.6 1.7-4.5 4.4-5 7.5-.5 2.6-.1 5.2 1.2 7.5-.8 1.3-1.4 2.7-1.7 4.2-.6 3.1.2 6.4 2 9 3.9 5.5 11.5 7.2 17 3.7l9.7-6.2c2.7-1.7 4.5-4.4 5-7.5.5-2.6.1-5.2-1.2-7.5.8-1.3 1.4-2.7 1.7-4.2.6-3.2-.1-6.4-2-9" style="fill:#ff3e00"/><path class="st1" d="M195.1 244.7c-3.1.8-6.4-.4-8.3-3.1-1.1-1.6-1.6-3.5-1.2-5.4.1-.3.1-.6.2-.9l.2-.6.5.4c1.1.8 2.4 1.5 3.8 1.9l.4.1v.4c0 .5.1 1 .4 1.4.6.8 1.5 1.2 2.5.9.2-.1.4-.1.6-.3l9.7-6.2c.5-.3.8-.8.9-1.4.1-.6 0-1.2-.4-1.6-.6-.8-1.5-1.2-2.5-.9-.2.1-.4.1-.6.3l-3.7 2.4c-.6.4-1.3.7-2 .9-3.1.8-6.4-.4-8.3-3.1-1.1-1.6-1.6-3.5-1.2-5.4.3-1.9 1.4-3.5 3-4.5l9.7-6.2c.6-.4 1.3-.7 2-.9 3.1-.8 6.4.4 8.3 3.1 1.1 1.6 1.6 3.5 1.2 5.4-.1.3-.1.6-.2.9l-.2.6-.5-.4c-1.1-.8-2.4-1.5-3.8-1.9l-.4-.1v-.4c0-.5-.1-1-.4-1.4-.6-.8-1.5-1.2-2.5-.9-.2.1-.4.1-.6.3l-9.7 6.2c-.5.3-.8.8-.9 1.4-.1.6 0 1.2.4 1.6.6.8 1.5 1.2 2.5.9.2-.1.4-.1.6-.3l3.7-2.4c.6-.4 1.3-.7 2-.9 3.1-.8 6.4.4 8.3 3.1 1.1 1.6 1.6 3.5 1.2 5.4-.3 1.9-1.4 3.5-3 4.5l-9.7 6.2c-.6.4-1.3.7-2 .9"/><path style="fill:#00d1b2" d="m407.1 360.8 2.5-17.7 10.1-10.1 12.7 12.6-7.6 7.6 10.1 10.1-15.2 10.1z"/><path d="M290.8 51.2c-.8-.6-2.7-.8-4.2-.5-.2-1.4-1-2.7-2.4-3.8l-.8-.6-.6.8c-.7 1.1-1 2.6-.9 4.1 0 .5.2 1.4.7 2.2-.5.3-1.5.7-2.8.7h-25.1l-.1.3c-.2 1.4-.2 6 2.6 9.4 2.2 2.6 5.4 4 9.6 4 9.1 0 15.9-4.4 19-12.3 1.3 0 3.9 0 5.3-2.7 0-.1.1-.2.3-.8l.1-.3-.7-.5zM274.7 41h-3.8v3.6h3.8V41zm0 4.3h-3.8V49h3.8v-3.7zm-4.5 0h-3.8V49h3.8v-3.7zm-4.5 0h-3.8V49h3.8v-3.7zm-4.5 4.4h-3.8v3.6h3.8v-3.6zm4.5 0h-3.8v3.6h3.8v-3.6zm4.5 0h-3.8v3.6h3.8v-3.6zm4.5 0h-3.8v3.6h3.8v-3.6zm4.6 0h-3.8v3.6h3.8v-3.6z" style="fill:#2396ed"/></svg>